<?xml version="1.0" standalone="no"?>
<!DOCTYPE svg PUBLIC "-//W3C//DTD SVG 20010904//EN"
 "http://www.w3.org/TR/2001/REC-SVG-20010904/DTD/svg10.dtd">
<svg version="1.0" xmlns="http://www.w3.org/2000/svg"
 width="1024.000000pt" height="393.000000pt" viewBox="0 0 1024.000000 393.000000"
 preserveAspectRatio="xMidYMid meet">

<g transform="translate(0.000000,393.000000) scale(0.100000,-0.100000)"
fill="#000000" stroke="none">
<path d="M153 3680 c-76 -32 -74 -181 3 -210 47 -18 84 -12 115 19 16 16 29
34 29 40 0 18 -39 12 -60 -9 -54 -54 -121 15 -90 91 7 16 23 32 35 35 25 6 65
-10 65 -26 0 -6 11 -10 25 -10 31 0 32 11 2 45 -24 29 -86 42 -124 25z"/>
<path d="M510 3575 c0 -108 1 -115 20 -115 19 0 20 7 20 115 0 108 -1 115 -20
115 -19 0 -20 -7 -20 -115z"/>
<path d="M970 3575 l0 -115 25 0 25 0 0 115 0 115 -25 0 -25 0 0 -115z"/>
<path d="M1350 3650 c0 -37 -2 -40 -19 -30 -30 16 -50 12 -76 -15 -18 -18 -25
-35 -25 -65 0 -64 48 -98 101 -70 13 7 19 7 19 0 0 -5 9 -10 20 -10 19 0 20 7
20 115 0 108 -1 115 -20 115 -17 0 -20 -7 -20 -40z m-9 -81 c16 -31 -4 -71
-33 -67 -31 5 -44 31 -30 62 14 32 47 34 63 5z"/>
<path d="M2130 3650 c0 -37 -2 -40 -19 -30 -30 16 -50 12 -76 -15 -18 -18 -25
-35 -25 -65 0 -64 48 -98 101 -70 13 7 19 7 19 0 0 -5 9 -10 20 -10 19 0 20 7
20 115 0 108 -1 115 -20 115 -17 0 -20 -7 -20 -40z m-9 -81 c16 -31 -4 -71
-33 -67 -31 5 -44 31 -30 62 14 32 47 34 63 5z"/>
<path d="M2480 3575 l0 -115 25 0 25 0 0 115 0 115 -25 0 -25 0 0 -115z"/>
<path d="M2570 3576 l0 -116 25 0 c24 0 25 2 26 78 l1 77 20 -77 c18 -69 23
-78 43 -78 21 0 26 9 43 83 l20 82 1 -82 c1 -82 1 -83 26 -83 l25 0 0 115 0
115 -38 0 -38 0 -14 -67 c-22 -115 -25 -117 -46 -23 l-20 85 -37 3 -37 3 0
-115z"/>
<path d="M2864 3656 c-28 -28 -34 -42 -34 -75 0 -74 41 -121 106 -121 48 0 94
35 94 71 0 17 -37 9 -55 -11 -39 -43 -95 -12 -95 53 0 41 28 77 58 77 11 0 27
-9 37 -20 18 -20 55 -28 55 -11 0 38 -47 71 -101 71 -22 0 -41 -10 -65 -34z"/>
<path d="M348 3619 c-22 -12 -24 -49 -4 -49 8 0 18 5 21 10 3 6 18 10 31 10
36 0 25 -23 -15 -31 -46 -9 -65 -31 -57 -63 7 -30 49 -45 77 -28 12 8 20 8 24
2 3 -6 18 -10 32 -10 19 0 24 4 19 16 -3 9 -6 38 -6 65 0 36 -5 54 -20 69 -22
22 -73 26 -102 9z m72 -89 c0 -23 -22 -35 -45 -26 -20 7 -8 34 18 39 12 2 23
5 25 6 1 0 2 -8 2 -19z"/>
<path d="M615 3605 c-72 -71 21 -187 103 -129 12 8 22 22 22 30 0 16 -36 19
-45 4 -11 -17 -44 -11 -56 11 -8 16 -8 28 0 45 11 24 45 33 56 14 9 -15 45
-12 45 4 0 21 -40 46 -73 46 -16 0 -38 -10 -52 -25z"/>
<path d="M770 3576 c0 -30 4 -66 10 -80 11 -30 54 -44 82 -27 11 7 18 7 18 1
0 -5 11 -10 25 -10 25 0 25 1 25 85 0 84 0 85 -25 85 -23 0 -24 -4 -27 -62 -3
-60 -4 -63 -28 -63 -24 0 -25 3 -28 63 -3 58 -4 62 -27 62 -23 0 -25 -3 -25
-54z"/>
<path d="M1070 3610 c-25 -25 -25 -40 -1 -40 11 0 23 5 26 10 3 6 18 10 31 10
40 0 23 -22 -27 -34 -40 -10 -44 -14 -47 -43 -3 -27 1 -35 22 -45 20 -8 32 -8
51 0 15 7 25 8 25 2 0 -6 14 -10 30 -10 27 0 30 2 20 19 -5 11 -10 45 -10 75
0 44 -4 57 -19 66 -31 16 -79 12 -101 -10z m76 -96 c-7 -19 -51 -15 -51 6 0
15 48 32 53 18 2 -5 1 -16 -2 -24z"/>
<path d="M1454 3606 c-83 -70 24 -192 110 -125 21 16 26 29 26 64 0 35 -5 48
-26 64 -35 28 -76 27 -110 -3z m86 -30 c28 -35 -11 -93 -47 -70 -36 22 -23 84
17 84 10 0 23 -7 30 -14z"/>
<path d="M1630 3545 c0 -78 2 -85 20 -85 17 0 20 7 20 48 0 54 6 67 38 76 13
4 22 15 22 27 0 23 -17 25 -42 2 -17 -15 -18 -15 -18 0 0 10 -8 17 -20 17 -18
0 -20 -7 -20 -85z"/>
<path d="M1772 3614 c-27 -19 -29 -44 -2 -44 11 0 20 5 20 10 0 6 12 10 26 10
36 0 25 -23 -14 -31 -60 -12 -80 -50 -44 -82 21 -19 45 -21 73 -7 13 7 19 7
19 0 0 -5 10 -10 23 -10 22 0 23 3 19 68 -3 52 -8 71 -24 85 -25 21 -66 22
-96 1z m68 -95 c-13 -23 -50 -26 -50 -4 0 16 39 36 53 28 4 -2 2 -13 -3 -24z"/>
<path d="M2242 3623 c-23 -9 -44 -64 -37 -99 11 -63 81 -84 132 -39 l28 24
-25 1 c-14 0 -32 -4 -39 -9 -9 -6 -22 -6 -33 0 -33 18 -19 29 37 29 52 0 55 1
55 25 0 51 -66 89 -118 68z m72 -48 c4 -12 -3 -15 -29 -15 -33 0 -43 8 -28 23
12 13 51 7 57 -8z"/>
<path d="M106 3105 c-21 -21 -21 -69 0 -90 24 -24 66 -15 84 18 13 24 13 30 0
55 -18 32 -60 41 -84 17z m55 -5 c26 -14 26 -66 0 -80 -25 -13 -27 -13 -45 6
-20 20 -20 48 0 68 18 19 20 19 45 6z"/>
<path d="M260 3060 c0 -33 4 -60 10 -60 6 0 10 27 10 60 0 33 -4 60 -10 60 -6
0 -10 -27 -10 -60z"/>
<path d="M450 3101 c0 -14 -6 -17 -25 -13 -19 3 -27 -1 -34 -19 -14 -38 1 -64
38 -65 l31 -1 0 59 c0 32 -2 58 -5 58 -3 0 -5 -8 -5 -19z m-11 -40 c7 -13 6
-23 -3 -36 -16 -22 -36 -12 -36 19 0 39 22 49 39 17z"/>
<path d="M780 3101 c0 -14 -5 -18 -18 -14 -28 7 -47 -23 -36 -55 7 -21 16 -27
42 -29 l32 -1 0 59 c0 33 -4 59 -10 59 -5 0 -10 -9 -10 -19z m-5 -57 c0 -19
-5 -29 -15 -29 -16 0 -25 28 -16 51 10 25 31 10 31 -22z"/>
<path d="M950 3061 c0 -65 19 -87 21 -23 l1 37 12 -34 c18 -50 31 -48 47 6
l14 48 6 -50 6 -50 1 63 c1 34 -2 62 -7 62 -5 0 -17 -24 -27 -52 l-17 -53 -17
49 c-24 72 -40 71 -40 -3z"/>
<path d="M1480 3104 c-8 -8 -13 -28 -13 -44 0 -16 5 -36 13 -44 24 -30 80 -14
80 23 0 11 -6 9 -20 -7 -28 -30 -60 -14 -60 28 0 40 34 59 61 34 20 -18 27 -6
7 14 -17 17 -53 15 -68 -4z"/>
<path d="M2040 3060 c0 -33 4 -60 10 -60 6 0 10 27 10 60 0 33 -4 60 -10 60
-6 0 -10 -27 -10 -60z"/>
<path d="M2145 3110 c-20 -32 -24 -74 -10 -106 8 -19 17 -34 20 -34 3 0 1 9
-5 19 -5 11 -10 36 -10 56 0 20 5 45 10 56 11 20 6 27 -5 9z"/>
<path d="M2180 3060 c0 -33 4 -60 10 -60 6 0 10 27 10 60 0 33 -4 60 -10 60
-6 0 -10 -27 -10 -60z"/>
<path d="M2220 3061 c0 -65 19 -87 21 -23 l1 37 12 -34 c18 -50 31 -48 47 6
l14 48 6 -50 6 -50 1 63 c1 34 -2 62 -7 62 -5 0 -17 -24 -27 -52 l-17 -53 -17
49 c-24 72 -40 71 -40 -3z"/>
<path d="M2370 3104 c-8 -8 -13 -28 -13 -44 0 -16 5 -36 13 -44 24 -30 80 -14
80 23 0 11 -6 9 -20 -7 -28 -30 -60 -14 -60 28 0 40 34 59 61 34 20 -18 27 -6
7 14 -17 17 -53 15 -68 -4z"/>
<path d="M2477 3100 c4 -14 8 -38 8 -55 0 -16 -4 -41 -8 -55 l-8 -25 15 25 c9
14 15 39 15 55 0 17 -6 41 -15 55 l-15 25 8 -25z"/>
<path d="M2600 3109 c0 -5 5 -7 10 -4 6 3 10 8 10 11 0 2 -4 4 -10 4 -5 0 -10
-5 -10 -11z"/>
<path d="M3330 3101 c0 -14 -5 -18 -18 -14 -28 7 -47 -23 -36 -55 7 -21 16
-27 42 -29 l32 -1 0 59 c0 33 -4 59 -10 59 -5 0 -10 -9 -10 -19z m-5 -57 c0
-19 -5 -29 -15 -29 -16 0 -25 28 -16 51 10 25 31 10 31 -22z"/>
<path d="M3460 3100 c0 -13 -5 -18 -15 -14 -21 8 -45 -14 -45 -41 0 -28 19
-45 48 -42 20 1 22 7 22 59 0 32 -2 58 -5 58 -3 0 -5 -9 -5 -20z m-6 -68 c-13
-20 -25 -20 -38 1 -7 10 -5 21 4 32 12 15 15 15 29 0 12 -12 13 -19 5 -33z"/>
<path d="M3940 3100 c0 -13 -5 -18 -15 -14 -21 8 -45 -14 -45 -41 0 -28 19
-45 48 -42 20 1 22 7 22 59 0 32 -2 58 -5 58 -3 0 -5 -9 -5 -20z m-6 -68 c-13
-20 -25 -20 -38 1 -7 10 -5 21 4 32 12 15 15 15 29 0 12 -12 13 -19 5 -33z"/>
<path d="M4733 3060 c0 -36 2 -50 4 -32 2 17 2 47 0 65 -2 17 -4 3 -4 -33z"/>
<path d="M6355 3110 c-3 -5 -2 -10 4 -10 5 0 13 5 16 10 3 6 2 10 -4 10 -5 0
-13 -4 -16 -10z"/>
<path d="M7690 3101 c0 -14 -5 -18 -18 -14 -28 7 -47 -23 -36 -55 7 -21 16
-27 42 -29 l32 -1 0 59 c0 33 -4 59 -10 59 -5 0 -10 -9 -10 -19z m-5 -57 c0
-19 -5 -29 -15 -29 -16 0 -25 28 -16 51 10 25 31 10 31 -22z"/>
<path d="M7760 3109 c0 -5 5 -7 10 -4 6 3 10 8 10 11 0 2 -4 4 -10 4 -5 0 -10
-5 -10 -11z"/>
<path d="M7993 3060 c0 -36 2 -50 4 -32 2 17 2 47 0 65 -2 17 -4 3 -4 -33z"/>
<path d="M8470 3060 c0 -33 4 -60 10 -60 6 0 10 27 10 60 0 33 -4 60 -10 60
-6 0 -10 -27 -10 -60z"/>
<path d="M8690 3112 c0 -4 10 -9 22 -9 18 -2 20 0 8 7 -18 12 -30 13 -30 2z"/>
<path d="M9420 3060 c0 -33 4 -60 10 -60 6 0 10 27 10 60 0 33 -4 60 -10 60
-6 0 -10 -27 -10 -60z"/>
<path d="M9830 3060 l0 -60 43 2 42 1 -37 4 c-32 4 -38 8 -38 28 0 20 6 24 38
28 l37 4 -37 1 c-30 2 -38 6 -38 21 0 15 8 21 38 24 l37 4 -42 1 -43 2 0 -60z"/>
<path d="M6278 3099 c-7 -20 6 -92 17 -96 8 -2 11 41 6 100 -1 11 -19 8 -23
-4z"/>
<path d="M9458 3099 c-7 -20 6 -92 17 -96 8 -2 11 41 6 100 -1 11 -19 8 -23
-4z"/>
<path d="M300 3046 c0 -55 17 -62 22 -8 4 52 31 50 39 -3 l7 -40 -2 45 c-1 43
-2 45 -33 48 -33 3 -33 3 -33 -42z"/>
<path d="M483 3045 c0 -27 2 -38 4 -22 2 15 2 37 0 50 -2 12 -4 0 -4 -28z"/>
<path d="M522 3078 c-16 -16 -15 -53 3 -68 18 -15 47 -10 53 10 5 13 3 13 -11
1 -14 -11 -20 -11 -32 -1 -19 15 -19 21 -1 45 12 16 16 17 30 6 9 -7 16 -9 16
-3 0 9 -22 22 -39 22 -4 0 -12 -5 -19 -12z"/>
<path d="M598 3064 c-9 -18 -9 -30 -1 -42 13 -21 55 -22 61 -2 4 13 3 13 -11
2 -9 -8 -21 -11 -27 -7 -20 12 -10 25 20 25 33 0 35 3 20 31 -15 27 -48 24
-62 -7z m50 -2 c2 -7 -6 -12 -17 -12 -21 0 -27 11 -14 24 9 9 26 2 31 -12z"/>
<path d="M820 3064 c-19 -48 28 -87 60 -49 14 17 0 21 -17 4 -6 -6 -16 -8 -22
-5 -21 13 -11 26 19 26 31 0 39 17 18 38 -20 20 -48 14 -58 -14z m48 -2 c2 -7
-6 -12 -17 -12 -21 0 -27 11 -14 24 9 9 26 2 31 -12z"/>
<path d="M1097 3084 c-14 -14 -7 -26 8 -14 12 10 19 10 27 2 8 -8 7 -13 -5
-17 -9 -3 -24 -7 -33 -10 -8 -3 -14 -13 -12 -22 2 -13 14 -18 39 -19 l35 -2
-5 42 c-5 31 -11 42 -26 44 -12 2 -24 0 -28 -4z m41 -56 c-7 -19 -38 -22 -38
-4 0 10 9 16 21 16 12 0 19 -5 17 -12z"/>
<path d="M1177 3084 c-15 -15 -6 -35 20 -45 19 -7 23 -13 15 -21 -8 -8 -16 -7
-28 3 -15 12 -17 12 -12 -1 6 -20 35 -25 53 -10 18 15 11 28 -23 41 -19 7 -22
13 -14 21 8 8 16 7 28 -3 15 -12 17 -12 12 1 -5 16 -39 25 -51 14z"/>
<path d="M1257 3084 c-15 -15 -6 -35 20 -45 19 -7 23 -13 15 -21 -8 -8 -16 -7
-28 3 -15 12 -17 12 -12 -1 6 -20 35 -25 53 -10 18 15 11 28 -23 41 -19 7 -22
13 -14 21 8 8 16 7 28 -3 15 -12 17 -12 12 1 -5 16 -39 25 -51 14z"/>
<path d="M1347 3084 c-4 -4 -7 -12 -7 -18 0 -6 5 -5 12 2 16 16 28 15 28 -2 0
-8 -10 -16 -22 -18 -15 -2 -23 -10 -23 -23 0 -16 7 -20 35 -21 l36 -1 -6 41
c-4 31 -10 42 -25 44 -12 2 -24 0 -28 -4z m33 -53 c0 -14 -18 -23 -30 -16 -6
4 -8 11 -5 16 8 12 35 12 35 0z"/>
<path d="M1592 3078 c-30 -30 -2 -86 38 -73 15 5 20 15 20 40 0 41 -32 59 -58
33z m43 -34 c0 -32 -21 -39 -38 -12 -8 12 -7 21 3 32 19 24 35 14 35 -20z"/>
<path d="M1671 3040 c1 -43 1 -44 9 -13 4 18 13 39 19 47 10 12 9 15 -8 13
-18 -1 -21 -8 -20 -47z"/>
<path d="M1721 3026 c1 -34 4 -52 6 -40 3 16 10 20 28 16 19 -3 27 1 34 19 14
38 -1 64 -38 65 l-31 1 1 -61z m57 25 c5 -34 -16 -51 -33 -27 -10 14 -11 24
-4 38 13 24 33 18 37 -11z"/>
<path d="M1822 3078 c-30 -30 -2 -86 38 -73 15 5 20 15 20 40 0 41 -32 59 -58
33z m43 -34 c0 -32 -21 -39 -38 -12 -8 12 -7 21 3 32 19 24 35 14 35 -20z"/>
<path d="M1900 3044 c0 -24 5 -44 10 -44 6 0 10 15 10 33 0 18 4 37 10 43 6 6
3 10 -10 11 -17 2 -20 -4 -20 -43z"/>
<path d="M1967 3084 c-14 -14 -7 -26 8 -14 12 10 19 10 27 2 8 -8 7 -13 -5
-17 -9 -3 -24 -7 -33 -10 -8 -3 -14 -13 -12 -22 2 -13 14 -18 39 -19 l35 -2
-5 42 c-5 31 -11 42 -26 44 -12 2 -24 0 -28 -4z m41 -56 c-7 -19 -38 -22 -38
-4 0 10 9 16 21 16 12 0 19 -5 17 -12z"/>
<path d="M2570 3064 c-19 -48 28 -87 60 -49 14 17 0 21 -17 4 -6 -6 -16 -8
-22 -5 -21 13 -11 26 19 26 31 0 39 17 18 38 -20 20 -48 14 -58 -14z m48 -2
c2 -7 -6 -12 -17 -12 -21 0 -27 11 -14 24 9 9 26 2 31 -12z"/>
<path d="M2704 3050 c1 -43 2 -45 34 -48 32 -3 32 -3 32 42 0 55 -17 62 -22 9
-4 -53 -31 -51 -39 2 l-7 40 2 -45z"/>
<path d="M2791 3041 c2 -34 3 -38 6 -16 10 64 42 69 44 7 1 -20 3 -28 6 -17 2
11 6 30 9 43 7 35 28 21 35 -24 l7 -39 -2 45 -1 45 -52 1 -53 1 1 -46z"/>
<path d="M2937 3084 c-4 -4 -7 -12 -7 -18 0 -6 5 -5 12 2 16 16 28 15 28 -2 0
-8 -10 -16 -22 -18 -15 -2 -23 -10 -23 -23 0 -16 7 -20 35 -21 l36 -1 -6 41
c-4 31 -10 42 -25 44 -12 2 -24 0 -28 -4z m33 -53 c0 -14 -18 -23 -30 -16 -6
4 -8 11 -5 16 8 12 35 12 35 0z"/>
<path d="M3061 3041 l2 -46 6 39 c8 55 31 60 31 7 0 -51 18 -54 22 -4 4 52 28
56 28 4 0 -23 5 -41 11 -41 6 0 9 17 7 43 l-3 42 -52 1 -53 1 1 -46z"/>
<path d="M3190 3064 c-19 -48 28 -87 60 -49 14 17 0 21 -17 4 -6 -6 -16 -8
-22 -5 -21 13 -11 26 19 26 31 0 39 17 18 38 -20 20 -48 14 -58 -14z m48 -2
c2 -7 -6 -12 -17 -12 -21 0 -27 11 -14 24 9 9 26 2 31 -12z"/>
<path d="M3373 3045 c0 -27 2 -38 4 -22 2 15 2 37 0 50 -2 12 -4 0 -4 -28z"/>
<path d="M3497 3083 c-14 -13 -7 -25 8 -13 8 6 19 9 25 5 17 -11 11 -23 -12
-27 -15 -2 -23 -10 -23 -23 0 -16 7 -20 36 -21 34 -1 35 0 31 30 -3 17 -9 37
-14 44 -11 13 -40 16 -51 5z m43 -52 c0 -14 -18 -23 -30 -16 -6 4 -8 11 -5 16
8 12 35 12 35 0z"/>
<path d="M3634 3050 c1 -42 3 -45 29 -46 26 -1 27 1 26 45 l-2 46 -6 -40 c-4
-26 -11 -40 -21 -40 -10 0 -17 14 -21 40 l-7 40 2 -45z"/>
<path d="M3717 3084 c-15 -15 -6 -35 20 -45 19 -7 23 -13 15 -21 -8 -8 -16 -7
-28 3 -15 12 -17 12 -12 -1 6 -20 35 -25 53 -10 18 15 11 28 -23 41 -19 7 -22
13 -14 21 8 8 16 7 28 -3 15 -12 17 -12 12 1 -5 16 -39 25 -51 14z"/>
<path d="M3807 3084 c-4 -4 -7 -12 -7 -18 0 -6 5 -5 12 2 16 16 28 15 28 -2 0
-8 -10 -16 -22 -18 -15 -2 -23 -10 -23 -23 0 -16 7 -20 35 -21 l36 -1 -6 41
c-4 31 -10 42 -25 44 -12 2 -24 0 -28 -4z m33 -53 c0 -14 -18 -23 -30 -16 -6
4 -8 11 -5 16 8 12 35 12 35 0z"/>
<path d="M3977 3083 c-14 -13 -7 -25 8 -13 8 6 19 9 25 5 17 -11 11 -23 -12
-27 -15 -2 -23 -10 -23 -23 0 -16 7 -20 36 -21 34 -1 35 0 31 30 -3 17 -9 37
-14 44 -11 13 -40 16 -51 5z m43 -52 c0 -14 -18 -23 -30 -16 -6 4 -8 11 -5 16
8 12 35 12 35 0z"/>
<path d="M4100 3030 c0 -33 4 -60 10 -60 6 0 10 8 10 18 0 13 7 18 21 18 31
-1 46 26 31 58 -9 20 -19 26 -42 26 l-30 0 0 -60z m55 14 c0 -19 -5 -29 -15
-29 -16 0 -25 28 -16 51 10 25 31 10 31 -22z"/>
<path d="M4207 3084 c-4 -4 -7 -12 -7 -18 0 -6 5 -5 12 2 16 16 28 15 28 -2 0
-8 -10 -16 -22 -18 -15 -2 -23 -10 -23 -23 0 -16 7 -20 35 -21 l36 -1 -6 41
c-4 31 -10 42 -25 44 -12 2 -24 0 -28 -4z m33 -53 c0 -14 -18 -23 -30 -16 -6
4 -8 11 -5 16 8 12 35 12 35 0z"/>
<path d="M4280 3044 c0 -24 5 -44 10 -44 6 0 10 15 10 33 0 18 4 37 10 43 6 6
3 10 -10 11 -17 2 -20 -4 -20 -43z"/>
<path d="M4347 3084 c-14 -14 -7 -26 8 -14 12 10 19 10 27 2 8 -8 7 -13 -5
-17 -9 -3 -24 -7 -33 -10 -8 -3 -14 -13 -12 -22 2 -13 14 -18 39 -19 l35 -2
-5 42 c-5 31 -11 42 -26 44 -12 2 -24 0 -28 -4z m41 -56 c-7 -19 -38 -22 -38
-4 0 10 9 16 21 16 12 0 19 -5 17 -12z"/>
<path d="M4477 3084 c-14 -14 -7 -26 8 -14 12 10 19 10 27 2 8 -8 6 -13 -8
-18 -52 -19 -53 -54 0 -52 31 1 32 2 26 42 -4 31 -10 42 -25 44 -12 2 -24 0
-28 -4z m41 -56 c-7 -19 -38 -22 -38 -4 0 10 9 16 21 16 12 0 19 -5 17 -12z"/>
<path d="M4556 3068 c14 -45 24 -68 29 -68 8 0 35 66 34 82 0 7 -9 -5 -18 -27
l-19 -40 -7 38 c-4 20 -12 37 -17 37 -5 0 -6 -10 -2 -22z"/>
<path d="M4647 3084 c-14 -14 -7 -26 8 -14 12 10 19 10 27 2 8 -8 6 -13 -8
-18 -52 -19 -53 -54 0 -52 31 1 32 2 26 42 -4 31 -10 42 -25 44 -12 2 -24 0
-28 -4z m41 -56 c-7 -19 -38 -22 -38 -4 0 10 9 16 21 16 12 0 19 -5 17 -12z"/>
<path d="M4760 3045 c0 -25 5 -45 10 -45 6 0 10 20 10 45 0 25 -4 45 -10 45
-5 0 -10 -20 -10 -45z"/>
<path d="M4807 3084 c-14 -14 -7 -26 8 -14 12 10 19 10 27 2 8 -8 6 -13 -8
-18 -52 -19 -53 -54 0 -52 31 1 32 2 26 42 -4 31 -10 42 -25 44 -12 2 -24 0
-28 -4z m41 -56 c-7 -19 -38 -22 -38 -4 0 10 9 16 21 16 12 0 19 -5 17 -12z"/>
<path d="M4892 3040 c1 -40 2 -41 5 -10 2 19 11 40 20 47 13 10 13 12 -6 10
-18 -1 -21 -7 -19 -47z"/>
<path d="M4987 3084 c-15 -15 -6 -35 20 -45 19 -7 23 -13 15 -21 -8 -8 -16 -7
-28 3 -15 12 -17 12 -12 -1 6 -20 35 -25 53 -10 18 15 11 28 -23 41 -19 7 -22
13 -14 21 8 8 16 7 28 -3 15 -12 17 -12 12 1 -5 16 -39 25 -51 14z"/>
<path d="M5072 3078 c-16 -16 -15 -53 3 -68 18 -15 47 -10 53 10 5 13 3 13
-12 1 -15 -12 -19 -12 -34 2 -15 16 -14 17 17 17 28 0 32 3 29 23 -3 25 -36
35 -56 15z m46 -16 c2 -7 -7 -12 -23 -12 -24 0 -26 2 -15 15 14 17 31 16 38
-3z"/>
<path d="M5204 3050 c1 -41 3 -45 29 -48 26 -3 27 -2 26 45 l-2 48 -6 -40 c-4
-26 -11 -40 -21 -40 -10 0 -17 14 -21 40 l-7 40 2 -45z"/>
<path d="M5291 3041 l2 -46 6 39 c8 55 31 60 31 7 0 -51 18 -54 22 -4 4 52 28
56 28 4 0 -23 5 -41 11 -41 6 0 9 17 7 43 l-3 42 -52 1 -53 1 1 -46z"/>
<path d="M5427 3084 c-14 -14 -7 -26 8 -14 12 10 19 10 27 2 8 -8 6 -13 -8
-18 -52 -19 -53 -54 0 -52 31 1 32 2 26 42 -4 31 -10 42 -25 44 -12 2 -24 0
-28 -4z m41 -56 c-7 -19 -38 -22 -38 -4 0 10 9 16 21 16 12 0 19 -5 17 -12z"/>
<path d="M5551 3026 c1 -34 4 -52 6 -40 3 16 10 20 28 16 19 -3 27 1 34 19 14
38 -1 64 -38 65 l-31 1 1 -61z m57 25 c5 -34 -16 -51 -33 -27 -10 14 -11 24
-4 38 13 24 33 18 37 -11z"/>
<path d="M5652 3078 c-20 -20 -15 -66 8 -73 20 -6 56 12 45 23 -2 3 -11 -1
-19 -7 -8 -7 -20 -10 -26 -6 -20 12 -10 25 20 25 18 0 30 5 30 13 0 16 -20 37
-35 37 -6 0 -16 -5 -23 -12z m29 -26 c-28 -4 -40 6 -21 18 9 6 20 4 29 -3 12
-10 11 -13 -8 -15z"/>
<path d="M5737 3084 c-15 -15 -6 -35 20 -45 19 -7 23 -13 15 -21 -8 -8 -16 -7
-28 3 -15 12 -17 12 -12 -1 7 -21 52 -19 56 2 2 12 -6 21 -24 28 -20 8 -24 14
-16 22 8 8 16 7 28 -3 15 -12 17 -12 12 1 -5 16 -39 25 -51 14z"/>
<path d="M5817 3084 c-15 -15 -6 -35 20 -45 19 -7 23 -13 15 -21 -8 -8 -16 -7
-28 3 -15 12 -17 12 -12 -1 7 -21 52 -19 56 2 2 12 -6 21 -24 28 -20 8 -24 14
-16 22 8 8 16 7 28 -3 15 -12 17 -12 12 1 -5 16 -39 25 -51 14z"/>
<path d="M5903 3083 c-7 -2 -13 -20 -13 -38 0 -25 5 -35 20 -40 26 -8 50 11
50 39 0 36 -25 53 -57 39z m41 -26 c8 -12 7 -21 -6 -33 -20 -20 -38 -11 -38
20 0 39 23 46 44 13z"/>
<path d="M5987 3084 c-14 -14 -7 -26 8 -14 12 10 19 10 27 2 8 -8 6 -13 -8
-18 -52 -19 -53 -54 0 -52 31 1 32 2 26 42 -4 31 -10 42 -25 44 -12 2 -24 0
-28 -4z m41 -56 c-7 -19 -38 -22 -38 -4 0 10 9 16 21 16 12 0 19 -5 17 -12z"/>
<path d="M6122 3078 c-16 -16 -15 -53 3 -68 18 -15 47 -10 53 10 5 13 3 13
-12 1 -15 -12 -19 -12 -34 2 -15 16 -14 17 17 17 28 0 32 3 29 23 -3 25 -36
35 -56 15z m46 -16 c2 -7 -7 -12 -23 -12 -24 0 -26 2 -15 15 14 17 31 16 38
-3z"/>
<path d="M6207 3084 c-15 -15 -6 -35 20 -45 19 -7 23 -13 15 -21 -8 -8 -16 -7
-28 3 -15 12 -17 12 -12 -1 7 -21 52 -19 56 2 2 12 -6 21 -24 28 -20 8 -24 14
-16 22 8 8 16 7 28 -3 15 -12 17 -12 12 1 -5 16 -39 25 -51 14z"/>
<path d="M6337 3084 c-14 -14 -7 -26 8 -14 12 10 19 10 27 2 8 -8 7 -13 -5
-17 -9 -3 -24 -7 -33 -10 -8 -3 -14 -13 -12 -22 2 -13 14 -18 39 -19 l35 -2
-5 42 c-5 31 -11 42 -26 44 -12 2 -24 0 -28 -4z m41 -56 c-7 -19 -38 -22 -38
-4 0 10 9 16 21 16 12 0 19 -5 17 -12z"/>
<path d="M6460 3064 c-19 -48 28 -87 60 -49 14 17 0 21 -17 4 -6 -6 -16 -8
-22 -5 -21 13 -11 26 19 26 31 0 39 17 18 38 -20 20 -48 14 -58 -14z m48 -2
c2 -7 -6 -12 -17 -12 -21 0 -27 11 -14 24 9 9 26 2 31 -12z"/>
<path d="M6551 3041 l2 -46 6 40 c4 26 11 40 21 40 10 0 17 -14 21 -40 l6 -40
2 37 c1 35 15 57 28 44 3 -3 10 -23 14 -43 l7 -38 -1 45 -2 45 -52 1 -53 1 1
-46z"/>
<path d="M6734 3050 c1 -42 3 -45 29 -46 26 -1 27 1 26 45 l-2 46 -6 -40 c-4
-26 -11 -40 -21 -40 -10 0 -17 14 -21 40 l-7 40 2 -45z"/>
<path d="M6821 3041 l2 -46 6 39 c8 55 31 60 31 7 0 -51 18 -54 22 -4 4 52 28
56 28 4 0 -23 5 -41 11 -41 6 0 9 17 7 43 l-3 42 -52 1 -53 1 1 -46z"/>
<path d="M6991 3026 c1 -34 4 -51 6 -38 2 12 9 20 14 17 5 -4 18 -3 29 0 15 5
20 15 20 41 0 19 -3 35 -7 36 -5 0 -20 2 -35 3 -28 2 -28 2 -27 -59z m53 6
c-13 -20 -25 -20 -38 1 -7 10 -5 21 4 32 12 15 15 15 29 0 12 -12 13 -19 5
-33z"/>
<path d="M7080 3064 c-19 -48 28 -87 60 -49 14 17 0 21 -17 4 -6 -6 -16 -8
-22 -5 -21 13 -11 26 19 26 31 0 39 17 18 38 -20 20 -48 14 -58 -14z m48 -2
c2 -7 -6 -12 -17 -12 -21 0 -27 11 -14 24 9 9 26 2 31 -12z"/>
<path d="M7177 3083 c-15 -14 -6 -34 20 -44 20 -7 23 -13 15 -21 -9 -9 -15 -9
-24 0 -18 18 -33 15 -18 -3 17 -20 54 -15 58 7 2 12 -6 21 -23 28 -15 6 -23
15 -20 21 4 6 13 8 21 5 8 -3 14 -1 14 4 0 11 -33 14 -43 3z"/>
<path d="M7249 3069 c-8 -16 -8 -28 0 -45 18 -41 71 -25 71 21 0 44 -50 61
-71 24z m46 -25 c0 -19 -5 -29 -15 -29 -16 0 -25 28 -16 51 10 25 31 10 31
-22z"/>
<path d="M7387 3084 c-15 -15 -6 -35 20 -45 19 -7 23 -13 15 -21 -8 -8 -16 -7
-28 3 -15 12 -17 12 -12 -1 7 -21 52 -19 56 2 2 12 -6 21 -24 28 -20 8 -24 14
-16 22 8 8 16 7 28 -3 15 -12 17 -12 12 1 -5 16 -39 25 -51 14z"/>
<path d="M7467 3083 c-14 -13 -7 -25 8 -13 8 6 19 9 25 5 17 -11 11 -23 -12
-27 -15 -2 -23 -10 -23 -23 0 -16 7 -20 36 -21 34 -1 35 0 31 30 -3 17 -9 37
-14 44 -11 13 -40 16 -51 5z m43 -52 c0 -14 -18 -23 -30 -16 -6 4 -8 11 -5 16
8 12 35 12 35 0z"/>
<path d="M7554 3050 c1 -43 2 -45 34 -48 32 -3 32 -3 32 42 0 55 -17 62 -22 9
-4 -53 -31 -51 -39 2 l-7 40 2 -45z"/>
<path d="M7737 3084 c-14 -14 -7 -26 8 -14 12 10 19 10 27 2 8 -8 6 -13 -8
-18 -52 -19 -53 -54 0 -52 31 1 32 2 26 42 -4 31 -10 42 -25 44 -12 2 -24 0
-28 -4z m41 -56 c-7 -19 -38 -22 -38 -4 0 10 9 16 21 16 12 0 19 -5 17 -12z"/>
<path d="M7810 3084 c0 -20 24 -84 32 -84 8 0 18 20 33 70 11 36 -8 15 -21
-23 l-11 -32 -7 32 c-7 29 -26 56 -26 37z"/>
<path d="M7898 3064 c-9 -18 -9 -30 -1 -42 13 -21 55 -22 61 -2 4 13 3 13 -11
2 -9 -8 -21 -11 -27 -7 -20 12 -10 25 20 25 33 0 35 3 20 31 -15 27 -48 24
-62 -7z m50 -2 c2 -7 -6 -12 -17 -12 -21 0 -27 11 -14 24 9 9 26 2 31 -12z"/>
<path d="M8068 3064 c-9 -18 -9 -30 -1 -42 13 -21 55 -22 61 -2 4 13 3 13 -11
2 -9 -8 -21 -11 -27 -7 -20 12 -10 25 20 25 33 0 35 3 20 31 -15 27 -48 24
-62 -7z m50 -2 c2 -7 -6 -12 -17 -12 -21 0 -27 11 -14 24 9 9 26 2 31 -12z"/>
<path d="M8150 3045 c0 -54 17 -60 22 -8 4 52 28 56 28 4 0 -50 18 -55 22 -6
4 47 21 45 29 -2 l6 -38 2 46 1 47 -55 1 -55 0 0 -44z"/>
<path d="M8331 3040 c1 -43 1 -44 9 -13 4 18 13 39 19 47 10 12 9 15 -8 13
-18 -1 -21 -8 -20 -47z"/>
<path d="M8388 3064 c-9 -18 -9 -30 -1 -42 13 -21 55 -22 61 -2 4 13 3 13 -11
2 -9 -8 -21 -11 -27 -7 -20 12 -10 25 20 25 33 0 35 3 20 31 -15 27 -48 24
-62 -7z m50 -2 c2 -7 -6 -12 -17 -12 -21 0 -27 11 -14 24 9 9 26 2 31 -12z"/>
<path d="M8517 3084 c-14 -14 -7 -26 8 -14 12 10 19 10 27 2 8 -8 6 -13 -8
-18 -52 -19 -53 -54 0 -52 31 1 32 2 26 42 -4 31 -10 42 -25 44 -12 2 -24 0
-28 -4z m41 -56 c-7 -19 -38 -22 -38 -4 0 10 9 16 21 16 12 0 19 -5 17 -12z"/>
<path d="M8598 3065 c-10 -22 -8 -30 11 -55 12 -17 19 -36 15 -42 -5 -7 -3 -8
5 -4 7 5 10 14 7 21 -2 7 2 16 10 19 8 3 14 11 14 17 0 8 -4 8 -15 -1 -19 -16
-35 -4 -35 25 0 30 16 41 37 23 14 -11 16 -11 11 2 -8 27 -47 24 -60 -5z"/>
<path d="M8687 3084 c-14 -14 -7 -26 8 -14 12 10 19 10 27 2 8 -8 6 -13 -8
-18 -52 -19 -53 -54 0 -52 31 1 32 2 26 42 -4 31 -10 42 -25 44 -12 2 -24 0
-28 -4z m41 -56 c-7 -19 -38 -22 -38 -4 0 10 9 16 21 16 12 0 19 -5 17 -12z"/>
<path d="M8772 3078 c-7 -7 -12 -21 -12 -33 0 -46 53 -62 71 -21 21 45 -26 87
-59 54z m46 -27 c5 -34 -16 -51 -33 -27 -10 14 -11 24 -4 38 13 24 33 18 37
-11z"/>
<path d="M8907 3083 c-14 -13 -7 -25 8 -13 8 6 19 9 25 5 17 -11 11 -23 -12
-27 -15 -2 -23 -10 -23 -23 0 -16 7 -20 36 -21 34 -1 35 0 31 30 -3 17 -9 37
-14 44 -11 13 -40 16 -51 5z m43 -52 c0 -14 -18 -23 -30 -16 -6 4 -8 11 -5 16
8 12 35 12 35 0z"/>
<path d="M9037 3084 c-15 -15 -6 -35 20 -45 19 -7 23 -13 15 -21 -8 -8 -16 -7
-28 3 -15 12 -17 12 -12 -1 6 -20 35 -25 53 -10 18 15 11 28 -23 41 -19 7 -22
13 -14 21 8 8 16 7 28 -3 15 -12 17 -12 12 1 -5 16 -39 25 -51 14z"/>
<path d="M9112 3048 c3 -41 5 -43 36 -44 32 -1 32 -1 31 45 -2 34 -3 38 -6 16
-10 -63 -43 -74 -43 -15 0 22 -5 40 -11 40 -6 0 -9 -17 -7 -42z"/>
<path d="M9217 3084 c-4 -4 -7 -12 -7 -18 0 -6 5 -5 12 2 16 16 28 15 28 -2 0
-8 -10 -16 -22 -18 -15 -2 -23 -10 -23 -23 0 -16 7 -20 35 -21 l36 -1 -6 41
c-4 31 -10 42 -25 44 -12 2 -24 0 -28 -4z m33 -53 c0 -14 -18 -23 -30 -16 -6
4 -8 11 -5 16 8 12 35 12 35 0z"/>
<path d="M9347 3084 c-14 -14 -7 -26 8 -14 12 10 19 10 27 2 8 -8 7 -13 -5
-17 -9 -3 -24 -7 -33 -10 -8 -3 -14 -13 -12 -22 2 -13 14 -18 39 -19 l35 -2
-5 42 c-5 31 -11 42 -26 44 -12 2 -24 0 -28 -4z m41 -56 c-7 -19 -38 -22 -38
-4 0 10 9 16 21 16 12 0 19 -5 17 -12z"/>
<path d="M9502 3048 c3 -41 5 -43 36 -44 32 -1 32 -1 31 45 -2 34 -3 38 -6 16
-10 -63 -43 -74 -43 -15 0 22 -5 40 -11 40 -6 0 -9 -17 -7 -42z"/>
<path d="M9590 3044 c0 -24 5 -44 10 -44 6 0 10 15 10 33 0 18 4 37 10 43 6 6
3 10 -10 11 -17 2 -20 -4 -20 -43z"/>
<path d="M9657 3084 c-14 -14 -7 -26 8 -14 12 10 19 10 27 2 8 -8 7 -13 -5
-17 -9 -3 -24 -7 -33 -10 -8 -3 -14 -13 -12 -22 2 -13 14 -18 39 -19 l35 -2
-5 42 c-5 31 -11 42 -26 44 -12 2 -24 0 -28 -4z m41 -56 c-7 -19 -38 -22 -38
-4 0 10 9 16 21 16 12 0 19 -5 17 -12z"/>
<path d="M9740 3010 c0 -5 5 -10 11 -10 5 0 7 5 4 10 -3 6 -8 10 -11 10 -2 0
-4 -4 -4 -10z"/>
<path d="M263 2870 c0 -36 2 -50 4 -32 2 17 2 47 0 65 -2 17 -4 3 -4 -33z"/>
<path d="M460 2870 c0 -33 4 -60 10 -60 6 0 10 27 10 60 0 33 -4 60 -10 60 -6
0 -10 -27 -10 -60z"/>
<path d="M640 2911 c0 -14 -5 -18 -18 -14 -28 7 -47 -23 -36 -55 7 -21 16 -27
42 -29 l32 -1 0 59 c0 33 -4 59 -10 59 -5 0 -10 -9 -10 -19z m-5 -57 c0 -19
-5 -29 -15 -29 -16 0 -25 28 -16 51 10 25 31 10 31 -22z"/>
<path d="M860 2911 c0 -14 -5 -18 -18 -14 -28 7 -47 -23 -36 -55 7 -21 16 -27
42 -29 l32 -1 0 59 c0 33 -4 59 -10 59 -5 0 -10 -9 -10 -19z m-5 -57 c0 -19
-5 -29 -15 -29 -16 0 -25 28 -16 51 10 25 31 10 31 -22z"/>
<path d="M1100 2911 c0 -14 -5 -18 -18 -14 -28 7 -47 -23 -36 -55 7 -21 16
-27 42 -29 l32 -1 0 59 c0 33 -4 59 -10 59 -5 0 -10 -9 -10 -19z m-5 -57 c0
-19 -5 -29 -15 -29 -16 0 -25 28 -16 51 10 25 31 10 31 -22z"/>
<path d="M1320 2910 c0 -13 -5 -18 -15 -14 -21 8 -45 -14 -45 -41 0 -28 19
-45 48 -42 20 1 22 7 22 59 0 32 -2 58 -5 58 -3 0 -5 -9 -5 -20z m-6 -68 c-13
-20 -25 -20 -38 1 -7 10 -5 21 4 32 12 15 15 15 29 0 12 -12 13 -19 5 -33z"/>
<path d="M2060 2911 c0 -14 -5 -18 -18 -14 -28 7 -47 -23 -36 -55 7 -21 16
-27 42 -29 l32 -1 0 59 c0 33 -4 59 -10 59 -5 0 -10 -9 -10 -19z m-5 -57 c0
-19 -5 -29 -15 -29 -16 0 -25 28 -16 51 10 25 31 10 31 -22z"/>
<path d="M3273 2870 c0 -36 2 -50 4 -32 2 17 2 47 0 65 -2 17 -4 3 -4 -33z"/>
<path d="M3980 2894 c-10 -28 -10 -45 -1 -76 15 -48 23 -46 12 2 -4 19 -4 51
0 70 10 47 4 50 -11 4z"/>
<path d="M4022 2870 c0 -48 2 -59 8 -42 12 27 27 28 35 2 3 -11 11 -20 16 -20
5 0 2 14 -6 31 -14 25 -14 33 -3 47 11 15 10 15 -8 0 -28 -24 -32 -23 -37 15
-2 17 -4 3 -5 -33z"/>
<path d="M4197 2910 c4 -14 8 -38 8 -55 0 -16 -4 -41 -8 -55 l-8 -25 15 25 c9
14 15 39 15 55 0 17 -6 41 -15 55 l-15 25 8 -25z"/>
<path d="M4473 2870 c0 -36 2 -50 4 -32 2 17 2 47 0 65 -2 17 -4 3 -4 -33z"/>
<path d="M4733 2870 c0 -36 2 -50 4 -32 2 17 2 47 0 65 -2 17 -4 3 -4 -33z"/>
<path d="M5892 2905 c-16 -35 -14 -75 4 -105 9 -14 13 -17 10 -7 -16 50 -17
69 -7 98 14 39 9 49 -7 14z"/>
<path d="M6069 2912 c14 -27 14 -87 0 -115 -9 -16 -9 -19 0 -11 29 27 29 122
0 140 -8 4 -8 0 0 -14z"/>
<path d="M6253 2870 c0 -36 2 -50 4 -32 2 17 2 47 0 65 -2 17 -4 3 -4 -33z"/>
<path d="M6600 2910 c0 -13 -5 -18 -15 -14 -21 8 -45 -14 -45 -41 0 -28 19
-45 48 -42 20 1 22 7 22 59 0 32 -2 58 -5 58 -3 0 -5 -9 -5 -20z m-5 -56 c0
-32 -21 -39 -38 -12 -8 12 -7 21 3 32 19 24 35 14 35 -20z"/>
<path d="M7310 2910 c0 -13 -5 -18 -15 -14 -21 8 -45 -14 -45 -41 0 -28 19
-45 48 -42 20 1 22 7 22 59 0 32 -2 58 -5 58 -3 0 -5 -9 -5 -20z m-5 -56 c0
-32 -21 -39 -38 -12 -8 12 -7 21 3 32 19 24 35 14 35 -20z"/>
<path d="M7540 2910 c0 -13 -5 -18 -15 -14 -21 8 -45 -14 -45 -41 0 -28 19
-45 48 -42 20 1 22 7 22 59 0 32 -2 58 -5 58 -3 0 -5 -9 -5 -20z m-5 -56 c0
-32 -21 -39 -38 -12 -8 12 -7 21 3 32 19 24 35 14 35 -20z"/>
<path d="M7722 2905 c-16 -35 -14 -75 4 -105 9 -14 13 -17 10 -7 -16 50 -17
69 -7 98 14 39 9 49 -7 14z"/>
<path d="M7773 2870 c0 -36 2 -50 4 -32 2 17 2 47 0 65 -2 17 -4 3 -4 -33z"/>
<path d="M7812 2868 l1 -63 6 50 6 50 14 -47 c7 -27 17 -48 21 -48 5 0 15 19
23 43 l15 42 1 -42 c1 -67 21 -50 21 17 0 78 -21 81 -42 8 l-14 -53 -18 53
c-10 28 -22 52 -27 52 -5 0 -8 -28 -7 -62z"/>
<path d="M7956 2914 c-9 -8 -16 -28 -16 -44 0 -52 50 -78 85 -44 22 22 10 32
-13 11 -10 -10 -21 -17 -25 -17 -13 0 -37 32 -37 50 0 19 25 50 40 50 5 0 16
-7 24 -16 14 -13 16 -13 16 -1 0 28 -50 36 -74 11z"/>
<path d="M8813 2870 c0 -36 2 -50 4 -32 2 17 2 47 0 65 -2 17 -4 3 -4 -33z"/>
<path d="M9115 2920 c-3 -6 1 -7 9 -4 20 8 21 -10 1 -26 -22 -18 -18 -30 8
-29 21 0 21 1 2 9 -18 7 -19 8 -2 15 21 9 23 45 3 45 -8 0 -18 -4 -21 -10z"/>
<path d="M9177 2910 c4 -14 8 -38 8 -55 0 -16 -4 -41 -8 -55 l-8 -25 15 25 c9
14 15 39 15 55 0 17 -6 41 -15 55 l-15 25 8 -25z"/>
<path d="M4758 2909 c-7 -20 6 -92 17 -96 8 -2 11 41 6 100 -1 11 -19 8 -23
-4z"/>
<path d="M5568 2908 c-8 -24 8 -92 22 -96 12 -4 13 -2 3 9 -15 15 -17 66 -4
71 5 2 3 8 -4 15 -10 9 -15 9 -17 1z"/>
<path d="M8838 2909 c-7 -20 6 -92 17 -96 8 -2 11 41 6 100 -1 11 -19 8 -23
-4z"/>
<path d="M94 2887 c-3 -9 -4 -28 -2 -44 2 -22 8 -28 27 -28 13 0 27 7 29 15 4
13 3 13 -11 2 -21 -18 -37 -7 -37 23 0 30 16 41 37 23 14 -11 16 -11 11 2 -6
20 -47 25 -54 7z"/>
<path d="M177 2893 c-14 -13 -7 -25 8 -13 8 6 19 9 25 5 17 -11 11 -23 -12
-27 -15 -2 -23 -10 -23 -23 0 -16 7 -20 36 -21 34 -1 35 0 31 30 -3 17 -9 37
-14 44 -11 13 -40 16 -51 5z m43 -52 c0 -14 -18 -23 -30 -16 -6 4 -8 11 -5 16
8 12 35 12 35 0z"/>
<path d="M300 2886 c-30 -37 14 -96 47 -63 10 9 12 17 6 17 -7 0 -15 -5 -18
-10 -8 -13 -35 6 -35 25 0 19 27 38 35 25 3 -5 11 -10 17 -10 7 0 6 6 -2 15
-16 19 -34 19 -50 1z"/>
<path d="M372 2858 c3 -41 5 -43 36 -44 32 -1 32 -1 31 45 -2 34 -3 38 -6 16
-10 -63 -43 -74 -43 -15 0 22 -5 40 -11 40 -6 0 -9 -17 -7 -42z"/>
<path d="M507 2894 c-14 -14 -7 -26 8 -14 12 10 19 10 27 2 8 -8 6 -13 -8 -18
-52 -19 -53 -54 0 -52 31 1 32 2 26 42 -4 31 -10 42 -25 44 -12 2 -24 0 -28
-4z m41 -56 c-7 -19 -38 -22 -38 -4 0 10 9 16 21 16 12 0 19 -5 17 -12z"/>
<path d="M682 2888 c-7 -7 -12 -21 -12 -33 0 -46 53 -62 71 -21 21 45 -26 87
-59 54z m46 -27 c5 -34 -16 -51 -33 -27 -10 14 -11 24 -4 38 13 24 33 18 37
-11z"/>
<path d="M903 2855 c0 -27 2 -38 4 -22 2 15 2 37 0 50 -2 12 -4 0 -4 -28z"/>
<path d="M931 2896 c-2 -17 22 -86 30 -86 4 0 14 20 22 45 9 25 12 45 8 45 -5
0 -13 -15 -18 -32 l-10 -33 -16 35 c-8 19 -16 31 -16 26z"/>
<path d="M1010 2855 c0 -25 5 -45 10 -45 6 0 10 20 10 45 0 25 -4 45 -10 45
-5 0 -10 -20 -10 -45z"/>
<path d="M1143 2855 c0 -27 2 -38 4 -22 2 15 2 37 0 50 -2 12 -4 0 -4 -28z"/>
<path d="M1170 2856 c0 -55 17 -62 22 -8 4 52 31 50 39 -3 l7 -40 -2 45 c-1
43 -2 45 -33 48 -33 3 -33 3 -33 -42z"/>
<path d="M1363 2893 c-7 -2 -13 -20 -13 -38 0 -25 5 -35 20 -40 26 -8 50 11
50 39 0 36 -25 53 -57 39z m41 -26 c8 -12 7 -21 -6 -33 -20 -20 -38 -11 -38
20 0 39 23 46 44 13z"/>
<path d="M1492 2888 c-7 -7 -12 -21 -12 -33 0 -46 53 -62 71 -21 21 45 -26 87
-59 54z m46 -27 c5 -34 -16 -51 -33 -27 -10 14 -11 24 -4 38 13 24 33 18 37
-11z"/>
<path d="M1621 2835 c1 -33 4 -50 6 -38 3 14 9 20 19 16 20 -7 44 15 44 42 0
28 -19 45 -48 42 -20 -1 -22 -6 -21 -62z m53 32 c8 -12 7 -21 -6 -33 -20 -20
-38 -11 -38 20 0 39 23 46 44 13z"/>
<path d="M1708 2874 c-9 -18 -9 -30 -1 -42 13 -21 55 -22 61 -2 4 13 3 13 -11
2 -9 -8 -21 -11 -27 -7 -20 12 -10 25 20 25 33 0 35 3 20 31 -15 27 -48 24
-62 -7z m50 -2 c2 -7 -6 -12 -17 -12 -21 0 -27 11 -14 24 9 9 26 2 31 -12z"/>
<path d="M1800 2885 c-12 -14 -11 -18 1 -26 8 -5 20 -9 27 -9 6 0 12 -7 12
-15 0 -18 -27 -20 -33 -2 -2 6 -8 9 -12 5 -11 -10 4 -28 24 -28 18 0 41 18 41
32 0 5 -11 13 -25 18 -14 5 -25 14 -25 20 0 14 13 13 29 -2 11 -11 13 -10 9 2
-7 21 -32 24 -48 5z"/>
<path d="M1882 2888 c-7 -7 -12 -21 -12 -33 0 -46 53 -62 71 -21 21 45 -26 87
-59 54z m46 -27 c5 -34 -16 -51 -33 -27 -10 14 -11 24 -4 38 13 24 33 18 37
-11z"/>
<path d="M2107 2894 c-14 -14 -7 -26 8 -14 12 10 19 10 27 2 8 -8 6 -13 -8
-18 -52 -19 -53 -54 0 -52 31 1 32 2 26 42 -4 31 -10 42 -25 44 -12 2 -24 0
-28 -4z m41 -56 c-7 -19 -38 -22 -38 -4 0 10 9 16 21 16 12 0 19 -5 17 -12z"/>
<path d="M2231 2836 c1 -34 4 -51 6 -38 2 12 9 20 14 17 5 -4 18 -3 29 0 15 5
20 15 20 41 0 19 -3 35 -7 36 -5 0 -20 2 -35 3 -28 2 -28 2 -27 -59z m53 6
c-13 -20 -25 -20 -38 1 -7 10 -5 21 4 32 12 15 15 15 29 0 12 -12 13 -19 5
-33z"/>
<path d="M2332 2888 c-20 -20 -15 -66 8 -73 20 -6 56 12 45 23 -2 3 -11 -1
-19 -7 -8 -7 -20 -10 -26 -6 -20 12 -10 25 20 25 18 0 30 5 30 13 0 16 -20 37
-35 37 -6 0 -16 -5 -23 -12z m29 -26 c-28 -4 -40 6 -21 18 9 6 20 4 29 -3 12
-10 11 -13 -8 -15z"/>
<path d="M2417 2893 c-15 -14 -6 -34 20 -44 20 -7 23 -13 15 -21 -9 -9 -15 -9
-24 0 -18 18 -33 15 -18 -3 17 -20 54 -15 58 7 2 12 -6 21 -23 28 -15 6 -23
15 -20 21 4 6 13 8 21 5 8 -3 14 -1 14 4 0 11 -33 14 -43 3z"/>
<path d="M2497 2893 c-15 -14 -6 -34 20 -44 20 -7 23 -13 15 -21 -9 -9 -15 -9
-24 0 -18 18 -33 15 -18 -3 17 -20 54 -15 58 7 2 12 -6 21 -23 28 -15 6 -23
15 -20 21 4 6 13 8 21 5 8 -3 14 -1 14 4 0 11 -33 14 -43 3z"/>
<path d="M2569 2879 c-8 -16 -8 -28 0 -45 18 -41 71 -25 71 21 0 44 -50 61
-71 24z m46 -25 c0 -19 -5 -29 -15 -29 -16 0 -25 28 -16 51 10 25 31 10 31
-22z"/>
<path d="M2667 2894 c-14 -14 -7 -26 8 -14 12 10 19 10 27 2 8 -8 6 -13 -8
-18 -52 -19 -53 -54 0 -52 31 1 32 2 26 42 -4 31 -10 42 -25 44 -12 2 -24 0
-28 -4z m41 -56 c-7 -19 -38 -22 -38 -4 0 10 9 16 21 16 12 0 19 -5 17 -12z"/>
<path d="M2802 2888 c-20 -20 -15 -66 8 -73 20 -6 56 12 45 23 -2 3 -11 -1
-19 -7 -8 -7 -20 -10 -26 -6 -20 12 -10 25 20 25 18 0 30 5 30 13 0 16 -20 37
-35 37 -6 0 -16 -5 -23 -12z m29 -26 c-28 -4 -40 6 -21 18 9 6 20 4 29 -3 12
-10 11 -13 -8 -15z"/>
<path d="M2881 2851 c2 -34 3 -38 6 -16 10 64 42 69 44 7 1 -20 3 -28 6 -17 2
11 6 30 9 43 7 35 28 21 35 -24 l7 -39 -2 45 -1 45 -52 1 -53 1 1 -46z"/>
<path d="M3058 2874 c-15 -32 0 -59 31 -58 14 0 21 -5 21 -18 0 -10 5 -18 10
-18 6 0 10 27 10 60 l0 60 -30 0 c-23 0 -33 -6 -42 -26z m47 -20 c0 -19 -5
-29 -15 -29 -16 0 -25 28 -16 51 10 25 31 10 31 -22z"/>
<path d="M3154 2860 c1 -42 3 -45 29 -46 26 -1 27 1 26 45 l-2 46 -6 -40 c-4
-26 -11 -40 -21 -40 -10 0 -17 14 -21 40 l-7 40 2 -45z"/>
<path d="M3243 2855 c0 -27 2 -38 4 -22 2 15 2 37 0 50 -2 12 -4 0 -4 -28z"/>
<path d="M3312 2888 c-7 -7 -12 -21 -12 -33 0 -46 53 -62 71 -21 21 45 -26 87
-59 54z m46 -27 c5 -34 -16 -51 -33 -27 -10 14 -11 24 -4 38 13 24 33 18 37
-11z"/>
<path d="M3402 2888 c-28 -28 -1 -88 34 -74 10 4 14 2 11 -6 -2 -7 -14 -13
-26 -12 -11 0 -21 -3 -21 -8 0 -5 12 -8 28 -6 25 3 27 6 30 58 3 52 1 56 -21
58 -13 1 -29 -4 -35 -10z m48 -32 c0 -6 -5 -18 -10 -26 -9 -13 -12 -13 -25 4
-19 25 -2 64 21 45 8 -6 14 -17 14 -23z"/>
<path d="M3480 2854 c0 -24 5 -44 10 -44 6 0 10 15 10 33 0 18 4 37 10 43 6 6
3 10 -10 11 -17 2 -20 -4 -20 -43z"/>
<path d="M3547 2894 c-14 -14 -7 -26 8 -14 12 10 19 10 27 2 8 -8 6 -13 -8
-18 -52 -19 -53 -54 0 -52 31 1 32 2 26 42 -4 31 -10 42 -25 44 -12 2 -24 0
-28 -4z m41 -56 c-7 -19 -38 -22 -38 -4 0 10 9 16 21 16 12 0 19 -5 17 -12z"/>
<path d="M3631 2851 l2 -46 6 39 c8 55 31 60 31 7 0 -51 18 -54 22 -4 4 52 28
56 28 4 0 -23 5 -41 11 -41 6 0 9 17 7 43 l-3 42 -52 1 -53 1 1 -46z"/>
<path d="M3767 2894 c-14 -14 -7 -26 8 -14 12 10 19 10 27 2 8 -8 6 -13 -8
-18 -52 -19 -53 -54 0 -52 31 1 32 2 26 42 -4 31 -10 42 -25 44 -12 2 -24 0
-28 -4z m41 -56 c-7 -19 -38 -22 -38 -4 0 10 9 16 21 16 12 0 19 -5 17 -12z"/>
<path d="M3857 2893 c-15 -14 -6 -34 20 -44 20 -7 23 -13 15 -21 -9 -9 -15 -9
-24 0 -18 18 -33 15 -18 -3 17 -20 54 -15 58 7 2 12 -6 21 -23 28 -15 6 -23
15 -20 21 4 6 13 8 21 5 8 -3 14 -1 14 4 0 11 -33 14 -43 3z"/>
<path d="M4112 2888 c-28 -28 -1 -88 32 -75 10 4 13 1 9 -9 -4 -11 -13 -14
-30 -9 -16 4 -22 2 -18 -5 8 -14 38 -13 53 2 7 7 12 33 12 58 0 41 -3 46 -23
48 -13 1 -29 -4 -35 -10z m37 -49 c-5 -11 -14 -19 -19 -19 -16 0 -22 40 -9 56
12 14 14 14 26 -1 8 -13 9 -23 2 -36z"/>
<path d="M4291 2835 c1 -33 4 -50 6 -38 3 14 9 20 19 16 20 -7 44 15 44 42 0
28 -19 45 -48 42 -20 -1 -22 -6 -21 -62z m53 32 c8 -12 7 -21 -6 -33 -20 -20
-38 -11 -38 20 0 39 23 46 44 13z"/>
<path d="M4380 2874 c-19 -48 28 -87 60 -49 14 17 0 21 -17 4 -6 -6 -16 -8
-22 -5 -21 13 -11 26 19 26 31 0 39 17 18 38 -20 20 -48 14 -58 -14z m48 -2
c2 -7 -6 -12 -17 -12 -21 0 -27 11 -14 24 9 9 26 2 31 -12z"/>
<path d="M4517 2894 c-4 -4 -7 -12 -7 -18 0 -6 5 -5 12 2 16 16 28 15 28 -2 0
-8 -10 -16 -22 -18 -15 -2 -23 -10 -23 -23 0 -16 7 -20 35 -21 l36 -1 -6 41
c-4 31 -10 42 -25 44 -12 2 -24 0 -28 -4z m33 -53 c0 -14 -18 -23 -30 -16 -6
4 -8 11 -5 16 8 12 35 12 35 0z"/>
<path d="M4647 2894 c-14 -14 -7 -26 8 -14 12 10 19 10 27 2 8 -8 7 -13 -5
-17 -9 -3 -24 -7 -33 -10 -8 -3 -14 -13 -12 -22 2 -13 14 -18 39 -19 l35 -2
-5 42 c-5 31 -11 42 -26 44 -12 2 -24 0 -28 -4z m41 -56 c-7 -19 -38 -22 -38
-4 0 10 9 16 21 16 12 0 19 -5 17 -12z"/>
<path d="M4802 2858 c3 -41 5 -43 36 -44 32 -1 32 -1 31 45 -2 34 -3 38 -6 16
-10 -63 -43 -74 -43 -15 0 22 -5 40 -11 40 -6 0 -9 -17 -7 -42z"/>
<path d="M4890 2854 c0 -24 5 -44 10 -44 6 0 10 15 10 33 0 18 4 37 10 43 6 6
3 10 -10 11 -17 2 -20 -4 -20 -43z"/>
<path d="M4957 2894 c-14 -14 -7 -26 8 -14 12 10 19 10 27 2 8 -8 7 -13 -5
-17 -9 -3 -24 -7 -33 -10 -8 -3 -14 -13 -12 -22 2 -13 14 -18 39 -19 l35 -2
-5 42 c-5 31 -11 42 -26 44 -12 2 -24 0 -28 -4z m41 -56 c-7 -19 -38 -22 -38
-4 0 10 9 16 21 16 12 0 19 -5 17 -12z"/>
<path d="M5092 2888 c-20 -20 -15 -66 8 -73 20 -6 56 12 45 23 -2 3 -11 -1
-19 -7 -8 -7 -20 -10 -26 -6 -20 12 -10 25 20 25 18 0 30 5 30 13 0 16 -20 37
-35 37 -6 0 -16 -5 -23 -12z m29 -26 c-28 -4 -40 6 -21 18 9 6 20 4 29 -3 12
-10 11 -13 -8 -15z"/>
<path d="M5171 2851 l2 -46 6 40 c4 26 11 40 21 40 10 0 17 -14 21 -40 l6 -40
2 37 c1 35 15 57 28 44 3 -3 10 -23 14 -43 l7 -38 -1 45 -2 45 -52 1 -53 1 1
-46z"/>
<path d="M5351 2851 l2 -46 6 39 c8 55 31 60 31 7 0 -51 18 -54 22 -4 4 52 28
56 28 4 0 -23 5 -41 11 -41 6 0 9 17 7 43 l-3 42 -52 1 -53 1 1 -46z"/>
<path d="M5480 2874 c-19 -48 28 -87 60 -49 14 17 0 21 -17 4 -6 -6 -16 -8
-22 -5 -21 13 -11 26 19 26 31 0 39 17 18 38 -20 20 -48 14 -58 -14z m48 -2
c2 -7 -6 -12 -17 -12 -21 0 -27 11 -14 24 9 9 26 2 31 -12z"/>
<path d="M5610 2854 c0 -24 5 -44 10 -44 6 0 10 15 10 33 0 18 4 37 10 43 6 6
3 10 -10 11 -17 2 -20 -4 -20 -43z"/>
<path d="M5672 2888 c-7 -7 -12 -21 -12 -33 0 -46 53 -62 71 -21 21 45 -26 87
-59 54z m46 -27 c5 -34 -16 -51 -33 -27 -10 14 -11 24 -4 38 13 24 33 18 37
-11z"/>
<path d="M5760 2885 c-12 -14 -11 -18 1 -26 8 -5 20 -9 27 -9 6 0 12 -7 12
-15 0 -18 -27 -20 -33 -2 -2 6 -8 9 -12 5 -11 -10 4 -28 24 -28 18 0 41 18 41
32 0 5 -11 13 -25 18 -14 5 -25 14 -25 20 0 14 13 13 29 -2 11 -11 13 -10 9 2
-7 21 -32 24 -48 5z"/>
<path d="M5930 2855 c0 -54 17 -60 22 -8 4 52 28 56 28 4 0 -50 18 -55 22 -6
4 47 21 45 29 -2 l6 -38 2 46 1 47 -55 1 -55 0 0 -44z"/>
<path d="M6172 2888 c-16 -16 -15 -53 3 -68 18 -15 47 -10 53 10 5 13 3 13
-12 1 -15 -12 -19 -12 -34 2 -15 16 -14 17 17 17 28 0 32 3 29 23 -3 25 -36
35 -56 15z m46 -16 c2 -7 -7 -12 -23 -12 -24 0 -26 2 -15 15 14 17 31 16 38
-3z"/>
<path d="M6290 2874 c-19 -48 28 -87 60 -49 14 17 0 21 -17 4 -6 -6 -16 -8
-22 -5 -21 13 -11 26 19 26 31 0 39 17 18 38 -20 20 -48 14 -58 -14z m48 -2
c2 -7 -6 -12 -17 -12 -21 0 -27 11 -14 24 9 9 26 2 31 -12z"/>
<path d="M6370 2894 c0 -20 24 -84 32 -84 8 0 18 20 33 70 11 36 -8 15 -21
-23 l-11 -32 -7 32 c-7 29 -26 56 -26 37z"/>
<path d="M6467 2894 c-14 -14 -7 -26 8 -14 12 10 19 10 27 2 8 -8 7 -13 -5
-17 -9 -3 -24 -7 -33 -10 -8 -3 -14 -13 -12 -22 2 -13 14 -18 39 -19 l35 -2
-5 42 c-5 31 -11 42 -26 44 -12 2 -24 0 -28 -4z m41 -56 c-7 -19 -38 -22 -38
-4 0 10 9 16 21 16 12 0 19 -5 17 -12z"/>
<path d="M6647 2894 c-4 -4 -7 -12 -7 -18 0 -6 5 -5 12 2 16 16 28 15 28 -2 0
-8 -10 -16 -22 -18 -15 -2 -23 -10 -23 -23 0 -16 7 -20 35 -21 l36 -1 -6 41
c-4 31 -10 42 -25 44 -12 2 -24 0 -28 -4z m33 -53 c0 -14 -18 -23 -30 -16 -6
4 -8 11 -5 16 8 12 35 12 35 0z"/>
<path d="M6777 2894 c-14 -14 -7 -26 8 -14 12 10 19 10 27 2 8 -8 6 -13 -8
-18 -52 -19 -53 -54 0 -52 31 1 32 2 26 42 -4 31 -10 42 -25 44 -12 2 -24 0
-28 -4z m41 -56 c-7 -19 -38 -22 -38 -4 0 10 9 16 21 16 12 0 19 -5 17 -12z"/>
<path d="M6862 2888 c-7 -7 -12 -21 -12 -33 0 -46 53 -62 71 -21 21 45 -26 87
-59 54z m46 -27 c5 -34 -16 -51 -33 -27 -10 14 -11 24 -4 38 13 24 33 18 37
-11z"/>
<path d="M6988 2874 c-15 -32 0 -59 31 -58 14 0 21 -5 21 -18 0 -10 5 -18 10
-18 6 0 10 27 10 60 l0 60 -30 0 c-23 0 -33 -6 -42 -26z m47 -20 c0 -19 -5
-29 -15 -29 -16 0 -25 28 -16 51 10 25 31 10 31 -22z"/>
<path d="M7084 2860 c1 -41 3 -45 29 -48 26 -3 27 -2 26 45 l-2 48 -6 -40 c-4
-26 -11 -40 -21 -40 -10 0 -17 14 -21 40 l-7 40 2 -45z"/>
<path d="M7177 2894 c-14 -14 -7 -26 8 -14 12 10 19 10 27 2 8 -8 6 -13 -8
-18 -52 -19 -53 -54 0 -52 31 1 32 2 26 42 -4 31 -10 42 -25 44 -12 2 -24 0
-28 -4z m41 -56 c-7 -19 -38 -22 -38 -4 0 10 9 16 21 16 12 0 19 -5 17 -12z"/>
<path d="M7352 2850 c1 -40 2 -41 5 -10 2 19 11 40 20 47 13 10 13 12 -6 10
-18 -1 -21 -7 -19 -47z"/>
<path d="M7407 2894 c-14 -14 -7 -26 8 -14 12 10 19 10 27 2 8 -8 6 -13 -8
-18 -52 -19 -53 -54 0 -52 31 1 32 2 26 42 -4 31 -10 42 -25 44 -12 2 -24 0
-28 -4z m41 -56 c-7 -19 -38 -22 -38 -4 0 10 9 16 21 16 12 0 19 -5 17 -12z"/>
<path d="M7582 2888 c-7 -7 -12 -21 -12 -33 0 -46 53 -62 71 -21 21 45 -26 87
-59 54z m46 -27 c5 -34 -16 -51 -33 -27 -10 14 -11 24 -4 38 13 24 33 18 37
-11z"/>
<path d="M8241 2835 c1 -33 4 -50 6 -38 3 14 9 20 19 16 20 -7 44 15 44 42 0
28 -19 45 -48 42 -20 -1 -22 -6 -21 -62z m53 32 c8 -12 7 -21 -6 -33 -20 -20
-38 -11 -38 20 0 39 23 46 44 13z"/>
<path d="M8328 2874 c-9 -18 -9 -30 -1 -42 13 -21 55 -22 61 -2 4 13 3 13 -11
2 -9 -8 -21 -11 -27 -7 -20 12 -10 25 20 25 33 0 35 3 20 31 -15 27 -48 24
-62 -7z m50 -2 c2 -7 -6 -12 -17 -12 -21 0 -27 11 -14 24 9 9 26 2 31 -12z"/>
<path d="M8420 2885 c-12 -14 -11 -18 1 -26 8 -5 20 -9 27 -9 6 0 12 -7 12
-15 0 -18 -27 -20 -33 -2 -2 6 -8 9 -12 5 -11 -10 4 -28 24 -28 18 0 41 18 41
32 0 5 -11 13 -25 18 -14 5 -25 14 -25 20 0 14 13 13 29 -2 11 -11 13 -10 9 2
-7 21 -32 24 -48 5z"/>
<path d="M8502 2888 c-7 -7 -12 -21 -12 -33 0 -46 53 -62 71 -21 21 45 -26 87
-59 54z m46 -27 c5 -34 -16 -51 -33 -27 -10 14 -11 24 -4 38 13 24 33 18 37
-11z"/>
<path d="M8631 2859 c-7 -22 -11 -43 -8 -45 2 -2 9 14 16 37 7 22 11 43 8 45
-2 2 -9 -14 -16 -37z"/>
<path d="M8727 2894 c-14 -14 -7 -26 8 -14 12 10 19 10 27 2 8 -8 6 -13 -8
-18 -52 -19 -53 -54 0 -52 31 1 32 2 26 42 -4 31 -10 42 -25 44 -12 2 -24 0
-28 -4z m41 -56 c-7 -19 -38 -22 -38 -4 0 10 9 16 21 16 12 0 19 -5 17 -12z"/>
<path d="M8894 2860 c1 -42 3 -45 29 -46 26 -1 27 1 26 45 l-2 46 -6 -40 c-4
-26 -11 -40 -21 -40 -10 0 -17 14 -21 40 l-7 40 2 -45z"/>
<path d="M8982 2850 c1 -40 2 -41 5 -10 2 19 11 40 20 47 13 10 13 12 -6 10
-18 -1 -21 -7 -19 -47z"/>
<path d="M9037 2894 c-14 -14 -7 -26 8 -14 12 10 19 10 27 2 8 -8 6 -13 -8
-18 -52 -19 -53 -54 0 -52 31 1 32 2 26 42 -4 31 -10 42 -25 44 -12 2 -24 0
-28 -4z m41 -56 c-7 -19 -38 -22 -38 -4 0 10 9 16 21 16 12 0 19 -5 17 -12z"/>
<path d="M8118 2863 c12 -2 32 -2 45 0 12 2 2 4 -23 4 -25 0 -35 -2 -22 -4z"/>
<path d="M8118 2833 c12 -2 32 -2 45 0 12 2 2 4 -23 4 -25 0 -35 -2 -22 -4z"/>
<path d="M4697 2563 c-4 -3 -7 -69 -7 -145 l0 -138 -369 0 c-236 0 -372 -4
-376 -10 -4 -7 125 -10 379 -10 l386 0 0 155 c0 85 -1 155 -3 155 -2 0 -7 -3
-10 -7z"/>
<path d="M100 2390 l0 -110 910 0 910 0 0 110 0 110 -910 0 -910 0 0 -110z
m1810 0 l0 -100 -900 0 -900 0 0 100 0 100 900 0 900 0 0 -100z"/>
<path d="M2020 2390 l0 -110 910 0 910 0 0 110 0 110 -910 0 -910 0 0 -110z
m1810 0 l0 -100 -900 0 -900 0 0 100 0 100 900 0 900 0 0 -100z"/>
<path d="M4026 2464 c-36 -35 -10 -104 39 -104 13 0 27 5 31 12 5 7 1 9 -13 6
-31 -8 -53 10 -53 42 0 32 22 50 53 42 14 -3 18 -1 13 6 -10 17 -52 15 -70 -4z"/>
<path d="M4220 2420 c0 -33 4 -60 10 -60 6 0 10 27 10 60 0 33 -4 60 -10 60
-6 0 -10 -27 -10 -60z"/>
<path d="M4463 2420 c0 -36 2 -50 4 -32 2 17 2 47 0 65 -2 17 -4 3 -4 -33z"/>
<path d="M4130 2441 c0 -6 7 -8 15 -5 8 3 20 2 27 -2 9 -6 4 -10 -17 -14 -24
-4 -30 -10 -30 -30 0 -21 5 -25 33 -26 33 -1 33 0 30 40 -3 36 -6 41 -30 44
-16 2 -28 -1 -28 -7z m50 -40 c0 -12 -29 -35 -36 -28 -11 10 5 37 21 37 8 0
15 -4 15 -9z"/>
<path d="M4272 2438 c-29 -29 -7 -78 35 -78 13 0 23 5 23 11 0 5 -4 8 -9 5
-17 -11 -41 6 -41 29 0 23 24 40 41 29 5 -3 9 0 9 5 0 15 -43 14 -58 -1z"/>
<path d="M4350 2416 c0 -39 14 -54 53 -54 25 0 27 3 27 44 0 54 -18 59 -22 7
-2 -26 -8 -38 -18 -38 -10 0 -16 12 -18 38 -4 46 -22 49 -22 3z"/>
<path d="M4504 2439 c-5 -9 -2 -10 10 -6 10 4 23 4 29 0 7 -4 2 -9 -13 -13
-18 -4 -25 -13 -25 -30 0 -21 5 -25 33 -26 33 -1 33 0 30 40 -3 36 -6 41 -30
44 -14 2 -30 -2 -34 -9z m46 -43 c0 -8 -5 -18 -11 -22 -14 -8 -33 11 -25 25
10 16 36 13 36 -3z"/>
<path d="M4600 2405 c0 -25 5 -45 10 -45 6 0 10 16 10 35 0 22 6 38 18 44 14
9 13 10 -10 11 -26 0 -28 -3 -28 -45z"/>
<path d="M103 1980 c-12 -33 -18 -60 -13 -60 5 0 12 9 15 20 9 28 51 27 58 -2
4 -12 9 -19 12 -16 10 9 -27 118 -39 118 -6 0 -21 -27 -33 -60z m46 -2 c1 -5
-6 -8 -14 -8 -16 0 -19 9 -8 36 6 16 7 16 14 -2 4 -10 8 -22 8 -26z"/>
<path d="M190 1980 l0 -60 30 0 c23 0 33 6 42 26 15 32 0 59 -31 58 -14 0 -21
5 -21 18 0 10 -4 18 -10 18 -6 0 -10 -27 -10 -60z m55 -16 c0 -19 -5 -29 -15
-29 -16 0 -25 28 -16 51 10 25 31 10 31 -22z"/>
<path d="M680 2020 c0 -13 -5 -18 -15 -14 -21 8 -45 -14 -45 -41 0 -28 19 -45
48 -42 20 1 22 7 22 59 0 32 -2 58 -5 58 -3 0 -5 -9 -5 -20z m-6 -68 c-13 -20
-25 -20 -38 1 -7 10 -5 21 4 32 12 15 15 15 29 0 12 -12 13 -19 5 -33z"/>
<path d="M1293 1980 c0 -36 2 -50 4 -32 2 17 2 47 0 65 -2 17 -4 3 -4 -33z"/>
<path d="M1332 1978 l1 -63 6 50 6 50 14 -47 c7 -27 17 -48 21 -48 5 0 15 19
23 43 l15 42 1 -42 c1 -67 21 -50 21 17 0 78 -21 81 -42 8 l-14 -53 -18 53
c-10 28 -22 52 -27 52 -5 0 -8 -28 -7 -62z"/>
<path d="M1476 2024 c-9 -8 -16 -31 -16 -50 0 -27 5 -37 26 -46 30 -14 57 -2
63 28 3 16 1 16 -15 -4 -22 -26 -49 -22 -59 9 -15 46 24 82 56 53 21 -19 27
-6 7 14 -17 17 -44 15 -62 -4z"/>
<path d="M2446 2019 c-17 -16 -17 -19 -3 -19 11 0 17 -12 20 -42 3 -34 4 -30
5 20 1 34 1 62 0 61 -2 0 -12 -9 -22 -20z"/>
<path d="M2524 2027 c-3 -8 -4 -21 -3 -28 1 -8 -1 -22 -6 -32 -9 -21 10 -47
36 -47 21 0 43 35 32 52 -4 7 -7 24 -7 38 -1 18 -7 26 -24 28 -13 2 -24 -3
-28 -11z m42 -8 c10 -17 -13 -36 -27 -22 -12 12 -4 33 11 33 5 0 12 -5 16 -11z
m1 -55 c8 -21 -13 -42 -28 -27 -13 13 -5 43 11 43 6 0 13 -7 17 -16z"/>
<path d="M2650 2010 c0 -25 4 -29 22 -27 15 1 23 -4 26 -17 6 -28 -14 -42 -34
-25 -15 12 -17 12 -12 -1 7 -21 48 -19 62 3 14 22 -3 51 -33 55 -28 4 -22 24
10 33 21 6 21 7 -8 8 -30 1 -33 -2 -33 -29z"/>
<path d="M297 2004 c-14 -14 -7 -26 8 -14 12 10 19 10 27 2 8 -8 7 -13 -5 -17
-9 -3 -24 -7 -33 -10 -8 -3 -14 -13 -12 -22 2 -13 14 -18 39 -19 l35 -2 -5 42
c-5 31 -11 42 -26 44 -12 2 -24 0 -28 -4z m41 -56 c-7 -19 -38 -22 -38 -4 0
10 9 16 21 16 12 0 19 -5 17 -12z"/>
<path d="M370 1965 c0 -25 5 -45 10 -45 6 0 10 20 10 45 0 25 -4 45 -10 45 -5
0 -10 -20 -10 -45z"/>
<path d="M410 2005 c0 -6 6 -17 12 -23 10 -10 10 -17 0 -33 -8 -12 -11 -23 -8
-26 3 -3 8 2 12 11 6 16 8 16 25 0 21 -19 27 -6 7 14 -10 10 -10 17 0 33 16
25 10 36 -8 14 -11 -14 -14 -13 -26 2 -7 10 -14 13 -14 8z"/>
<path d="M503 2003 c-7 -2 -13 -20 -13 -38 0 -25 5 -35 20 -40 26 -8 50 11 50
39 0 36 -25 53 -57 39z m41 -26 c8 -12 7 -21 -6 -33 -20 -20 -38 -11 -38 20 0
39 23 46 44 13z"/>
<path d="M723 2003 c-7 -2 -13 -20 -13 -38 0 -25 5 -35 20 -40 26 -8 50 11 50
39 0 36 -25 53 -57 39z m41 -26 c8 -12 7 -21 -6 -33 -20 -20 -38 -11 -38 20 0
39 23 46 44 13z"/>
<path d="M840 1950 c0 -33 4 -60 10 -60 6 0 10 8 10 18 0 13 7 18 21 18 31 -1
46 26 31 58 -9 20 -19 26 -42 26 l-30 0 0 -60z m55 14 c0 -19 -5 -29 -15 -29
-16 0 -25 28 -16 51 10 25 31 10 31 -22z"/>
<path d="M942 1998 c-16 -16 -15 -53 3 -68 18 -15 47 -10 53 10 5 13 3 13 -12
1 -15 -12 -19 -12 -34 2 -15 16 -14 17 17 17 28 0 32 3 29 23 -3 25 -36 35
-56 15z m46 -16 c2 -7 -7 -12 -23 -12 -24 0 -26 2 -15 15 14 17 31 16 38 -3z"/>
<path d="M1027 2004 c-15 -15 -6 -35 20 -45 19 -7 23 -13 15 -21 -8 -8 -16 -7
-28 3 -15 12 -17 12 -12 -1 6 -20 35 -25 53 -10 18 15 11 28 -23 41 -19 7 -22
13 -14 21 8 8 16 7 28 -3 15 -12 17 -12 12 1 -5 16 -39 25 -51 14z"/>
<path d="M1112 1998 c-30 -30 -2 -86 38 -73 15 5 20 15 20 40 0 41 -32 59 -58
33z m43 -34 c0 -32 -21 -39 -38 -12 -8 12 -7 21 3 32 19 24 35 14 35 -20z"/>
<path d="M1621 1961 l2 -46 6 40 c4 26 11 40 21 40 10 0 17 -14 21 -40 l6 -40
2 37 c1 35 15 57 28 44 3 -3 10 -23 14 -43 l7 -38 -1 45 -2 45 -52 1 -53 1 1
-46z"/>
<path d="M1762 1998 c-20 -20 -15 -66 8 -73 20 -6 56 12 45 23 -2 3 -11 -1
-19 -7 -8 -7 -20 -10 -26 -6 -20 12 -10 25 20 25 18 0 30 5 30 13 0 16 -20 37
-35 37 -6 0 -16 -5 -23 -12z m29 -26 c-28 -4 -40 6 -21 18 9 6 20 4 29 -3 12
-10 11 -13 -8 -15z"/>
<path d="M1841 1961 c1 -42 2 -43 8 -15 16 65 41 74 41 14 0 -22 5 -40 11 -40
6 0 9 17 7 43 -3 40 -5 42 -35 43 -33 1 -33 1 -32 -45z"/>
<path d="M1929 1989 c-8 -16 -8 -28 0 -45 18 -41 71 -25 71 21 0 44 -50 61
-71 24z m46 -25 c0 -19 -5 -29 -15 -29 -16 0 -25 28 -16 51 10 25 31 10 31
-22z"/>
<path d="M2021 1960 c2 -34 3 -37 6 -15 3 17 12 38 20 47 14 15 13 17 -6 15
-18 -1 -21 -7 -20 -47z"/>
<path d="M2122 1998 c-28 -28 -1 -88 32 -75 10 4 16 -2 19 -16 2 -12 5 5 6 38
1 57 -1 61 -22 63 -13 1 -29 -4 -35 -10z m43 -34 c0 -32 -21 -39 -38 -12 -8
12 -7 21 3 32 19 24 35 14 35 -20z"/>
<path d="M2202 1968 c3 -41 5 -43 36 -44 32 -1 32 -1 31 45 -2 34 -3 38 -6 16
-10 -63 -43 -74 -43 -15 0 22 -5 40 -11 40 -6 0 -9 -17 -7 -42z"/>
<path d="M2302 1998 c-16 -16 -15 -53 3 -68 18 -15 47 -10 53 10 5 13 3 13
-12 1 -15 -12 -19 -12 -34 2 -15 16 -14 17 17 17 28 0 32 3 29 23 -3 25 -36
35 -56 15z m46 -16 c2 -7 -7 -12 -23 -12 -24 0 -26 2 -15 15 14 17 31 16 38
-3z"/>
<path d="M90 1630 c0 -33 4 -60 10 -60 6 0 10 11 10 24 0 19 6 25 26 28 63 7
51 68 -12 68 l-34 0 0 -60z m65 25 c0 -13 -8 -21 -22 -23 -19 -3 -23 1 -23 23
0 22 4 26 23 23 14 -2 22 -10 22 -23z"/>
<path d="M953 1630 c0 -36 2 -50 4 -32 2 17 2 47 0 65 -2 17 -4 3 -4 -33z"/>
<path d="M1080 1630 c0 -33 4 -60 10 -60 6 0 10 27 10 60 0 33 -4 60 -10 60
-6 0 -10 -27 -10 -60z"/>
<path d="M1120 1631 c0 -65 19 -87 21 -23 l1 37 12 -34 c18 -50 31 -48 47 6
l14 48 6 -50 6 -50 1 63 c1 34 -2 62 -7 62 -5 0 -17 -24 -27 -52 l-17 -53 -17
49 c-24 72 -40 71 -40 -3z"/>
<path d="M1267 1672 c-10 -10 -17 -30 -17 -44 0 -49 68 -79 90 -39 16 31 12
37 -10 13 -12 -12 -24 -22 -28 -22 -30 0 -44 68 -18 89 14 12 46 5 46 -10 0
-5 5 -9 10 -9 7 0 7 6 0 20 -13 25 -52 26 -73 2z"/>
<path d="M1924 1682 c-19 -12 -16 -102 3 -109 28 -11 48 11 48 53 1 55 -19 77
-51 56z m33 -17 c7 -20 -2 -29 -21 -22 -9 4 -13 13 -10 22 8 19 23 19 31 0z
m9 -46 c10 -17 -23 -46 -37 -32 -7 7 -9 19 -6 27 7 18 33 21 43 5z"/>
<path d="M2050 1676 c0 -8 -3 -22 -6 -31 -5 -13 -1 -16 22 -13 24 2 30 -1 32
-20 4 -24 -29 -45 -36 -24 -4 14 -22 16 -22 3 0 -14 34 -23 54 -15 27 10 18
68 -11 72 -32 5 -29 30 5 35 25 4 25 4 -5 6 -23 1 -33 -4 -33 -13z"/>
<path d="M2323 1683 c-7 -2 -13 -12 -13 -20 0 -14 2 -14 19 1 16 14 20 15 30
2 10 -12 7 -20 -18 -42 -42 -38 -40 -54 7 -53 30 2 32 3 10 6 -35 5 -35 18 -3
39 49 32 21 89 -32 67z"/>
<path d="M2540 1675 c-20 -24 -8 -50 23 -50 29 1 35 -16 13 -34 -10 -8 -16 -9
-21 -1 -3 5 -11 10 -18 10 -6 0 -4 -8 6 -17 25 -25 51 -6 55 41 5 56 -29 86
-58 51z m50 -21 c0 -19 -28 -30 -42 -16 -8 8 -8 15 1 26 14 17 41 10 41 -10z"/>
<path d="M1588 1669 c-7 -20 6 -92 17 -96 8 -2 11 41 6 100 -1 11 -19 8 -23
-4z"/>
<path d="M1840 1665 c-9 -10 -9 -15 -1 -15 6 0 11 -17 11 -40 0 -22 5 -40 10
-40 6 0 10 25 10 55 0 56 -8 67 -30 40z"/>
<path d="M2418 1648 c-34 -45 -34 -48 -3 -48 17 0 25 -6 25 -17 0 -15 2 -14
14 3 8 10 11 21 6 24 -5 3 -10 21 -12 39 l-3 35 -27 -36z m22 -18 c0 -11 -7
-20 -15 -20 -18 0 -19 12 -3 28 16 16 18 15 18 -8z"/>
<path d="M198 1634 c-9 -18 -9 -30 -1 -42 13 -21 55 -22 61 -2 4 13 3 13 -11
2 -9 -8 -21 -11 -27 -7 -20 12 -10 25 20 25 33 0 35 3 20 31 -15 27 -48 24
-62 -7z m50 -2 c2 -7 -6 -12 -17 -12 -21 0 -27 11 -14 24 9 9 26 2 31 -12z"/>
<path d="M290 1645 c-12 -14 -11 -18 1 -26 8 -5 20 -9 27 -9 6 0 12 -7 12 -15
0 -18 -27 -20 -33 -2 -2 6 -8 9 -12 5 -11 -10 4 -28 24 -28 18 0 41 18 41 32
0 5 -11 13 -25 18 -14 5 -25 14 -25 20 0 14 13 13 29 -2 11 -11 13 -10 9 2 -7
21 -32 24 -48 5z"/>
<path d="M372 1648 c-7 -7 -12 -21 -12 -33 0 -46 53 -62 71 -21 21 45 -26 87
-59 54z m46 -27 c5 -34 -16 -51 -33 -27 -10 14 -11 24 -4 38 13 24 33 18 37
-11z"/>
<path d="M501 1610 l1 -45 8 38 c4 20 10 40 13 43 13 13 27 -9 27 -42 0 -19 5
-34 10 -34 12 0 13 60 2 78 -5 6 -20 11 -35 10 -25 -2 -27 -5 -26 -48z"/>
<path d="M589 1639 c-8 -16 -8 -28 0 -45 18 -41 71 -25 71 21 0 44 -50 61 -71
24z m46 -25 c0 -19 -5 -29 -15 -29 -16 0 -25 28 -16 51 10 25 31 10 31 -22z"/>
<path d="M682 1610 c1 -40 2 -41 5 -10 2 19 11 40 20 47 13 10 13 12 -6 10
-18 -1 -21 -7 -19 -47z"/>
<path d="M731 1611 l2 -46 6 40 c4 26 11 40 21 40 10 0 17 -14 21 -40 l6 -40
2 37 c1 35 15 57 28 44 3 -3 10 -23 14 -43 l7 -38 -1 45 -2 45 -52 1 -53 1 1
-46z"/>
<path d="M877 1654 c-4 -4 -7 -12 -7 -18 0 -6 5 -5 12 2 16 16 28 15 28 -2 0
-8 -10 -16 -22 -18 -15 -2 -23 -10 -23 -23 0 -16 7 -20 35 -21 l36 -1 -6 41
c-4 31 -10 42 -25 44 -12 2 -24 0 -28 -4z m33 -53 c0 -14 -18 -23 -30 -16 -6
4 -8 11 -5 16 8 12 35 12 35 0z"/>
<path d="M990 1650 c0 -5 5 -10 10 -10 6 0 10 5 10 10 0 6 -4 10 -10 10 -5 0
-10 -4 -10 -10z"/>
<path d="M1422 1648 c-16 -16 -15 -53 3 -68 18 -15 47 -10 53 10 5 13 3 13
-12 1 -15 -12 -19 -12 -34 2 -15 16 -14 17 17 17 28 0 32 3 29 23 -3 25 -36
35 -56 15z m46 -16 c2 -7 -7 -12 -23 -12 -24 0 -26 2 -15 15 14 17 31 16 38
-3z"/>
<path d="M1501 1611 c1 -42 2 -43 8 -15 16 65 41 74 41 14 0 -22 5 -40 11 -40
6 0 9 17 7 43 -3 40 -5 42 -35 43 -33 1 -33 1 -32 -45z"/>
<path d="M1642 1610 c1 -40 2 -41 5 -10 2 19 11 40 20 47 13 10 13 12 -6 10
-18 -1 -21 -7 -19 -47z"/>
<path d="M1690 1634 c-19 -48 28 -87 60 -49 14 17 0 21 -17 4 -6 -6 -16 -8
-22 -5 -21 13 -11 26 19 26 31 0 39 17 18 38 -20 20 -48 14 -58 -14z m48 -2
c2 -7 -6 -12 -17 -12 -21 0 -27 11 -14 24 9 9 26 2 31 -12z"/>
<path d="M2180 1634 c-19 -48 28 -87 60 -49 14 17 0 21 -17 4 -6 -6 -16 -8
-22 -5 -21 13 -11 26 19 26 31 0 39 17 18 38 -20 20 -48 14 -58 -14z m48 -2
c2 -7 -6 -12 -17 -12 -21 0 -27 11 -14 24 9 9 26 2 31 -12z"/>
<path d="M995 1580 c-3 -5 -1 -10 4 -10 6 0 11 5 11 10 0 6 -2 10 -4 10 -3 0
-8 -4 -11 -10z"/>
<path d="M2000 1583 c0 -5 5 -15 10 -23 8 -12 10 -11 10 8 0 12 -4 22 -10 22
-5 0 -10 -3 -10 -7z"/>
<path d="M2490 1583 c0 -5 5 -15 10 -23 8 -12 10 -11 10 8 0 12 -4 22 -10 22
-5 0 -10 -3 -10 -7z"/>
<path d="M101 1326 c-19 -22 -7 -43 28 -51 17 -4 31 -13 31 -21 0 -23 -29 -28
-50 -9 -21 19 -28 7 -8 -13 25 -25 78 -8 78 26 0 7 -16 20 -35 28 -38 15 -45
31 -19 41 11 4 22 -1 31 -13 14 -19 15 -19 11 1 -4 25 -50 32 -67 11z"/>
<path d="M280 1280 l0 -60 30 0 c23 0 33 6 42 26 15 32 0 59 -31 58 -14 0 -21
5 -21 18 0 10 -4 18 -10 18 -6 0 -10 -27 -10 -60z m55 -16 c0 -19 -5 -29 -15
-29 -16 0 -25 28 -16 51 10 25 31 10 31 -22z"/>
<path d="M963 1280 c0 -36 2 -50 4 -32 2 17 2 47 0 65 -2 17 -4 3 -4 -33z"/>
<path d="M1002 1278 l1 -63 6 50 6 50 14 -47 c7 -27 17 -48 21 -48 5 0 15 19
23 43 l15 42 1 -42 c1 -67 21 -50 21 17 0 78 -21 81 -42 8 l-14 -53 -18 53
c-10 28 -22 52 -27 52 -5 0 -8 -28 -7 -62z"/>
<path d="M1146 1324 c-9 -8 -16 -31 -16 -50 0 -27 5 -37 26 -46 30 -14 57 -2
63 28 3 16 1 16 -15 -4 -22 -26 -49 -22 -59 9 -15 46 24 82 56 53 21 -19 27
-6 7 14 -17 17 -44 15 -62 -4z"/>
<path d="M1707 1334 c-4 -4 -7 -14 -7 -23 0 -12 3 -11 13 4 14 19 37 13 37 -9
0 -7 -13 -25 -30 -39 -41 -37 -38 -47 13 -45 36 1 38 2 10 5 -18 2 -33 7 -33
10 0 4 15 19 33 34 27 23 30 31 21 46 -12 19 -45 29 -57 17z"/>
<path d="M1790 1310 c0 -25 4 -29 22 -27 15 1 23 -4 26 -17 5 -25 -14 -44 -30
-28 -17 17 -33 15 -18 -3 30 -36 83 3 60 45 -6 11 -20 20 -31 20 -28 0 -19 23
12 31 21 6 21 7 -8 8 -30 1 -33 -2 -33 -29z"/>
<path d="M2060 1325 c-7 -8 -10 -18 -6 -22 3 -4 12 2 20 12 14 19 36 13 36
-10 0 -7 -13 -23 -30 -35 -42 -30 -39 -50 8 -49 30 2 32 3 10 6 -35 5 -35 18
-2 39 18 12 24 24 22 43 -4 31 -38 40 -58 16z"/>
<path d="M2152 1331 c-24 -15 -10 -55 21 -61 26 -5 27 -6 13 -25 -13 -17 -17
-18 -25 -5 -11 16 -27 7 -16 -9 10 -18 43 -12 55 8 30 57 -4 121 -48 92z m35
-12 c14 -14 6 -39 -12 -39 -18 0 -28 17 -21 35 6 18 18 19 33 4z"/>
<path d="M2281 1326 c-19 -23 -4 -56 25 -56 27 0 31 -12 11 -29 -10 -8 -17 -7
-26 2 -11 10 -13 9 -9 -3 8 -25 42 -17 56 13 26 54 -22 115 -57 73z m44 -22
c0 -10 -8 -20 -17 -22 -18 -3 -26 27 -11 42 12 11 28 0 28 -20z"/>
<path d="M1468 1320 c-2 -6 -2 -31 0 -55 3 -34 8 -45 21 -44 10 0 11 2 4 6
-15 5 -18 70 -4 75 5 2 3 8 -4 15 -8 8 -15 8 -17 3z"/>
<path d="M202 1298 c-7 -7 -12 -21 -12 -33 0 -46 53 -62 71 -21 21 45 -26 87
-59 54z m46 -27 c5 -34 -16 -51 -33 -27 -10 14 -11 24 -4 38 13 24 33 18 37
-11z"/>
<path d="M370 1264 c0 -24 5 -44 10 -44 6 0 10 15 10 33 0 18 4 37 10 43 6 6
3 10 -10 11 -17 2 -20 -4 -20 -43z"/>
<path d="M430 1284 c-19 -48 28 -87 60 -49 14 17 0 21 -17 4 -6 -6 -16 -8 -22
-5 -21 13 -11 26 19 26 31 0 39 17 18 38 -20 20 -48 14 -58 -14z m48 -2 c2 -7
-6 -12 -17 -12 -21 0 -27 11 -14 24 9 9 26 2 31 -12z"/>
<path d="M510 1250 c0 -33 4 -60 10 -60 6 0 10 8 10 18 0 13 7 18 21 18 31 -1
46 26 31 58 -9 20 -19 26 -42 26 l-30 0 0 -60z m55 14 c0 -19 -5 -29 -15 -29
-16 0 -25 28 -16 51 10 25 31 10 31 -22z"/>
<path d="M608 1284 c-9 -18 -9 -30 -1 -42 13 -21 55 -22 61 -2 4 13 3 13 -11
2 -9 -8 -21 -11 -27 -7 -20 12 -10 25 20 25 33 0 35 3 20 31 -15 27 -48 24
-62 -7z m50 -2 c2 -7 -6 -12 -17 -12 -21 0 -27 11 -14 24 9 9 26 2 31 -12z"/>
<path d="M697 1304 c-15 -15 -6 -35 20 -45 19 -7 23 -13 15 -21 -8 -8 -16 -7
-28 3 -15 12 -17 12 -12 -1 6 -20 35 -25 53 -10 18 15 11 28 -23 41 -19 7 -22
13 -14 21 8 8 16 7 28 -3 15 -12 17 -12 12 1 -5 16 -39 25 -51 14z"/>
<path d="M782 1298 c-30 -30 -2 -86 38 -73 15 5 20 15 20 40 0 41 -32 59 -58
33z m43 -34 c0 -32 -21 -39 -38 -12 -8 12 -7 21 3 32 19 24 35 14 35 -20z"/>
<path d="M870 1299 c0 -5 5 -7 10 -4 6 3 10 8 10 11 0 2 -4 4 -10 4 -5 0 -10
-5 -10 -11z"/>
<path d="M1290 1284 c-19 -48 28 -87 60 -49 14 17 0 21 -17 4 -6 -6 -16 -8
-22 -5 -21 13 -11 26 19 26 31 0 39 17 18 38 -20 20 -48 14 -58 -14z m48 -2
c2 -7 -6 -12 -17 -12 -21 0 -27 11 -14 24 9 9 26 2 31 -12z"/>
<path d="M1381 1260 l1 -45 8 38 c4 20 10 40 13 43 13 13 27 -9 27 -42 0 -19
5 -34 10 -34 12 0 13 60 2 78 -5 6 -20 11 -35 10 -25 -2 -27 -5 -26 -48z"/>
<path d="M1511 1260 c1 -43 1 -44 9 -13 4 18 13 39 19 47 10 12 9 15 -8 13
-18 -1 -21 -8 -20 -47z"/>
<path d="M1572 1298 c-16 -16 -15 -53 3 -68 18 -15 47 -10 53 10 5 13 3 13
-12 1 -15 -12 -19 -12 -34 2 -15 16 -14 17 17 17 28 0 32 3 29 23 -3 25 -36
35 -56 15z m46 -16 c2 -7 -7 -12 -23 -12 -24 0 -26 2 -15 15 14 17 31 16 38
-3z"/>
<path d="M1932 1298 c-20 -20 -15 -66 8 -73 20 -6 56 12 45 23 -2 3 -11 -1
-19 -7 -8 -7 -20 -10 -26 -6 -20 12 -10 25 20 25 18 0 30 5 30 13 0 16 -20 37
-35 37 -6 0 -16 -5 -23 -12z m29 -26 c-28 -4 -40 6 -21 18 9 6 20 4 29 -3 12
-10 11 -13 -8 -15z"/>
<path d="M870 1230 c0 -5 5 -10 11 -10 5 0 7 5 4 10 -3 6 -8 10 -11 10 -2 0
-4 -4 -4 -10z"/>
<path d="M2236 1232 c-2 -4 -1 -14 5 -22 7 -12 9 -10 9 8 0 23 -5 28 -14 14z"/>
<path d="M106 975 c-21 -21 -21 -69 0 -90 24 -24 66 -15 84 18 13 24 13 30 0
55 -18 32 -60 41 -84 17z m55 -5 c26 -14 26 -66 0 -80 -25 -13 -27 -13 -45 6
-20 20 -20 48 0 68 18 19 20 19 45 6z"/>
<path d="M211 934 l-1 -61 31 1 c37 1 52 27 38 65 -7 18 -15 22 -34 19 -18 -4
-25 0 -28 16 -2 12 -5 -6 -6 -40z m57 -13 c5 -34 -16 -51 -33 -27 -10 14 -11
24 -4 38 13 24 33 18 37 -11z"/>
<path d="M560 971 c0 -14 -5 -18 -18 -14 -28 7 -47 -23 -36 -55 7 -21 16 -27
42 -29 l32 -1 0 59 c0 33 -4 59 -10 59 -5 0 -10 -9 -10 -19z m-5 -57 c0 -19
-5 -29 -15 -29 -16 0 -25 28 -16 51 10 25 31 10 31 -22z"/>
<path d="M740 970 c0 -13 -5 -18 -15 -14 -21 8 -45 -14 -45 -41 0 -28 19 -45
48 -42 20 1 22 7 22 59 0 32 -2 58 -5 58 -3 0 -5 -9 -5 -20z m-5 -56 c0 -32
-21 -39 -38 -12 -8 12 -7 21 3 32 19 24 35 14 35 -20z"/>
<path d="M963 930 c0 -36 2 -50 4 -32 2 17 2 47 0 65 -2 17 -4 3 -4 -33z"/>
<path d="M1002 928 l1 -63 6 50 6 50 14 -47 c7 -27 17 -48 21 -48 5 0 15 19
23 43 l15 42 1 -42 c1 -67 21 -50 21 17 0 78 -21 81 -42 8 l-14 -53 -18 53
c-10 28 -22 52 -27 52 -5 0 -8 -28 -7 -62z"/>
<path d="M1146 974 c-9 -8 -16 -31 -16 -50 0 -27 5 -37 26 -46 30 -14 57 -2
63 28 3 16 1 16 -15 -4 -22 -26 -49 -22 -59 9 -15 46 24 82 56 53 21 -19 27
-6 7 14 -17 17 -44 15 -62 -4z"/>
<path d="M1297 984 c-4 -4 -7 -14 -7 -23 0 -12 3 -11 13 4 8 10 19 15 25 11
18 -11 14 -36 -5 -36 -17 -1 -17 -1 0 -11 9 -5 17 -16 17 -24 0 -24 -22 -29
-37 -9 -14 19 -15 19 -11 -1 2 -11 12 -21 24 -23 26 -4 49 22 39 45 -4 10 -8
29 -9 43 -1 25 -33 40 -49 24z"/>
<path d="M1391 981 c-16 -10 -19 -87 -3 -103 32 -32 74 28 56 79 -10 30 -30
39 -53 24z m34 -52 c0 -32 -4 -44 -15 -44 -16 0 -26 54 -16 82 12 30 31 6 31
-38z"/>
<path d="M312 948 c-16 -16 -15 -53 3 -68 18 -15 47 -10 53 10 5 13 3 13 -12
1 -15 -12 -19 -12 -34 2 -15 16 -14 17 17 17 28 0 32 3 29 23 -3 25 -36 35
-56 15z m46 -16 c2 -7 -7 -12 -23 -12 -24 0 -26 2 -15 15 14 17 31 16 38 -3z"/>
<path d="M397 954 c-15 -15 -6 -35 20 -45 19 -7 23 -13 15 -21 -8 -8 -16 -7
-28 3 -15 12 -17 12 -12 -1 7 -21 52 -19 56 2 2 12 -6 21 -24 28 -20 8 -24 14
-16 22 8 8 16 7 28 -3 15 -12 17 -12 12 1 -5 16 -39 25 -51 14z"/>
<path d="M473 915 c0 -27 2 -38 4 -22 2 15 2 37 0 50 -2 12 -4 0 -4 -28z"/>
<path d="M607 954 c-14 -14 -7 -26 8 -14 12 10 19 10 27 2 8 -8 7 -13 -5 -17
-9 -3 -24 -7 -33 -10 -8 -3 -14 -13 -12 -22 2 -13 14 -18 39 -19 l35 -2 -5 42
c-5 31 -11 42 -26 44 -12 2 -24 0 -28 -4z m41 -56 c-7 -19 -38 -22 -38 -4 0
10 9 16 21 16 12 0 19 -5 17 -12z"/>
<path d="M782 948 c-16 -16 -15 -53 3 -68 18 -15 47 -10 53 10 5 13 3 13 -12
1 -15 -12 -19 -12 -34 2 -15 16 -14 17 17 17 28 0 32 3 29 23 -3 25 -36 35
-56 15z m46 -16 c2 -7 -7 -12 -23 -12 -24 0 -26 2 -15 15 14 17 31 16 38 -3z"/>
<path d="M870 949 c0 -5 5 -7 10 -4 6 3 10 8 10 11 0 2 -4 4 -10 4 -5 0 -10
-5 -10 -11z"/>
<path d="M1523 953 c-7 -2 -13 -20 -13 -38 0 -25 5 -35 20 -40 26 -8 50 11 50
39 0 36 -25 53 -57 39z m41 -26 c8 -12 7 -21 -6 -33 -20 -20 -38 -11 -38 20 0
39 23 46 44 13z"/>
<path d="M1604 920 c1 -43 2 -45 34 -48 32 -3 32 -3 32 42 0 55 -17 62 -22 9
-4 -53 -31 -51 -39 2 l-7 40 2 -45z"/>
<path d="M1730 915 c0 -54 17 -60 22 -8 4 52 28 56 28 4 0 -50 18 -55 22 -6 4
47 21 45 29 -2 l6 -38 2 46 1 47 -55 1 -55 0 0 -44z"/>
<path d="M1877 954 c-14 -14 -7 -26 8 -14 12 10 19 10 27 2 8 -8 7 -13 -5 -17
-9 -3 -24 -7 -33 -10 -8 -3 -14 -13 -12 -22 2 -13 14 -18 39 -19 l35 -2 -5 42
c-5 31 -11 42 -26 44 -12 2 -24 0 -28 -4z m41 -56 c-7 -19 -38 -22 -38 -4 0
10 9 16 21 16 12 0 19 -5 17 -12z"/>
<path d="M1963 915 c0 -27 2 -38 4 -22 2 15 2 37 0 50 -2 12 -4 0 -4 -28z"/>
<path d="M2003 953 c-7 -2 -13 -20 -13 -38 0 -25 5 -35 20 -40 26 -8 50 11 50
39 0 36 -25 53 -57 39z m41 -26 c8 -12 7 -21 -6 -33 -20 -20 -38 -11 -38 20 0
39 23 46 44 13z"/>
<path d="M2081 910 c1 -43 1 -44 9 -13 4 18 13 39 19 47 10 12 9 15 -8 13 -18
-1 -21 -8 -20 -47z"/>
<path d="M870 880 c0 -5 5 -10 11 -10 5 0 7 5 4 10 -3 6 -8 10 -11 10 -2 0 -4
-4 -4 -10z"/>
<path d="M362 580 c0 -49 2 -58 7 -34 16 65 41 74 41 14 0 -22 5 -40 11 -40 6
0 9 17 7 43 -3 37 -6 42 -28 42 -16 0 -27 7 -32 20 -3 11 -6 -9 -6 -45z"/>
<path d="M732 580 c1 -54 2 -58 7 -25 4 26 11 40 21 40 10 0 17 -14 21 -40 l7
-40 -2 45 c-1 38 -4 45 -21 45 -11 0 -23 9 -27 20 -3 11 -6 -9 -6 -45z"/>
<path d="M1523 580 c0 -36 2 -50 4 -32 2 17 2 47 0 65 -2 17 -4 3 -4 -33z"/>
<path d="M1952 580 c0 -49 2 -58 7 -34 16 65 41 74 41 14 0 -22 5 -40 11 -40
6 0 9 17 7 43 -3 37 -6 42 -28 42 -16 0 -27 7 -32 20 -3 11 -6 -9 -6 -45z"/>
<path d="M2942 580 c1 -54 2 -58 7 -25 4 26 11 40 21 40 10 0 17 -14 21 -40
l7 -40 -2 45 c-1 38 -4 45 -21 45 -11 0 -23 9 -27 20 -3 11 -6 -9 -6 -45z"/>
<path d="M4423 580 c0 -36 2 -50 4 -32 2 17 2 47 0 65 -2 17 -4 3 -4 -33z"/>
<path d="M4501 585 c-1 -56 1 -61 21 -62 29 -3 48 14 48 42 0 27 -24 49 -44
42 -10 -4 -16 2 -19 16 -2 12 -5 -5 -6 -38z m53 -8 c8 -12 7 -21 -6 -33 -20
-20 -38 -11 -38 20 0 39 23 46 44 13z"/>
<path d="M4990 580 c0 -33 4 -60 10 -60 6 0 10 13 10 29 0 25 5 30 28 34 l27
4 -27 2 c-21 1 -28 6 -28 20 0 15 8 21 33 24 28 3 26 4 -10 5 l-43 2 0 -60z"/>
<path d="M5350 621 c0 -14 -6 -17 -25 -13 -19 3 -27 -1 -34 -19 -14 -38 1 -64
38 -65 l31 -1 0 59 c0 32 -2 58 -5 58 -3 0 -5 -8 -5 -19z m-11 -40 c7 -13 6
-23 -3 -36 -16 -22 -36 -12 -36 19 0 39 22 49 39 17z"/>
<path d="M5470 580 l0 -60 48 2 c43 1 44 2 10 5 -32 4 -38 8 -38 28 0 19 6 24
33 28 l32 4 -32 1 c-25 2 -33 7 -33 21 0 15 8 21 33 24 28 3 26 4 -10 5 l-43
2 0 -60z"/>
<path d="M6483 580 c0 -36 2 -50 4 -32 2 17 2 47 0 65 -2 17 -4 3 -4 -33z"/>
<path d="M7542 628 c-7 -7 -12 -29 -12 -49 0 -73 62 -78 68 -5 5 54 -26 84
-56 54z m48 -48 c0 -9 -7 -25 -15 -36 -13 -16 -16 -17 -25 -4 -25 38 1 109 27
73 7 -9 13 -24 13 -33z"/>
<path d="M7932 628 c-19 -19 -14 -33 6 -15 10 10 22 17 25 17 13 0 7 -40 -5
-40 -7 0 -5 -5 5 -11 22 -13 22 -38 1 -46 -11 -4 -22 1 -31 13 -14 19 -15 19
-11 -1 2 -15 11 -20 33 -20 29 0 30 2 32 50 2 60 -24 84 -55 53z"/>
<path d="M8022 628 c-7 -7 -12 -29 -12 -49 0 -73 62 -78 68 -5 5 54 -26 84
-56 54z m48 -48 c0 -9 -7 -25 -15 -36 -13 -16 -16 -17 -25 -4 -25 38 1 109 27
73 7 -9 13 -24 13 -33z"/>
<path d="M9540 620 c0 -13 -5 -18 -15 -14 -21 8 -45 -14 -45 -41 0 -28 19 -45
48 -42 20 1 22 7 22 59 0 32 -2 58 -5 58 -3 0 -5 -9 -5 -20z m-5 -56 c0 -32
-21 -39 -38 -12 -8 12 -7 21 3 32 19 24 35 14 35 -20z"/>
<path d="M9783 580 c0 -36 2 -50 4 -32 2 17 2 47 0 65 -2 17 -4 3 -4 -33z"/>
<path d="M958 618 c-2 -6 -16 -10 -31 -10 -25 0 -27 -3 -27 -44 0 -54 18 -59
22 -7 2 27 8 39 21 41 14 3 17 -4 17 -37 0 -33 4 -41 18 -40 10 0 12 3 5 6
-15 5 -18 70 -4 75 5 2 3 8 -4 15 -9 9 -15 9 -17 1z"/>
<path d="M1168 618 c-8 -24 8 -92 22 -96 12 -4 13 -2 3 9 -15 15 -17 66 -4 71
5 2 3 8 -4 15 -10 9 -15 9 -17 1z"/>
<path d="M1890 614 c0 -8 5 -12 10 -9 6 3 10 10 10 16 0 5 -4 9 -10 9 -5 0
-10 -7 -10 -16z"/>
<path d="M1921 614 c0 -11 3 -14 6 -6 3 7 2 16 -1 19 -3 4 -6 -2 -5 -13z"/>
<path d="M2492 614 c-7 -8 -8 -14 -2 -14 5 0 10 -18 10 -40 0 -22 3 -40 8 -40
7 0 8 98 0 105 -1 2 -9 -3 -16 -11z"/>
<path d="M3478 618 c-8 -24 8 -92 22 -96 12 -4 13 -2 3 9 -15 15 -17 66 -4 71
5 2 3 8 -4 15 -10 9 -15 9 -17 1z"/>
<path d="M4679 621 c-9 -26 6 -94 21 -99 12 -4 13 -2 3 9 -18 18 -17 69 1 69
10 0 16 -13 18 -37 5 -57 23 -50 21 8 -1 50 -11 76 -20 52 -3 -7 -11 -13 -18
-13 -7 0 -15 6 -17 13 -4 9 -6 8 -9 -2z"/>
<path d="M5658 620 c-2 -6 -2 -31 0 -55 3 -34 8 -45 21 -44 10 0 11 2 4 6 -15
5 -18 70 -4 75 5 2 3 8 -4 15 -8 8 -15 8 -17 3z"/>
<path d="M6171 614 c0 -11 3 -14 6 -6 3 7 2 16 -1 19 -3 4 -6 -2 -5 -13z"/>
<path d="M6190 621 c0 -6 5 -13 10 -16 6 -3 10 1 10 9 0 9 -4 16 -10 16 -5 0
-10 -4 -10 -9z"/>
<path d="M6348 619 c-7 -20 6 -92 17 -96 8 -2 11 41 6 100 -1 11 -19 8 -23 -4z"/>
<path d="M6690 614 c0 -8 5 -12 10 -9 6 3 10 10 10 16 0 5 -4 9 -10 9 -5 0
-10 -7 -10 -16z"/>
<path d="M6721 614 c0 -11 3 -14 6 -6 3 7 2 16 -1 19 -3 4 -6 -2 -5 -13z"/>
<path d="M7042 614 c-7 -8 -8 -14 -2 -14 5 0 10 -18 10 -40 0 -22 3 -40 8 -40
7 0 8 98 0 105 -1 2 -9 -3 -16 -11z"/>
<path d="M7352 614 c-7 -8 -8 -14 -2 -14 5 0 10 -18 10 -40 0 -22 3 -40 8 -40
7 0 8 98 0 105 -1 2 -9 -3 -16 -11z"/>
<path d="M7850 615 c-9 -10 -9 -15 -1 -15 6 0 11 -17 11 -40 0 -22 5 -40 10
-40 6 0 10 25 10 55 0 56 -8 67 -30 40z"/>
<path d="M8488 619 c-7 -20 6 -92 17 -96 8 -2 11 41 6 100 -1 11 -19 8 -23 -4z"/>
<path d="M9099 622 c-2 -7 -3 -33 -1 -57 3 -34 8 -45 21 -44 10 0 11 2 4 6
-18 7 -17 73 0 73 20 0 42 -78 26 -96 -9 -11 -9 -14 0 -14 13 0 36 49 45 96 6
28 5 27 -10 -6 l-17 -35 -9 33 c-6 22 -15 32 -27 32 -11 0 -21 6 -23 13 -4 9
-6 9 -9 -1z"/>
<path d="M9330 615 c-8 -9 -9 -15 -2 -15 6 0 13 -19 15 -42 3 -37 4 -35 5 15
1 31 0 57 -2 57 -2 0 -9 -7 -16 -15z"/>
<path d="M451 560 c1 -43 1 -44 9 -13 4 18 13 39 19 47 10 12 9 15 -8 13 -18
-1 -21 -8 -20 -47z"/>
<path d="M501 546 c1 -34 4 -52 6 -40 3 16 10 20 28 16 19 -3 27 1 34 19 14
38 -1 64 -38 65 l-31 1 1 -61z m57 25 c5 -34 -16 -51 -33 -27 -10 14 -11 24
-4 38 13 24 33 18 37 -11z"/>
<path d="M650 595 c-12 -14 -11 -18 1 -26 8 -5 20 -9 27 -9 6 0 12 -7 12 -15
0 -18 -27 -20 -33 -2 -2 6 -8 9 -12 5 -11 -10 4 -28 24 -28 18 0 41 18 41 32
0 5 -11 13 -25 18 -14 5 -25 14 -25 20 0 14 13 13 29 -2 11 -11 13 -10 9 2 -7
21 -32 24 -48 5z"/>
<path d="M822 598 c-30 -30 -2 -86 38 -73 15 5 20 15 20 40 0 41 -32 59 -58
33z m43 -34 c0 -32 -21 -39 -38 -12 -8 12 -7 21 3 32 19 24 35 14 35 -20z"/>
<path d="M1004 597 c-3 -9 -4 -28 -2 -44 2 -22 8 -28 27 -28 13 0 27 7 29 15
4 13 3 13 -11 2 -21 -18 -37 -7 -37 23 0 30 16 41 37 23 14 -11 16 -11 11 2
-6 20 -47 25 -54 7z"/>
<path d="M1084 570 c1 -43 2 -45 34 -48 32 -3 32 -3 32 42 0 55 -17 62 -22 9
-4 -53 -31 -51 -39 2 l-7 40 2 -45z"/>
<path d="M1442 598 c-16 -16 -15 -53 3 -68 18 -15 47 -10 53 10 5 13 3 13 -11
1 -14 -11 -20 -11 -32 -1 -19 15 -19 21 -1 45 12 16 16 17 30 6 9 -7 16 -9 16
-3 0 9 -22 22 -39 22 -4 0 -12 -5 -19 -12z"/>
<path d="M1557 603 c-14 -13 -7 -25 8 -13 8 6 19 9 25 5 17 -11 11 -23 -12
-27 -15 -2 -23 -10 -23 -23 0 -16 7 -20 36 -21 34 -1 35 0 31 30 -3 17 -9 37
-14 44 -11 13 -40 16 -51 5z m43 -52 c0 -14 -18 -23 -30 -16 -6 4 -8 11 -5 16
8 12 35 12 35 0z"/>
<path d="M1647 604 c-15 -15 -6 -35 20 -45 19 -7 23 -13 15 -21 -8 -8 -16 -7
-28 3 -15 12 -17 12 -12 -1 7 -21 52 -19 56 2 2 12 -6 21 -24 28 -20 8 -24 14
-16 22 8 8 16 7 28 -3 15 -12 17 -12 12 1 -5 16 -39 25 -51 14z"/>
<path d="M1727 604 c-15 -15 -6 -35 20 -45 19 -7 23 -13 15 -21 -8 -8 -16 -7
-28 3 -15 12 -17 12 -12 -1 7 -21 52 -19 56 2 2 12 -6 21 -24 28 -20 8 -24 14
-16 22 8 8 16 7 28 -3 15 -12 17 -12 12 1 -5 16 -39 25 -51 14z"/>
<path d="M2041 560 c2 -34 3 -37 6 -15 3 17 12 38 20 47 14 15 13 17 -6 15
-18 -1 -21 -7 -20 -47z"/>
<path d="M2091 546 c1 -34 4 -52 6 -40 3 16 10 20 28 16 19 -3 27 1 34 19 14
38 -1 64 -38 65 l-31 1 1 -61z m57 25 c5 -34 -16 -51 -33 -27 -10 14 -11 24
-4 38 13 24 33 18 37 -11z"/>
<path d="M2240 596 c-30 -37 14 -96 47 -63 10 9 12 17 6 17 -7 0 -15 -5 -18
-10 -8 -13 -35 6 -35 25 0 19 27 38 35 25 3 -5 11 -10 17 -10 7 0 6 6 -2 15
-16 19 -34 19 -50 1z"/>
<path d="M2322 598 c-30 -30 -2 -86 38 -73 15 5 20 15 20 40 0 41 -32 59 -58
33z m43 -34 c0 -32 -21 -39 -38 -12 -8 12 -7 21 3 32 19 24 35 14 35 -20z"/>
<path d="M2400 566 c0 -55 17 -62 22 -8 4 52 31 50 39 -3 l7 -40 -2 45 c-1 43
-2 45 -33 48 -33 3 -33 3 -33 -42z"/>
<path d="M2547 604 c-14 -14 -7 -26 8 -14 12 10 19 10 27 2 8 -8 7 -13 -5 -17
-9 -3 -24 -7 -33 -10 -8 -3 -14 -13 -12 -22 2 -13 14 -18 39 -19 l35 -2 -5 42
c-5 31 -11 42 -26 44 -12 2 -24 0 -28 -4z m41 -56 c-7 -19 -38 -22 -38 -4 0
10 9 16 21 16 12 0 19 -5 17 -12z"/>
<path d="M2633 565 c0 -27 2 -38 4 -22 2 15 2 37 0 50 -2 12 -4 0 -4 -28z"/>
<path d="M2661 561 c1 -42 2 -43 8 -15 16 65 41 74 41 14 0 -22 5 -40 11 -40
6 0 9 17 7 43 -3 40 -5 42 -35 43 -33 1 -33 1 -32 -45z"/>
<path d="M2762 598 c-20 -20 -15 -66 8 -73 20 -6 56 12 45 23 -2 3 -11 -1 -19
-7 -8 -7 -20 -10 -26 -6 -20 12 -10 25 20 25 18 0 30 5 30 13 0 16 -20 37 -35
37 -6 0 -16 -5 -23 -12z m29 -26 c-28 -4 -40 6 -21 18 9 6 20 4 29 -3 12 -10
11 -13 -8 -15z"/>
<path d="M2841 560 c2 -34 3 -37 6 -15 3 17 12 38 20 47 14 15 13 17 -6 15
-18 -1 -21 -7 -20 -47z"/>
<path d="M3032 560 c1 -40 2 -41 5 -10 2 19 11 40 20 47 13 10 13 12 -6 10
-18 -1 -21 -7 -19 -47z"/>
<path d="M3081 545 c1 -33 4 -50 6 -38 3 14 9 20 19 16 20 -7 44 15 44 42 0
28 -19 45 -48 42 -20 -1 -22 -6 -21 -62z m53 32 c8 -12 7 -21 -6 -33 -20 -20
-38 -11 -38 20 0 39 23 46 44 13z"/>
<path d="M3224 597 c-3 -9 -4 -28 -2 -44 2 -22 8 -28 27 -28 13 0 27 7 29 15
4 13 3 13 -11 2 -21 -18 -37 -7 -37 23 0 30 16 41 37 23 14 -11 16 -11 11 2
-6 20 -47 25 -54 7z"/>
<path d="M3313 603 c-7 -2 -13 -20 -13 -38 0 -25 5 -35 20 -40 26 -8 50 11 50
39 0 36 -25 53 -57 39z m41 -26 c8 -12 7 -21 -6 -33 -20 -20 -38 -11 -38 20 0
39 23 46 44 13z"/>
<path d="M3391 560 l1 -45 8 38 c4 20 10 40 13 43 13 13 27 -9 27 -42 0 -19 5
-34 10 -34 12 0 13 60 2 78 -5 6 -20 11 -35 10 -25 -2 -27 -5 -26 -48z"/>
<path d="M3537 604 c-4 -4 -7 -12 -7 -18 0 -6 5 -5 12 2 16 16 28 15 28 -2 0
-8 -10 -16 -22 -18 -15 -2 -23 -10 -23 -23 0 -16 7 -20 35 -21 l36 -1 -6 41
c-4 31 -10 42 -25 44 -12 2 -24 0 -28 -4z m33 -53 c0 -14 -18 -23 -30 -16 -6
4 -8 11 -5 16 8 12 35 12 35 0z"/>
<path d="M3613 565 c0 -27 2 -38 4 -22 2 15 2 37 0 50 -2 12 -4 0 -4 -28z"/>
<path d="M3651 561 l2 -46 6 40 c4 26 11 40 21 40 10 0 17 -14 21 -40 l7 -40
-2 45 c-1 42 -3 45 -28 46 -27 1 -28 -1 -27 -45z"/>
<path d="M3738 584 c-9 -18 -9 -30 -1 -42 13 -21 55 -22 61 -2 4 13 3 13 -11
2 -9 -8 -21 -11 -27 -7 -20 12 -10 25 20 25 33 0 35 3 20 31 -15 27 -48 24
-62 -7z m50 -2 c2 -7 -6 -12 -17 -12 -21 0 -27 11 -14 24 9 9 26 2 31 -12z"/>
<path d="M3832 560 c1 -40 2 -41 5 -10 2 19 11 40 20 47 13 10 13 12 -6 10
-18 -1 -21 -7 -19 -47z"/>
<path d="M3971 561 l2 -46 6 40 c4 26 11 40 21 40 10 0 17 -14 21 -40 l7 -40
-2 45 c-1 42 -3 45 -28 46 -27 1 -28 -1 -27 -45z"/>
<path d="M4062 598 c-7 -7 -12 -21 -12 -33 0 -46 53 -62 71 -21 21 45 -26 87
-59 54z m46 -27 c5 -34 -16 -51 -33 -27 -10 14 -11 24 -4 38 13 24 33 18 37
-11z"/>
<path d="M4140 564 c0 -24 5 -44 10 -44 6 0 10 15 10 33 0 18 4 37 10 43 6 6
3 10 -10 11 -17 2 -20 -4 -20 -43z"/>
<path d="M4201 561 l2 -46 6 40 c4 26 11 40 21 40 10 0 17 -14 21 -40 l6 -40
2 37 c1 35 15 57 28 44 3 -3 10 -23 14 -43 l7 -38 -1 45 -2 45 -52 1 -53 1 1
-46z"/>
<path d="M4337 603 c-14 -13 -7 -25 8 -13 8 6 19 9 25 5 17 -11 11 -23 -12
-27 -15 -2 -23 -10 -23 -23 0 -16 7 -20 36 -21 34 -1 35 0 31 30 -3 17 -9 37
-14 44 -11 13 -40 16 -51 5z m43 -52 c0 -14 -18 -23 -30 -16 -6 4 -8 11 -5 16
8 12 35 12 35 0z"/>
<path d="M4589 589 c-8 -16 -8 -28 0 -45 18 -41 71 -25 71 21 0 44 -50 61 -71
24z m46 -25 c0 -19 -5 -29 -15 -29 -16 0 -25 28 -16 51 10 25 31 10 31 -22z"/>
<path d="M4772 598 c-7 -7 -12 -21 -12 -33 0 -46 53 -62 71 -21 21 45 -26 87
-59 54z m46 -27 c5 -34 -16 -51 -33 -27 -10 14 -11 24 -4 38 13 24 33 18 37
-11z"/>
<path d="M4861 561 l2 -46 6 39 c8 55 31 60 31 7 0 -51 18 -54 22 -4 4 52 28
56 28 4 0 -23 5 -41 11 -41 6 0 9 17 7 43 l-3 42 -52 1 -53 1 1 -46z"/>
<path d="M5093 565 c0 -27 2 -38 4 -22 2 15 2 37 0 50 -2 12 -4 0 -4 -28z"/>
<path d="M5120 605 c0 -6 6 -17 12 -23 10 -10 10 -17 0 -33 -8 -12 -11 -23 -8
-26 3 -3 8 2 12 11 6 16 8 16 25 0 21 -19 27 -6 7 14 -10 10 -10 17 0 33 16
25 10 36 -8 14 -11 -14 -14 -13 -26 2 -7 10 -14 13 -14 8z"/>
<path d="M5212 598 c-20 -20 -15 -66 8 -73 20 -6 56 12 45 23 -2 3 -11 -1 -19
-7 -8 -7 -20 -10 -26 -6 -20 12 -10 25 20 25 18 0 30 5 30 13 0 16 -20 37 -35
37 -6 0 -16 -5 -23 -12z m29 -26 c-28 -4 -40 6 -21 18 9 6 20 4 29 -3 12 -10
11 -13 -8 -15z"/>
<path d="M5584 589 c13 -19 13 -24 -1 -45 -8 -13 -11 -24 -5 -24 5 0 13 8 17
18 6 16 7 16 19 0 20 -27 31 -22 13 6 -14 21 -14 26 -1 45 8 11 11 21 6 21 -6
0 -13 -8 -17 -17 -6 -17 -7 -17 -19 0 -19 25 -30 21 -12 -4z"/>
<path d="M5700 584 c-19 -48 28 -87 60 -49 14 17 0 21 -17 4 -6 -6 -16 -8 -22
-5 -21 13 -11 26 19 26 31 0 39 17 18 38 -20 20 -48 14 -58 -14z m48 -2 c2 -7
-6 -12 -17 -12 -21 0 -27 11 -14 24 9 9 26 2 31 -12z"/>
<path d="M5791 560 l1 -45 8 38 c4 20 10 40 13 43 13 13 27 -9 27 -42 0 -19 5
-34 10 -34 12 0 13 60 2 78 -5 6 -20 11 -35 10 -25 -2 -27 -5 -26 -48z"/>
<path d="M5880 595 c-12 -14 -11 -18 1 -26 8 -5 20 -9 27 -9 6 0 12 -7 12 -15
0 -18 -27 -20 -33 -2 -2 6 -8 9 -12 5 -11 -10 4 -28 24 -28 18 0 41 18 41 32
0 5 -11 13 -25 18 -14 5 -25 14 -25 20 0 14 13 13 29 -2 11 -11 13 -10 9 2 -7
21 -32 24 -48 5z"/>
<path d="M5963 565 c0 -27 2 -38 4 -22 2 15 2 37 0 50 -2 12 -4 0 -4 -28z"/>
<path d="M6002 598 c-30 -30 -2 -86 38 -73 15 5 20 15 20 40 0 41 -32 59 -58
33z m43 -34 c0 -32 -21 -39 -38 -12 -8 12 -7 21 3 32 19 24 35 14 35 -20z"/>
<path d="M6081 561 c1 -42 2 -43 8 -15 16 65 41 74 41 14 0 -22 5 -40 11 -40
6 0 9 17 7 43 -3 40 -5 42 -35 43 -33 1 -33 1 -32 -45z"/>
<path d="M6277 604 c-15 -15 -6 -35 20 -45 19 -7 23 -13 15 -21 -8 -8 -16 -7
-28 3 -15 12 -17 12 -12 -1 7 -21 52 -19 56 2 2 12 -6 21 -24 28 -20 8 -24 14
-16 22 8 8 16 7 28 -3 15 -12 17 -12 12 1 -5 16 -39 25 -51 14z"/>
<path d="M6390 606 c0 -2 7 -22 14 -45 13 -36 13 -42 0 -56 -13 -13 -13 -15
-1 -15 8 0 23 24 36 56 23 61 21 89 -2 33 l-13 -34 -12 33 c-9 26 -22 43 -22
28z"/>
<path d="M6522 598 c-20 -20 -15 -66 8 -73 20 -6 56 12 45 23 -2 3 -11 -1 -19
-7 -8 -7 -20 -10 -26 -6 -20 12 -10 25 20 25 18 0 30 5 30 13 0 16 -20 37 -35
37 -6 0 -16 -5 -23 -12z m29 -26 c-28 -4 -40 6 -21 18 9 6 20 4 29 -3 12 -10
11 -13 -8 -15z"/>
<path d="M6753 565 c0 -27 2 -38 4 -22 2 15 2 37 0 50 -2 12 -4 0 -4 -28z"/>
<path d="M6791 561 l2 -46 6 40 c4 26 11 40 21 40 10 0 17 -14 21 -40 l7 -40
-2 45 c-1 42 -3 45 -28 46 -27 1 -28 -1 -27 -45z"/>
<path d="M6877 604 c-15 -15 -6 -35 20 -45 19 -7 23 -13 15 -21 -8 -8 -16 -7
-28 3 -15 12 -17 12 -12 -1 6 -20 35 -25 53 -10 18 15 11 28 -23 41 -19 7 -22
13 -14 21 8 8 16 7 28 -3 15 -12 17 -12 12 1 -5 16 -39 25 -51 14z"/>
<path d="M6962 598 c-16 -16 -15 -53 3 -68 18 -15 47 -10 53 10 5 13 3 13 -12
1 -15 -12 -19 -12 -34 2 -15 16 -14 17 17 17 28 0 32 3 29 23 -3 25 -36 35
-56 15z m46 -16 c2 -7 -7 -12 -23 -12 -24 0 -26 2 -15 15 14 17 31 16 38 -3z"/>
<path d="M7187 604 c-14 -14 -7 -26 8 -14 12 10 19 10 27 2 8 -8 7 -13 -5 -17
-9 -3 -24 -7 -33 -10 -8 -3 -14 -13 -12 -22 2 -13 14 -18 39 -19 l35 -2 -5 42
c-5 31 -11 42 -26 44 -12 2 -24 0 -28 -4z m41 -56 c-7 -19 -38 -22 -38 -4 0
10 9 16 21 16 12 0 19 -5 17 -12z"/>
<path d="M7274 570 c1 -42 3 -45 29 -46 26 -1 27 1 26 45 l-2 46 -6 -40 c-4
-26 -11 -40 -21 -40 -10 0 -17 14 -21 40 l-7 40 2 -45z"/>
<path d="M7399 589 c-8 -16 -8 -28 0 -45 18 -41 71 -25 71 21 0 44 -50 61 -71
24z m46 -25 c0 -19 -5 -29 -15 -29 -16 0 -25 28 -16 51 10 25 31 10 31 -22z"/>
<path d="M7621 546 c1 -34 4 -51 6 -38 2 12 9 20 14 17 5 -4 18 -3 29 0 15 5
20 15 20 41 0 19 -3 35 -7 36 -5 0 -20 2 -35 3 -28 2 -28 2 -27 -59z m53 6
c-13 -20 -25 -20 -38 1 -7 10 -5 21 4 32 12 15 15 15 29 0 12 -12 13 -19 5
-33z"/>
<path d="M7710 605 c0 -6 6 -17 12 -23 10 -10 10 -17 0 -33 -8 -12 -11 -23 -8
-26 3 -3 8 2 12 11 6 16 8 16 25 0 21 -19 27 -6 7 14 -10 10 -10 17 0 33 16
25 10 36 -8 14 -11 -14 -14 -13 -26 2 -7 10 -14 13 -14 8z"/>
<path d="M8101 546 c1 -34 4 -51 6 -38 2 12 9 20 14 17 5 -4 18 -3 29 0 15 5
20 15 20 41 0 19 -3 35 -7 36 -5 0 -20 2 -35 3 -28 2 -28 2 -27 -59z m53 6
c-13 -20 -25 -20 -38 1 -7 10 -5 21 4 32 12 15 15 15 29 0 12 -12 13 -19 5
-33z"/>
<path d="M8190 605 c0 -6 6 -17 12 -23 10 -10 10 -17 0 -33 -8 -12 -11 -23 -8
-26 3 -3 8 2 12 11 6 16 8 16 25 0 21 -19 27 -6 7 14 -10 10 -10 17 0 33 16
25 10 36 -8 14 -11 -14 -14 -13 -26 2 -7 10 -14 13 -14 8z"/>
<path d="M8327 604 c-4 -4 -7 -12 -7 -18 0 -6 5 -5 12 2 16 16 28 15 28 -2 0
-8 -10 -16 -22 -18 -15 -2 -23 -10 -23 -23 0 -16 7 -20 35 -21 l36 -1 -6 41
c-4 31 -10 42 -25 44 -12 2 -24 0 -28 -4z m33 -53 c0 -14 -18 -23 -30 -16 -6
4 -8 11 -5 16 8 12 35 12 35 0z"/>
<path d="M8402 568 c3 -41 5 -43 36 -44 32 -1 32 -1 31 45 -2 34 -3 38 -6 16
-10 -63 -43 -74 -43 -15 0 22 -5 40 -11 40 -6 0 -9 -17 -7 -42z"/>
<path d="M8542 598 c-7 -7 -12 -21 -12 -33 0 -46 53 -62 71 -21 21 45 -26 87
-59 54z m46 -27 c5 -34 -16 -51 -33 -27 -10 14 -11 24 -4 38 13 24 33 18 37
-11z"/>
<path d="M8635 600 c3 -5 8 -10 11 -10 2 0 4 5 4 10 0 6 -5 10 -11 10 -5 0 -7
-4 -4 -10z"/>
<path d="M8722 598 c-30 -30 -2 -86 38 -73 15 5 20 15 20 40 0 41 -32 59 -58
33z m43 -34 c0 -32 -21 -39 -38 -12 -8 12 -7 21 3 32 19 24 35 14 35 -20z"/>
<path d="M8801 546 c1 -34 4 -52 6 -40 3 16 10 20 28 16 19 -3 27 1 34 19 14
38 -1 64 -38 65 l-31 1 1 -61z m57 25 c5 -34 -16 -51 -33 -27 -10 14 -11 24
-4 38 13 24 33 18 37 -11z"/>
<path d="M8897 603 c-14 -13 -7 -25 8 -13 8 6 19 9 25 5 17 -11 11 -23 -12
-27 -15 -2 -23 -10 -23 -23 0 -16 7 -20 36 -21 34 -1 35 0 31 30 -3 17 -9 37
-14 44 -11 13 -40 16 -51 5z m43 -52 c0 -14 -18 -23 -30 -16 -6 4 -8 11 -5 16
8 12 35 12 35 0z"/>
<path d="M8984 597 c-3 -9 -4 -28 -2 -44 2 -22 8 -28 27 -28 13 0 27 7 29 15
4 13 3 13 -11 2 -21 -18 -37 -7 -37 23 0 30 16 41 37 23 14 -11 16 -11 11 2
-6 20 -47 25 -54 7z"/>
<path d="M9063 565 c0 -27 2 -38 4 -22 2 15 2 37 0 50 -2 12 -4 0 -4 -28z"/>
<path d="M9583 565 c0 -27 2 -38 4 -22 2 15 2 37 0 50 -2 12 -4 0 -4 -28z"/>
<path d="M9617 604 c-15 -15 -6 -35 20 -45 19 -7 23 -13 15 -21 -8 -8 -16 -7
-28 3 -15 12 -17 12 -12 -1 7 -21 52 -19 56 2 2 12 -6 21 -24 28 -20 8 -24 14
-16 22 8 8 16 7 28 -3 15 -12 17 -12 12 1 -5 16 -39 25 -51 14z"/>
<path d="M9691 546 c1 -34 4 -51 6 -38 2 12 9 20 14 17 5 -4 18 -3 29 0 15 5
20 15 20 41 0 19 -3 35 -7 36 -5 0 -20 2 -35 3 -28 2 -28 2 -27 -59z m53 6
c-13 -20 -25 -20 -38 1 -7 10 -5 21 4 32 12 15 15 15 29 0 12 -12 13 -19 5
-33z"/>
<path d="M9827 604 c-14 -14 -7 -26 8 -14 12 10 19 10 27 2 8 -8 7 -13 -5 -17
-9 -3 -24 -7 -33 -10 -8 -3 -14 -13 -12 -22 2 -13 14 -18 39 -19 l35 -2 -5 42
c-5 31 -11 42 -26 44 -12 2 -24 0 -28 -4z m41 -56 c-7 -19 -38 -22 -38 -4 0
10 9 16 21 16 12 0 19 -5 17 -12z"/>
<path d="M9900 606 c0 -2 7 -22 14 -45 13 -36 13 -42 0 -56 -13 -13 -13 -15
-1 -15 8 0 23 24 36 56 23 61 21 89 -2 33 l-13 -34 -12 33 c-9 26 -22 43 -22
28z"/>
<path d="M9990 600 c0 -5 5 -10 10 -10 6 0 10 5 10 10 0 6 -4 10 -10 10 -5 0
-10 -4 -10 -10z"/>
<path d="M118 578 c-37 -13 -35 -21 7 -41 19 -9 35 -13 35 -8 0 5 -12 13 -27
19 l-28 9 30 16 c33 18 25 21 -17 5z"/>
<path d="M1818 573 c12 -2 32 -2 45 0 12 2 2 4 -23 4 -25 0 -35 -2 -22 -4z"/>
<path d="M6618 573 c12 -2 32 -2 45 0 12 2 2 4 -23 4 -25 0 -35 -2 -22 -4z"/>
<path d="M598 563 c6 -2 18 -2 25 0 6 3 1 5 -13 5 -14 0 -19 -2 -12 -5z"/>
<path d="M2188 563 c6 -2 18 -2 25 0 6 3 1 5 -13 5 -14 0 -19 -2 -12 -5z"/>
<path d="M3168 563 c6 -2 18 -2 25 0 6 3 1 5 -13 5 -14 0 -19 -2 -12 -5z"/>
<path d="M1818 543 c12 -2 32 -2 45 0 12 2 2 4 -23 4 -25 0 -35 -2 -22 -4z"/>
<path d="M6618 543 c12 -2 32 -2 45 0 12 2 2 4 -23 4 -25 0 -35 -2 -22 -4z"/>
<path d="M8636 532 c-2 -4 -1 -14 5 -22 7 -12 9 -10 9 8 0 23 -5 28 -14 14z"/>
<path d="M9412 520 c0 -14 2 -19 5 -12 2 6 2 18 0 25 -3 6 -5 1 -5 -13z"/>
<path d="M9995 530 c-3 -5 -1 -10 4 -10 6 0 11 5 11 10 0 6 -2 10 -4 10 -3 0
-8 -4 -11 -10z"/>
<path d="M213 493 c26 -2 68 -2 95 0 26 2 4 3 -48 3 -52 0 -74 -1 -47 -3z"/>
<path d="M1243 493 c26 -2 68 -2 95 0 26 2 4 3 -48 3 -52 0 -74 -1 -47 -3z"/>
<path d="M3893 493 c15 -2 37 -2 50 0 12 2 0 4 -28 4 -27 0 -38 -2 -22 -4z"/>
<path d="M5393 493 c15 -2 37 -2 50 0 12 2 0 4 -28 4 -27 0 -38 -2 -22 -4z"/>
<path d="M503 405 c0 -27 2 -38 4 -22 2 15 2 37 0 50 -2 12 -4 0 -4 -28z"/>
<path d="M1553 390 c0 -36 2 -50 4 -32 2 17 2 47 0 65 -2 17 -4 3 -4 -33z"/>
<path d="M1820 430 c0 -13 -5 -18 -15 -14 -21 8 -45 -14 -45 -41 0 -28 19 -45
48 -42 20 1 22 7 22 59 0 32 -2 58 -5 58 -3 0 -5 -9 -5 -20z m-6 -68 c-13 -20
-25 -20 -38 1 -7 10 -5 21 4 32 12 15 15 15 29 0 12 -12 13 -19 5 -33z"/>
<path d="M2063 390 c0 -36 2 -50 4 -32 2 17 2 47 0 65 -2 17 -4 3 -4 -33z"/>
<path d="M2593 390 c0 -36 2 -50 4 -32 2 17 2 47 0 65 -2 17 -4 3 -4 -33z"/>
<path d="M2620 390 c0 -33 4 -60 10 -60 6 0 10 27 10 60 0 33 -4 60 -10 60 -6
0 -10 -27 -10 -60z"/>
<path d="M2973 390 c0 -36 2 -50 4 -32 2 17 2 47 0 65 -2 17 -4 3 -4 -33z"/>
<path d="M3230 431 c0 -14 -5 -18 -18 -14 -28 7 -47 -23 -36 -55 7 -21 16 -27
42 -29 l32 -1 0 59 c0 33 -4 59 -10 59 -5 0 -10 -9 -10 -19z m-5 -57 c0 -19
-5 -29 -15 -29 -16 0 -25 28 -16 51 10 25 31 10 31 -22z"/>
<path d="M3473 390 c0 -36 2 -50 4 -32 2 17 2 47 0 65 -2 17 -4 3 -4 -33z"/>
<path d="M4570 390 c0 -33 4 -60 10 -60 6 0 10 27 10 60 0 33 -4 60 -10 60 -6
0 -10 -27 -10 -60z"/>
<path d="M4613 390 c0 -36 2 -50 4 -32 2 17 2 47 0 65 -2 17 -4 3 -4 -33z"/>
<path d="M939 431 c-2 -6 -16 -12 -31 -13 -26 -2 -28 -5 -27 -48 1 -41 2 -42
8 -14 10 41 19 54 37 54 10 0 14 -12 14 -40 0 -22 3 -40 8 -40 4 0 6 23 5 51
-1 49 -7 71 -14 50z"/>
<path d="M1158 430 c-2 -6 -2 -31 0 -55 3 -34 8 -45 21 -44 10 0 11 2 4 6 -15
5 -18 70 -4 75 5 2 3 8 -4 15 -8 8 -15 8 -17 3z"/>
<path d="M1240 424 c0 -8 5 -12 10 -9 6 3 10 10 10 16 0 5 -4 9 -10 9 -5 0
-10 -7 -10 -16z"/>
<path d="M1271 424 c0 -11 3 -14 6 -6 3 7 2 16 -1 19 -3 4 -6 -2 -5 -13z"/>
<path d="M1429 432 c-2 -7 -3 -33 -1 -57 3 -34 8 -45 21 -44 10 0 11 2 4 6
-18 7 -17 73 0 73 20 0 42 -78 26 -96 -9 -11 -9 -14 0 -14 13 0 36 49 45 96 6
28 5 27 -10 -6 l-17 -35 -9 33 c-6 22 -15 32 -27 32 -11 0 -21 6 -23 13 -4 9
-6 9 -9 -1z"/>
<path d="M2350 424 c0 -8 5 -12 10 -9 6 3 10 10 10 16 0 5 -4 9 -10 9 -5 0
-10 -7 -10 -16z"/>
<path d="M2381 424 c0 -11 3 -14 6 -6 3 7 2 16 -1 19 -3 4 -6 -2 -5 -13z"/>
<path d="M2661 424 c0 -11 3 -14 6 -6 3 7 2 16 -1 19 -3 4 -6 -2 -5 -13z"/>
<path d="M2680 431 c0 -6 5 -13 10 -16 6 -3 10 1 10 9 0 9 -4 16 -10 16 -5 0
-10 -4 -10 -9z"/>
<path d="M2838 429 c-7 -20 6 -92 17 -96 8 -2 11 41 6 100 -1 11 -19 8 -23 -4z"/>
<path d="M4118 429 c-7 -20 6 -92 17 -96 8 -2 11 41 6 100 -1 11 -19 8 -23 -4z"/>
<path d="M4341 424 c0 -11 3 -14 6 -6 3 7 2 16 -1 19 -3 4 -6 -2 -5 -13z"/>
<path d="M4360 424 c0 -8 5 -12 10 -9 6 3 10 10 10 16 0 5 -4 9 -10 9 -5 0
-10 -7 -10 -16z"/>
<path d="M4640 424 c0 -8 5 -12 10 -9 6 3 10 10 10 16 0 5 -4 9 -10 9 -5 0
-10 -7 -10 -16z"/>
<path d="M4671 424 c0 -11 3 -14 6 -6 3 7 2 16 -1 19 -3 4 -6 -2 -5 -13z"/>
<path d="M91 371 c1 -42 2 -43 8 -15 16 65 41 74 41 14 0 -22 5 -40 11 -40 6
0 9 17 7 43 -3 40 -5 42 -35 43 -33 1 -33 1 -32 -45z"/>
<path d="M179 399 c-8 -16 -8 -28 0 -45 18 -41 71 -25 71 21 0 44 -50 61 -71
24z m46 -25 c0 -19 -5 -29 -15 -29 -16 0 -25 28 -16 51 10 25 31 10 31 -22z"/>
<path d="M271 370 l1 -45 8 38 c4 20 10 40 13 43 13 13 27 -9 27 -42 0 -19 5
-34 10 -34 12 0 13 60 2 78 -5 6 -20 11 -35 10 -25 -2 -27 -5 -26 -48z"/>
<path d="M358 394 c-9 -18 -9 -30 -1 -42 13 -21 55 -22 61 -2 4 13 3 13 -11 2
-9 -8 -21 -11 -27 -7 -20 12 -10 25 20 25 33 0 35 3 20 31 -15 27 -48 24 -62
-7z m50 -2 c2 -7 -6 -12 -17 -12 -21 0 -27 11 -14 24 9 9 26 2 31 -12z"/>
<path d="M530 375 c0 -25 5 -45 10 -45 6 0 10 20 10 45 0 25 -4 45 -10 45 -5
0 -10 -20 -10 -45z"/>
<path d="M571 371 l2 -46 6 40 c4 26 11 40 21 40 10 0 17 -14 21 -40 l6 -40 2
37 c1 35 15 57 28 44 3 -3 10 -23 14 -43 l7 -38 -1 45 -2 45 -52 1 -53 1 1
-46z"/>
<path d="M701 356 c1 -34 4 -52 6 -40 3 16 10 20 28 16 19 -3 27 1 34 19 14
38 -1 64 -38 65 l-31 1 1 -61z m57 25 c5 -34 -16 -51 -33 -27 -10 14 -11 24
-4 38 13 24 33 18 37 -11z"/>
<path d="M803 413 c-7 -2 -13 -20 -13 -38 0 -25 5 -35 20 -40 26 -8 50 11 50
39 0 36 -25 53 -57 39z m41 -26 c8 -12 7 -21 -6 -33 -20 -20 -38 -11 -38 20 0
39 23 46 44 13z"/>
<path d="M987 414 c-14 -14 -7 -26 8 -14 12 10 19 10 27 2 8 -8 6 -13 -8 -18
-52 -19 -53 -54 0 -52 31 1 32 2 26 42 -4 31 -10 42 -25 44 -12 2 -24 0 -28
-4z m41 -56 c-7 -19 -38 -22 -38 -4 0 10 9 16 21 16 12 0 19 -5 17 -12z"/>
<path d="M1071 371 l2 -46 6 40 c4 26 11 40 21 40 10 0 17 -14 21 -40 l7 -40
-2 45 c-1 42 -3 45 -28 46 -27 1 -28 -1 -27 -45z"/>
<path d="M1350 405 c-12 -14 -11 -18 1 -26 8 -5 20 -9 27 -9 6 0 12 -7 12 -15
0 -18 -27 -20 -33 -2 -2 6 -8 9 -12 5 -11 -10 4 -28 24 -28 18 0 41 18 41 32
0 5 -11 13 -25 18 -14 5 -25 14 -25 20 0 14 13 13 29 -2 11 -11 13 -10 9 2 -7
21 -32 24 -48 5z"/>
<path d="M1588 394 c-9 -18 -9 -30 -1 -42 13 -21 55 -22 61 -2 4 13 3 13 -11
2 -9 -8 -21 -11 -27 -7 -20 12 -10 25 20 25 33 0 35 3 20 31 -15 27 -48 24
-62 -7z m50 -2 c2 -7 -6 -12 -17 -12 -21 0 -27 11 -14 24 9 9 26 2 31 -12z"/>
<path d="M1850 375 c0 -25 5 -45 10 -45 6 0 10 20 10 45 0 25 -4 45 -10 45 -5
0 -10 -20 -10 -45z"/>
<path d="M1897 413 c-15 -14 -6 -34 20 -44 20 -7 23 -13 15 -21 -9 -9 -15 -9
-24 0 -18 18 -33 15 -18 -3 17 -20 54 -15 58 7 2 12 -6 21 -23 28 -15 6 -23
15 -20 21 4 6 13 8 21 5 8 -3 14 -1 14 4 0 11 -33 14 -43 3z"/>
<path d="M1971 355 c1 -33 4 -50 6 -38 3 14 9 20 19 16 20 -7 44 15 44 42 0
28 -19 45 -48 42 -20 -1 -22 -6 -21 -62z m53 32 c8 -12 7 -21 -6 -33 -20 -20
-38 -11 -38 20 0 39 23 46 44 13z"/>
<path d="M2097 413 c-14 -13 -7 -25 8 -13 8 6 19 9 25 5 17 -11 11 -23 -12
-27 -15 -2 -23 -10 -23 -23 0 -16 7 -20 36 -21 34 -1 35 0 31 30 -3 17 -9 37
-14 44 -11 13 -40 16 -51 5z m43 -52 c0 -14 -18 -23 -30 -16 -6 4 -8 11 -5 16
8 12 35 12 35 0z"/>
<path d="M2187 375 c12 -36 13 -49 3 -60 -9 -11 -9 -15 -1 -15 13 0 36 49 45
96 6 28 5 27 -10 -6 l-17 -35 -9 33 c-5 17 -13 32 -18 32 -5 0 -2 -20 7 -45z"/>
<path d="M2411 371 c1 -42 2 -43 8 -15 16 65 41 74 41 14 0 -22 5 -40 11 -40
6 0 9 17 7 43 -3 40 -5 42 -35 43 -33 1 -33 1 -32 -45z"/>
<path d="M2504 380 c1 -43 2 -45 34 -48 32 -3 32 -3 32 42 0 55 -17 62 -22 9
-4 -53 -31 -51 -39 2 l-7 40 2 -45z"/>
<path d="M2767 414 c-15 -15 -6 -35 20 -45 19 -7 23 -13 15 -21 -8 -8 -16 -7
-28 3 -15 12 -17 12 -12 -1 7 -21 52 -19 56 2 2 12 -6 21 -24 28 -20 8 -24 14
-16 22 8 8 16 7 28 -3 15 -12 17 -12 12 1 -5 16 -39 25 -51 14z"/>
<path d="M2880 416 c0 -2 7 -22 14 -45 13 -36 13 -42 0 -56 -13 -13 -13 -15
-1 -15 8 0 23 24 36 56 23 61 21 89 -2 33 l-13 -34 -12 33 c-9 26 -22 43 -22
28z"/>
<path d="M3012 408 c-20 -20 -15 -66 8 -73 20 -6 56 12 45 23 -2 3 -11 -1 -19
-7 -8 -7 -20 -10 -26 -6 -20 12 -10 25 20 25 18 0 30 5 30 13 0 16 -20 37 -35
37 -6 0 -16 -5 -23 -12z m29 -26 c-28 -4 -40 6 -21 18 9 6 20 4 29 -3 12 -10
11 -13 -8 -15z"/>
<path d="M3273 375 c0 -27 2 -38 4 -22 2 15 2 37 0 50 -2 12 -4 0 -4 -28z"/>
<path d="M3307 414 c-15 -15 -6 -35 20 -45 19 -7 23 -13 15 -21 -8 -8 -16 -7
-28 3 -15 12 -17 12 -12 -1 6 -20 35 -25 53 -10 18 15 11 28 -23 41 -19 7 -22
13 -14 21 8 8 16 7 28 -3 15 -12 17 -12 12 1 -5 16 -39 25 -51 14z"/>
<path d="M3381 356 c1 -34 4 -52 6 -40 3 16 10 20 28 16 19 -3 27 1 34 19 14
38 -1 64 -38 65 l-31 1 1 -61z m57 25 c5 -34 -16 -51 -33 -27 -10 14 -11 24
-4 38 13 24 33 18 37 -11z"/>
<path d="M3517 414 c-14 -14 -7 -26 8 -14 12 10 19 10 27 2 8 -8 6 -13 -8 -18
-52 -19 -53 -54 0 -52 31 1 32 2 26 42 -4 31 -10 42 -25 44 -12 2 -24 0 -28
-4z m41 -56 c-7 -19 -38 -22 -38 -4 0 10 9 16 21 16 12 0 19 -5 17 -12z"/>
<path d="M3590 416 c0 -2 7 -22 14 -45 13 -36 13 -42 0 -56 -13 -13 -13 -15
-1 -15 8 0 23 24 36 56 23 61 21 89 -2 33 l-13 -34 -12 33 c-9 26 -22 43 -22
28z"/>
<path d="M3760 366 l0 -55 -52 -4 -53 -3 63 -2 c54 -2 62 0 62 16 0 13 7 18
21 18 31 -1 46 26 31 58 -9 20 -19 26 -42 26 -30 0 -30 -1 -30 -54z m55 8 c0
-19 -5 -29 -15 -29 -16 0 -25 28 -16 51 10 25 31 10 31 -22z"/>
<path d="M3850 374 c0 -24 5 -44 10 -44 6 0 10 15 10 33 0 18 4 37 10 43 6 6
3 10 -10 11 -17 2 -20 -4 -20 -43z"/>
<path d="M3913 375 c0 -27 2 -38 4 -22 2 15 2 37 0 50 -2 12 -4 0 -4 -28z"/>
<path d="M3952 408 c-30 -30 -2 -86 38 -73 15 5 20 15 20 40 0 41 -32 59 -58
33z m43 -34 c0 -32 -21 -39 -38 -12 -8 12 -7 21 3 32 19 24 35 14 35 -20z"/>
<path d="M4031 370 c1 -43 1 -44 9 -13 4 18 13 39 19 47 10 12 9 15 -8 13 -18
-1 -21 -8 -20 -47z"/>
<path d="M4093 375 c0 -27 2 -38 4 -22 2 15 2 37 0 50 -2 12 -4 0 -4 -28z"/>
<path d="M4165 400 c3 -14 8 -38 12 -54 4 -19 1 -31 -8 -37 -11 -7 -11 -9 3
-9 11 0 22 19 36 60 12 33 17 60 13 60 -5 0 -13 -15 -18 -32 l-10 -33 -16 35
c-12 25 -16 28 -12 10z"/>
<path d="M4401 371 l2 -46 6 40 c4 26 11 40 21 40 10 0 17 -14 21 -40 l7 -40
-2 45 c-1 42 -3 45 -28 46 -27 1 -28 -1 -27 -45z"/>
<path d="M4482 378 c3 -41 5 -43 36 -44 32 -1 32 -1 31 45 -2 34 -3 38 -6 16
-10 -63 -43 -74 -43 -15 0 22 -5 40 -11 40 -6 0 -9 -17 -7 -42z"/>
<path d="M4725 383 l30 -17 -27 -10 c-16 -5 -28 -13 -28 -17 0 -7 68 16 78 26
6 5 -55 35 -70 35 -7 -1 1 -8 17 -17z"/>
<path d="M2278 383 c12 -2 32 -2 45 0 12 2 2 4 -23 4 -25 0 -35 -2 -22 -4z"/>
<path d="M4258 383 c12 -2 32 -2 45 0 12 2 2 4 -23 4 -25 0 -35 -2 -22 -4z"/>
<path d="M2278 353 c12 -2 32 -2 45 0 12 2 2 4 -23 4 -25 0 -35 -2 -22 -4z"/>
<path d="M4258 353 c12 -2 32 -2 45 0 12 2 2 4 -23 4 -25 0 -35 -2 -22 -4z"/>
<path d="M1683 303 c15 -2 37 -2 50 0 12 2 0 4 -28 4 -27 0 -38 -2 -22 -4z"/>
<path d="M3103 303 c15 -2 37 -2 50 0 12 2 0 4 -28 4 -27 0 -38 -2 -22 -4z"/>
</g>
</svg>
