<?xml version="1.0" encoding="UTF-8"?>
<svg version="1.1" xmlns="http://www.w3.org/2000/svg" width="354" height="385">
<path d="M0 0 C116.82 0 233.64 0 354 0 C354 127.05 354 254.1 354 385 C237.18 385 120.36 385 0 385 C0 257.95 0 130.9 0 0 Z " fill="#392A4B" transform="translate(0,0)"/>
<path d="M0 0 C0.86478071 -0.00583219 1.72956141 -0.01166439 2.62054759 -0.01767331 C4.05412594 -0.01200433 4.05412594 -0.01200433 5.51666546 -0.00622082 C6.52756746 -0.01004636 7.53846947 -0.01387191 8.58000487 -0.01781338 C11.98941952 -0.02818568 15.39866708 -0.0241432 18.80809307 -0.02018261 C21.24359577 -0.0245268 23.67909709 -0.02970895 26.11459637 -0.03567028 C32.05702306 -0.04770712 37.99938334 -0.05020763 43.94181613 -0.04787002 C48.77153673 -0.04608927 53.6012436 -0.04783128 58.43096256 -0.05209446 C59.11753756 -0.05268965 59.80411255 -0.05328484 60.51149284 -0.05389806 C61.90615712 -0.05510978 63.3008214 -0.05632392 64.69548567 -0.05754044 C77.78636707 -0.06842657 90.87722273 -0.06624869 103.96810558 -0.06015559 C115.94710661 -0.05498811 127.92602628 -0.06623548 139.90501121 -0.08525381 C152.19851129 -0.10462212 164.49197287 -0.11288982 176.78548831 -0.10913056 C183.68990421 -0.10721664 190.59425089 -0.10972438 197.49865437 -0.1238451 C203.99189439 -0.13699014 210.48501222 -0.13451246 216.97825336 -0.12143421 C219.36435278 -0.11906108 221.75046354 -0.12182932 224.13654995 -0.13005733 C227.38852775 -0.14046424 230.63995211 -0.13247251 233.8919096 -0.11974621 C235.3154497 -0.13080764 235.3154497 -0.13080764 236.76774818 -0.14209253 C241.5723078 -0.10241328 245.07097095 -0.01827769 248.89476299 3.25447559 C249.51622295 5.83491993 249.51622295 5.83491993 249.50999737 8.96345997 C249.5239555 10.72043201 249.5239555 10.72043201 249.53819561 12.51289845 C249.51360271 14.41138538 249.51360271 14.41138538 249.48851299 16.34822559 C249.48855328 17.64643238 249.48859356 18.94463917 249.48863506 20.28218555 C249.48698165 23.02962976 249.46828264 25.77625813 249.43675518 28.52351856 C249.39707581 32.04450275 249.39270932 35.56441836 249.40021801 39.08558369 C249.40402631 42.44409451 249.38320917 45.80226769 249.36351299 49.16072559 C249.36331158 50.42638355 249.36311016 51.69204151 249.36290264 52.99605274 C249.34699078 54.16736744 249.33107891 55.33868214 249.31468487 56.54549122 C249.30626568 57.57790943 249.29784649 58.61032764 249.28917217 59.67403126 C248.82545583 62.70792162 248.27168206 63.39572406 245.89476299 65.25447559 C243.92146152 65.63052309 243.92146152 65.63052309 241.62686348 65.63199902 C240.75127484 65.63982226 239.8756862 65.6476455 238.97356457 65.65570581 C238.01093026 65.64901364 237.04829594 65.64232148 236.0564909 65.63542652 C235.03445067 65.64010649 234.01241043 65.64478647 232.95939928 65.64960825 C229.51837149 65.66161988 226.07773743 65.65207684 222.63670635 65.64265919 C220.17648364 65.64672212 217.71626275 65.65206242 215.25604534 65.65858936 C209.25791208 65.67087575 203.25993463 65.66904045 197.26180737 65.66035144 C192.38869771 65.65358361 187.51561962 65.65265426 182.6425066 65.65592289 C181.9496502 65.65638259 181.25679381 65.65684229 180.54294177 65.65731592 C179.13554782 65.65827506 177.72815389 65.6592477 176.32075996 65.66023369 C163.11644839 65.66879316 149.91219924 65.65894442 136.70789791 65.64283259 C125.36935749 65.62942593 114.03090918 65.63175927 102.69237041 65.64558887 C89.53462076 65.66162979 76.37692584 65.66797226 63.21916777 65.65875208 C61.81717973 65.6577964 60.41519168 65.65685329 59.01320362 65.65592289 C57.97841185 65.65522865 57.97841185 65.65522865 56.9227152 65.65452038 C52.05296615 65.65192624 47.18325172 65.65631055 42.31350803 65.66336155 C35.76443996 65.6726354 29.21551955 65.66606878 22.66645908 65.64867878 C20.25652641 65.64469671 17.84657914 65.64587713 15.43665218 65.65246677 C12.15958364 65.66060443 8.8830833 65.65045515 5.60605145 65.63542652 C4.64118641 65.64211869 3.67632138 65.64881085 2.68221802 65.65570581 C1.80923712 65.64788257 0.93625623 65.64005933 0.03682137 65.63199902 C-0.72023364 65.63151196 -1.47728864 65.6310249 -2.2572847 65.63052309 C-4.10523701 65.25447559 -4.10523701 65.25447559 -6.10523701 62.25447559 C-6.35920429 59.62933826 -6.35920429 59.62933826 -6.36402607 56.4378252 C-6.37033039 55.24326206 -6.37663471 54.04869892 -6.38313007 52.8179369 C-6.37908161 51.5272681 -6.37503315 50.23659931 -6.37086201 48.90681934 C-6.37220923 47.57068276 -6.37415024 46.23454666 -6.37666035 44.89841175 C-6.37960792 42.09997859 -6.37532519 39.30167319 -6.36597919 36.50325489 C-6.35457369 32.91286259 -6.36115316 29.32276893 -6.37312412 25.73238754 C-6.3803433 22.97434701 -6.37805476 20.21637757 -6.37286854 17.45833492 C-6.37088244 15.48957723 -6.37696434 13.5208168 -6.38313007 11.55206776 C-6.37682575 10.36065678 -6.37052143 9.1692458 -6.36402607 7.94173145 C-6.36243488 6.88932774 -6.3608437 5.83692402 -6.35920429 4.75262928 C-5.91703216 0.40319529 -3.90123763 0.0045093 0 0 Z " fill="#403251" transform="translate(55.10523700714111,47.745524406433105)"/>
<path d="M0 0 C58.74 0 117.48 0 178 0 C178 12.54 178 25.08 178 38 C119.26 38 60.52 38 0 38 C0 25.46 0 12.92 0 0 Z " fill="#FCFCFC" transform="translate(87,210)"/>
<path d="M0 0 C58.74 0 117.48 0 178 0 C178 12.54 178 25.08 178 38 C119.26 38 60.52 38 0 38 C0 25.46 0 12.92 0 0 Z " fill="#FDFDFD" transform="translate(87,150)"/>
<path d="M0 0 C1.12728516 -0.00845947 2.25457031 -0.01691895 3.41601562 -0.02563477 C5.27226563 -0.01652573 5.27226563 -0.01652573 7.16601562 -0.00723267 C8.46861328 -0.01248962 9.77121094 -0.01774658 11.11328125 -0.02316284 C14.68765615 -0.03685258 18.26177162 -0.03153111 21.83615112 -0.02202559 C25.57436835 -0.0144375 29.31256316 -0.02147222 33.05078125 -0.02618408 C39.32881667 -0.03164413 45.60674627 -0.02444353 51.88476562 -0.01016235 C59.14607474 0.00616471 66.40713116 0.00087637 73.66843414 -0.01564157 C79.89950984 -0.02924939 86.1305094 -0.03117957 92.36159515 -0.02332556 C96.08461144 -0.01864514 99.8075089 -0.01803424 103.53051758 -0.02793503 C107.68000285 -0.03819888 111.82905154 -0.02397886 115.97851562 -0.00723267 C117.21601563 -0.01330536 118.45351562 -0.01937805 119.72851562 -0.02563477 C121.41944336 -0.01294556 121.41944336 -0.01294556 123.14453125 0 C124.61678162 0.00169662 124.61678162 0.00169662 126.11877441 0.00342751 C128.57226562 0.38095093 128.57226562 0.38095093 130.38723755 1.69138145 C132.36367181 4.50930878 131.99873761 7.68756016 131.97070312 11.00595093 C131.97500839 12.12090942 131.97500839 12.12090942 131.97940063 13.25839233 C131.98144039 14.82854983 131.97591663 16.39873279 131.96337891 17.96884155 C131.94732265 20.37241425 131.96322914 22.77430554 131.98242188 25.17782593 C131.98043943 26.70387131 131.97659571 28.22991564 131.97070312 29.75595093 C131.97677582 30.4747644 131.98284851 31.19357788 131.98910522 31.93417358 C131.91929493 36.8861693 131.91929493 36.8861693 130.38723755 39.0705204 C127.89323707 40.87121733 126.20801885 40.75837151 123.14453125 40.76190186 C121.45360352 40.77459106 121.45360352 40.77459106 119.72851562 40.78753662 C117.87226563 40.77842758 117.87226563 40.77842758 115.97851562 40.76913452 C114.02461914 40.77701996 114.02461914 40.77701996 112.03125 40.7850647 C108.4568751 40.79875444 104.88275963 40.79343297 101.30838013 40.78392744 C97.5701629 40.77633936 93.83196809 40.78337408 90.09375 40.78808594 C83.81571458 40.79354599 77.53778498 40.78634539 71.25976562 40.77206421 C63.99845651 40.75573714 56.73740009 40.76102548 49.47609711 40.77754343 C43.24502141 40.79115124 37.01402185 40.79308143 30.7829361 40.78522742 C27.05991981 40.78054699 23.33702235 40.7799361 19.61401367 40.78983688 C15.4645284 40.80010074 11.31547971 40.78588072 7.16601562 40.76913452 C5.92851563 40.77520721 4.69101563 40.78127991 3.41601562 40.78753662 C2.28873047 40.77907715 1.16144531 40.77061768 0 40.76190186 C-1.47225037 40.76020524 -1.47225037 40.76020524 -2.97424316 40.75847435 C-5.42773438 40.38095093 -5.42773438 40.38095093 -7.2427063 39.0705204 C-9.21914056 36.25259308 -8.85420636 33.0743417 -8.82617188 29.75595093 C-8.82904205 29.01264526 -8.83191223 28.2693396 -8.83486938 27.50350952 C-8.83690914 25.93335202 -8.83138538 24.36316907 -8.81884766 22.7930603 C-8.8027914 20.38948761 -8.81869789 17.98759632 -8.83789062 15.58407593 C-8.83590818 14.05803055 -8.83206446 12.53198622 -8.82617188 11.00595093 C-8.83528091 9.92773071 -8.83528091 9.92773071 -8.84457397 8.82772827 C-8.77476368 3.87573256 -8.77476368 3.87573256 -7.2427063 1.69138145 C-4.74870582 -0.10931547 -3.0634876 0.00353035 0 0 Z " fill="#040404" transform="translate(114.427734375,268.6190490722656)"/>
<path d="M0 0 C116.82 0 233.64 0 354 0 C354 127.05 354 254.1 354 385 C237.18 385 120.36 385 0 385 C0 257.95 0 130.9 0 0 Z M1 4 C1 129.4 1 254.8 1 384 C116.5 384 232 384 351 384 C351 258.6 351 133.2 351 4 C235.5 4 120 4 1 4 Z " fill="#636165" transform="translate(0,0)"/>
<path d="M0 0 C2.4012928 -0.36914349 2.4012928 -0.36914349 5.47952271 -0.36076355 C6.64342529 -0.36488754 7.80732788 -0.36901154 9.00650024 -0.3732605 C10.28971161 -0.36247467 11.57292297 -0.35168884 12.89501953 -0.34057617 C14.25490297 -0.33973029 15.61478777 -0.34020428 16.97467041 -0.34190369 C20.67290043 -0.3427666 24.37084023 -0.32509331 28.06900263 -0.30418181 C31.93139339 -0.2854641 35.79379036 -0.28366846 39.65621948 -0.28010559 C46.97315609 -0.27077065 54.28995868 -0.24613738 61.6068362 -0.21605712 C69.93560485 -0.18255807 78.2643798 -0.16603844 86.59319901 -0.15097082 C103.72887694 -0.119589 120.86442431 -0.06680049 138 0 C138 0.33 138 0.66 138 1 C136.96686519 1.00496522 136.96686519 1.00496522 135.91285896 1.01003075 C119.17160745 1.09117009 102.43045555 1.18323246 85.68933296 1.28752708 C77.59352645 1.33769793 69.49773029 1.38414021 61.40185547 1.421875 C54.34737905 1.45476522 47.29298196 1.49457978 40.23859298 1.54279006 C36.50163658 1.56808476 32.764733 1.58985711 29.02771378 1.60334396 C24.86097012 1.6185112 20.69448025 1.64913404 16.52783203 1.68115234 C15.28202362 1.68331253 14.03621521 1.68547272 12.75265503 1.68769836 C11.05728607 1.70444359 11.05728607 1.70444359 9.32766724 1.7215271 C8.34134874 1.72705786 7.35503025 1.73258862 6.33882332 1.73828697 C3.80887266 1.77506945 3.80887266 1.77506945 2 4 C1.8004303 6.55750453 1.72013174 9.00438141 1.734375 11.5625 C1.73246155 12.30959229 1.7305481 13.05668457 1.72857666 13.82641602 C1.72721502 15.40674171 1.73091 16.98707858 1.73925781 18.56738281 C1.749958 20.99048922 1.73936221 23.41285423 1.7265625 25.8359375 C1.7278841 27.36979331 1.7304465 28.90364865 1.734375 30.4375 C1.73032654 31.16461182 1.72627808 31.89172363 1.72210693 32.64086914 C1.63268498 36.77469633 1.63268498 36.77469633 4 40 C6.43607159 40.30466546 6.43607159 40.30466546 9.31420898 40.25396729 C10.44156464 40.25960693 11.56892029 40.26524658 12.73043823 40.27105713 C13.97310455 40.26700867 15.21577087 40.26296021 16.49609375 40.25878906 C17.80015167 40.2622937 19.10420959 40.26579834 20.44778442 40.26940918 C24.03036825 40.27854644 27.61283722 40.27498348 31.19542313 40.26865101 C34.93944871 40.2635979 38.68346427 40.26828054 42.42749023 40.27142334 C48.71567557 40.275065 55.00381397 40.27025866 61.29199219 40.26074219 C68.56858932 40.24985723 75.8450744 40.25338267 83.12166882 40.264395 C89.36203822 40.27346219 95.60237383 40.27475595 101.84274769 40.26951766 C105.5729894 40.26639482 109.30317839 40.26599718 113.03341675 40.27259064 C117.19031443 40.27942461 121.34701801 40.26996065 125.50390625 40.25878906 C127.36790573 40.26486176 127.36790573 40.26486176 129.26956177 40.27105713 C130.39691742 40.26541748 131.52427307 40.25977783 132.68579102 40.25396729 C133.66951187 40.25321323 134.65323273 40.25245918 135.66676331 40.25168228 C138.192116 40.22601337 138.192116 40.22601337 140 38 C140.24529581 35.42420615 140.37341793 32.94770993 140.4140625 30.3671875 C140.43342865 29.61535187 140.4527948 28.86351624 140.4727478 28.08889771 C140.53259147 25.68438101 140.57894726 23.27981656 140.625 20.875 C140.66317546 19.24607272 140.70222693 17.61716572 140.7421875 15.98828125 C140.83829666 11.99235194 140.92230941 7.99632813 141 4 C141.66 4 142.32 4 143 4 C143.0741205 9.35682133 143.12858776 14.71334462 143.16479492 20.07055664 C143.1798876 21.89320067 143.20036395 23.71580836 143.22631836 25.53833008 C143.26268103 28.157155 143.27972124 30.77550007 143.29296875 33.39453125 C143.30845261 34.21025101 143.32393646 35.02597076 143.33988953 35.8664093 C143.34156837 41.50146248 143.34156837 41.50146248 141.82464504 43.71549416 C139.29709329 45.49482927 137.5444015 45.37747608 134.46510315 45.38095093 C133.31402069 45.3894104 132.16293823 45.39786987 130.97697449 45.40658569 C129.71299332 45.400513 128.44901215 45.39444031 127.14672852 45.38818359 C125.80303521 45.39224841 124.45934524 45.39758979 123.11566162 45.40411377 C119.46477753 45.41780536 115.8141474 45.41248092 112.16325879 45.40297651 C108.34409726 45.39538783 104.52495766 45.40242346 100.70579529 45.40713501 C94.29072156 45.41259555 87.87575138 45.40539388 81.46069336 45.39111328 C74.04376372 45.37479308 66.62708155 45.38006938 59.21015793 45.3965925 C52.84403635 45.41020722 46.47798927 45.4121269 40.11185783 45.40427649 C36.30888592 45.39959898 32.50603031 45.39897705 28.70306587 45.40888596 C25.12677559 45.41755296 21.55080418 45.4115389 17.97454834 45.39420319 C16.03588804 45.38834443 14.09720078 45.39725669 12.15855408 45.40658569 C11.00465179 45.39812622 9.85074951 45.38966675 8.66188049 45.38095093 C7.65917901 45.37981985 6.65647753 45.37868877 5.62339115 45.37752342 C2.55916969 44.93656159 1.20461521 44.14662755 -1 42 C-2.24000784 38.27997648 -2.16231369 34.81262536 -2.16796875 30.9375 C-2.17129715 30.14980225 -2.17462555 29.36210449 -2.17805481 28.55053711 C-2.18311407 26.8862364 -2.18546344 25.22192557 -2.18530273 23.55761719 C-2.18749176 21.00959639 -2.20566464 18.46200685 -2.22460938 15.9140625 C-2.22754298 14.29687648 -2.229528 12.67968841 -2.23046875 11.0625 C-2.23765427 10.29993896 -2.24483978 9.53737793 -2.25224304 8.75170898 C-2.23582402 4.95818889 -2.15690285 3.23535427 0 0 Z " fill="#59555E" transform="translate(105,268)"/>
<path d="M0 0 C84.48 0 168.96 0 256 0 C256 1.65 256 3.3 256 5 C255.07217146 4.51264893 255.07217146 4.51264893 254.12559891 4.01545238 C249.72045276 2.58429749 245.59448007 2.72782653 240.99041748 2.75276184 C239.97412994 2.75034743 238.95784239 2.74793301 237.91075826 2.74544543 C234.50131277 2.73980426 231.09205429 2.74847475 227.68261719 2.75708008 C225.240183 2.75600733 222.79774905 2.75406875 220.35531616 2.75132751 C214.40861908 2.74697987 208.46199537 2.75192212 202.5153093 2.76117782 C195.59420717 2.77156315 188.67311705 2.77149161 181.75200859 2.77100524 C169.40822834 2.77050475 157.06447402 2.77966372 144.72070312 2.79418945 C132.73306811 2.80828885 120.74545591 2.8153597 108.7578125 2.81469727 C107.64946868 2.81463733 107.64946868 2.81463733 106.51873407 2.81457619 C105.78113435 2.81453583 105.04353463 2.81449548 104.2835834 2.8144539 C90.64536714 2.81376488 77.0071606 2.81964777 63.36894749 2.82860712 C58.53979555 2.8316283 53.71064539 2.83268723 48.88149261 2.83313942 C42.39071873 2.83389096 35.89996589 2.840215 29.40919876 2.85030556 C27.01980614 2.8532387 24.63041074 2.85445429 22.24101639 2.85387802 C18.99453413 2.85339112 15.74812067 2.85900533 12.50164795 2.86628723 C11.06370034 2.86396433 11.06370034 2.86396433 9.59670329 2.8615945 C5.47287971 2.45429255 5.47287971 2.45429255 2 4 C1.90603943 5.93306498 1.88256483 7.86958838 1.88647461 9.80493164 C1.88655014 11.04614273 1.88662567 12.28735382 1.88670349 13.56617737 C1.89181089 14.9308374 1.8970269 16.29549702 1.90234375 17.66015625 C1.904208 19.04878183 1.90563187 20.43740807 1.90663147 21.82603455 C1.91045613 25.48721115 1.92028597 29.1483483 1.93133545 32.80950928 C1.94155068 36.54292263 1.94612933 40.27634234 1.95117188 44.00976562 C1.96190829 51.33986177 1.97898409 58.66992536 2 66 C1.34 66 0.68 66 0 66 C0 44.22 0 22.44 0 0 Z " fill="#424242" transform="translate(48,46)"/>
<path d="M0 0 C0.33 0 0.66 0 1 0 C1.01981934 1.0194873 1.03963867 2.03897461 1.06005859 3.08935547 C1.13602808 6.86532648 1.22475809 10.64090773 1.31738281 14.41650391 C1.35570852 16.0518424 1.39055507 17.68726624 1.421875 19.32275391 C1.46744842 21.6712091 1.52545367 24.01907495 1.5859375 26.3671875 C1.59748871 27.10057343 1.60903992 27.83395935 1.62094116 28.58956909 C1.61868097 32.74977105 1.61868097 32.74977105 4 36 C6.43607159 36.30466546 6.43607159 36.30466546 9.31420898 36.25396729 C10.44156464 36.25960693 11.56892029 36.26524658 12.73043823 36.27105713 C13.97310455 36.26700867 15.21577087 36.26296021 16.49609375 36.25878906 C17.80015167 36.2622937 19.10420959 36.26579834 20.44778442 36.26940918 C24.03036825 36.27854644 27.61283722 36.27498348 31.19542313 36.26865101 C34.93944871 36.2635979 38.68346427 36.26828054 42.42749023 36.27142334 C48.71567557 36.275065 55.00381397 36.27025866 61.29199219 36.26074219 C68.56858932 36.24985723 75.8450744 36.25338267 83.12166882 36.264395 C89.36203822 36.27346219 95.60237383 36.27475595 101.84274769 36.26951766 C105.5729894 36.26639482 109.30317839 36.26599718 113.03341675 36.27259064 C117.19031443 36.27942461 121.34701801 36.26996065 125.50390625 36.25878906 C127.36790573 36.26486176 127.36790573 36.26486176 129.26956177 36.27105713 C130.39691742 36.26541748 131.52427307 36.25977783 132.68579102 36.25396729 C133.66951187 36.25321323 134.65323273 36.25245918 135.66676331 36.25168228 C138.192116 36.22601337 138.192116 36.22601337 140 34 C140.24529581 31.42420615 140.37341793 28.94770993 140.4140625 26.3671875 C140.43342865 25.61535187 140.4527948 24.86351624 140.4727478 24.08889771 C140.53259147 21.68438101 140.57894726 19.27981656 140.625 16.875 C140.66317546 15.24607272 140.70222693 13.61716572 140.7421875 11.98828125 C140.83829666 7.99235194 140.92230941 3.99632813 141 0 C141.66 0 142.32 0 143 0 C143.07424001 4.91126203 143.12864411 9.82219634 143.16479492 14.73388672 C143.17986754 16.40419201 143.2003292 18.07445781 143.22631836 19.74462891 C143.26276973 22.14756013 143.27974131 24.54996744 143.29296875 26.953125 C143.30845261 27.69806213 143.32393646 28.44299927 143.33988953 29.21051025 C143.34086144 32.21481689 143.25635559 34.52045482 141.82506561 37.19786167 C139.34024728 39.65146462 137.91630109 39.50048437 134.45837402 39.50120544 C133.30584641 39.51103958 132.15331879 39.52087372 130.96586609 39.53100586 C129.70031387 39.52133789 128.43476166 39.51166992 127.13085938 39.50170898 C125.78554214 39.5054917 124.4402288 39.51099136 123.09492493 39.51808167 C119.43989387 39.53206011 115.78533228 39.52085022 112.13032722 39.50437045 C108.30803164 39.49053493 104.48576373 39.49697831 100.66345215 39.50050354 C94.2441449 39.50320686 87.82502451 39.48971972 81.40576172 39.46655273 C73.98085045 39.43994211 66.55625164 39.43819537 59.13130903 39.4499411 C51.99308233 39.46071491 44.85496881 39.45453497 37.7167511 39.44038582 C34.67691884 39.43462253 31.63716931 39.43471136 28.59733582 39.43945122 C25.0185681 39.44421853 21.44014315 39.43413005 17.86144066 39.41249657 C15.91902175 39.40426414 13.97655798 39.41078477 12.03413391 39.41769409 C10.88160629 39.40778946 9.72907867 39.39788483 8.54162598 39.38768005 C7.03619106 39.38403521 7.03619106 39.38403521 5.50034332 39.38031673 C3 39 3 39 1.17493439 37.70359898 C-0.86202779 34.75010071 -0.36233454 31.29037255 -0.29296875 27.83203125 C-0.28872391 27.03721848 -0.28447906 26.2424057 -0.28010559 25.42350769 C-0.2633193 22.88615979 -0.22566824 20.34960762 -0.1875 17.8125 C-0.17245305 16.09180835 -0.15876466 14.37110424 -0.14648438 12.65039062 C-0.11341607 8.43328738 -0.06163495 4.21677858 0 0 Z " fill="#979797" transform="translate(105,272)"/>
<path d="M0 0 C2.31 0 4.62 0 7 0 C8.32 3.63 9.64 7.26 11 11 C12.32 7.37 13.64 3.74 15 0 C17.64 0 20.28 0 23 0 C23 7.59 23 15.18 23 23 C21.35 23 19.7 23 18 23 C17.505 16.565 17.505 16.565 17 10 C16.01 14.29 15.02 18.58 14 23 C12.35 23 10.7 23 9 23 C8.01 19.37 7.02 15.74 6 12 C5.67 15.63 5.34 19.26 5 23 C3.35 23 1.7 23 0 23 C0 15.41 0 7.82 0 0 Z " fill="#F6F5EF" transform="translate(225,67)"/>
<path d="M0 0 C3.0625 2.375 3.0625 2.375 5 5 C5 5.66 5 6.32 5 7 C2.6875 7.6875 2.6875 7.6875 0 8 C-1 7 -2 6 -3 5 C-6.31818985 5.24205349 -6.31818985 5.24205349 -9 7 C-9.19941868 9.06772734 -9.19941868 9.06772734 -9.1875 11.4375 C-9.20167969 12.24058594 -9.21585937 13.04367188 -9.23046875 13.87109375 C-9.20162356 16.21630633 -9.20162356 16.21630633 -7 18 C-3.91652174 18.16681109 -3.91652174 18.16681109 -1 18 C-0.67 16.68 -0.34 15.36 0 14 C2.475 14.495 2.475 14.495 5 15 C4.12269491 17.70502403 3.28331029 19.68400006 1.375 21.8125 C-2.0574817 23.52874085 -5.28528802 23.68545281 -9 23 C-11.8100346 21.20636089 -13.50940468 19.98119065 -15 17 C-15.51124099 11.79539913 -15.86132441 7.43554069 -13.125 2.875 C-9.13869745 -0.64232578 -5.15380938 -0.8175008 0 0 Z " fill="#F1F4F4" transform="translate(95,67)"/>
<path d="M0 0 C2.19490305 1.84371856 2.27010214 3.53472034 2.5625 6.3125 C1.2425 6.6425 -0.0775 6.9725 -1.4375 7.3125 C-1.7675 6.3225 -2.0975 5.3325 -2.4375 4.3125 C-5.35402174 4.14568891 -5.35402174 4.14568891 -8.4375 4.3125 C-10.62689909 6.09357249 -10.62689909 6.09357249 -10.703125 8.40625 C-10.69796875 9.2003125 -10.6928125 9.994375 -10.6875 10.8125 C-10.69265625 11.6065625 -10.6978125 12.400625 -10.703125 13.21875 C-10.62689909 15.53142751 -10.62689909 15.53142751 -8.4375 17.3125 C-5.89798456 17.22138062 -5.89798456 17.22138062 -3.4375 16.3125 C-2.7775 15.3225 -2.1175 14.3325 -1.4375 13.3125 C1.0375 13.8075 1.0375 13.8075 3.5625 14.3125 C2.68519491 17.01752403 1.84581029 18.99650006 -0.0625 21.125 C-3.4949817 22.84124085 -6.72278802 22.99795281 -10.4375 22.3125 C-13.2475346 20.51886089 -14.94690468 19.29369065 -16.4375 16.3125 C-16.94874099 11.10789913 -17.29882441 6.74804069 -14.5625 2.1875 C-10.30194038 -1.57181731 -5.29709628 -1.4940528 0 0 Z " fill="#F3F4F4" transform="translate(267.4375,67.6875)"/>
<path d="M0 0 C0.78503906 0.00515625 1.57007812 0.0103125 2.37890625 0.015625 C3.55259766 0.00789063 3.55259766 0.00789063 4.75 0 C6.94140625 0.265625 6.94140625 0.265625 9.94140625 2.265625 C10.325519 4.875246 10.54433822 7.2714324 10.62890625 9.890625 C10.68014648 10.95023438 10.68014648 10.95023438 10.73242188 12.03125 C10.81491933 13.77548188 10.8798396 15.52052895 10.94140625 17.265625 C8.64999339 17.31947021 6.35822437 17.35834587 4.06640625 17.390625 C2.79023437 17.41382812 1.5140625 17.43703125 0.19921875 17.4609375 C-3.05859375 17.265625 -3.05859375 17.265625 -5.05859375 15.265625 C-5.18359375 12.140625 -5.18359375 12.140625 -5.05859375 9.265625 C1.56640625 6.265625 1.56640625 6.265625 4.94140625 6.265625 C4.61140625 5.605625 4.28140625 4.945625 3.94140625 4.265625 C1.30140625 4.595625 -1.33859375 4.925625 -4.05859375 5.265625 C-4.05859375 1.77554342 -3.61565506 0.46653614 0 0 Z " fill="#F1F0EE" transform="translate(108.05859375,72.734375)"/>
<path d="M0 0 C0.7940625 -0.01417969 1.588125 -0.02835937 2.40625 -0.04296875 C4.5 0.1875 4.5 0.1875 6.5 2.1875 C6.80599063 4.75666657 7.01087087 7.23508384 7.125 9.8125 C7.16367188 10.51890625 7.20234375 11.2253125 7.2421875 11.953125 C7.33647724 13.69748524 7.41932891 15.44245691 7.5 17.1875 C5.39646505 17.2685206 3.29204048 17.32669907 1.1875 17.375 C0.01574219 17.40980469 -1.15601563 17.44460937 -2.36328125 17.48046875 C-5.5 17.1875 -5.5 17.1875 -7.41015625 15.83203125 C-8.5 14.1875 -8.5 14.1875 -8.625 11.6875 C-7.5 9.1875 -7.5 9.1875 -4.0625 7.375 C-0.5 6.1875 -0.5 6.1875 1.5 6.1875 C1.5 5.1975 1.5 4.2075 1.5 3.1875 C0.18 3.1875 -1.14 3.1875 -2.5 3.1875 C-2.5 3.8475 -2.5 4.5075 -2.5 5.1875 C-4.15 4.8575 -5.8 4.5275 -7.5 4.1875 C-7.17 3.1975 -6.84 2.2075 -6.5 1.1875 C-4.14653604 0.01076802 -2.6193967 0.02126134 0 0 Z " fill="#EEF3F6" transform="translate(183.5,72.8125)"/>
<path d="M0 0 C17.68034281 -0.09337705 35.36062176 -0.16394657 53.04115772 -0.20724869 C61.25025988 -0.22788765 69.45920897 -0.25603352 77.66821289 -0.30175781 C84.82189381 -0.341585 91.97546391 -0.36742311 99.12925261 -0.37635398 C102.91836272 -0.38157579 106.7071557 -0.39387604 110.49616432 -0.42292023 C114.06092149 -0.45002464 117.62523022 -0.45845531 121.19008064 -0.45243073 C123.12544592 -0.45405981 125.0607621 -0.47560868 126.9960022 -0.49768066 C128.14445114 -0.49218201 129.29290009 -0.48668335 130.47615051 -0.48101807 C131.4762959 -0.48470524 132.47644129 -0.48839241 133.50689411 -0.49219131 C136 0 136 0 137.82395458 1.80087662 C139.59641754 5.11525945 139.36907513 8.38535394 139.29296875 12.046875 C139.28872391 12.81807678 139.28447906 13.58927856 139.28010559 14.3838501 C139.26335383 16.83959315 139.22570939 19.29450629 139.1875 21.75 C139.17244857 23.41795687 139.15876097 25.08592665 139.14648438 26.75390625 C139.11346194 30.83625578 139.06170484 34.91798732 139 39 C138.67 39 138.34 39 138 39 C138 27.78 138 16.56 138 5 C136.02 4.505 136.02 4.505 134 4 C133.67 3.01 133.34 2.02 133 1 C89.11 1 45.22 1 0 1 C0 0.67 0 0.34 0 0 Z " fill="#474747" transform="translate(110,267)"/>
<path d="M0 0 C1.65 0 3.3 0 5 0 C5.33 4.29 5.66 8.58 6 13 C7.32 12.67 8.64 12.34 10 12 C10.33 8.04 10.66 4.08 11 0 C12.65 0 14.3 0 16 0 C16 5.61 16 11.22 16 17 C3.6577274 17.36660216 3.6577274 17.36660216 1.09375 15.9375 C-0.60916645 12.92090515 -0.28165968 10.23363509 -0.1875 6.8125 C-0.16042969 5.54019531 -0.13335937 4.26789063 -0.10546875 2.95703125 C-0.07066406 1.98121094 -0.03585938 1.00539063 0 0 Z " fill="#EEF3F3" transform="translate(148,73)"/>
<path d="M0 0 C2 1.5 2 1.5 3 3 C2.67 3.99 2.34 4.98 2 6 C0.68 6 -0.64 6 -2 6 C-2.33 5.34 -2.66 4.68 -3 4 C-3.99 4 -4.98 4 -6 4 C-6 6.97 -6 9.94 -6 13 C-5.01 13 -4.02 13 -3 13 C-2.67 12.34 -2.34 11.68 -2 11 C-0.35 11 1.3 11 3 11 C2.42655063 13.86724686 2.1385485 14.8614515 0 17 C-6.84753902 17.66266507 -6.84753902 17.66266507 -10.5 15.5625 C-12.73570183 11.74317604 -12.76004105 8.31481639 -12 4 C-9.05659455 -1.02831764 -5.29859986 -0.58873332 0 0 Z " fill="#EDEFEE" transform="translate(142,73)"/>
<path d="M0 0 C-0.33 0.99 -0.66 1.98 -1 3 C-1.66 3 -2.32 3 -3 3 C-3 2.34 -3 1.68 -3 1 C-3.99 1.33 -4.98 1.66 -6 2 C-6 3.98 -6 5.96 -6 8 C-5.01 8.33 -4.02 8.66 -3 9 C-3 8.34 -3 7.68 -3 7 C-2.21625 6.855625 -1.4325 6.71125 -0.625 6.5625 C1.96421018 6.12201075 1.96421018 6.12201075 4 5 C3.34 5 2.68 5 2 5 C2.33 4.01 2.66 3.02 3 2 C4.66611905 1.957279 6.33382885 1.95936168 8 2 C9 3 9 3 9.09765625 4.84765625 C9.06510417 6.8984375 9.03255208 8.94921875 9 11 C2.25 11.125 2.25 11.125 0 10 C-1.134375 10.20625 -2.26875 10.4125 -3.4375 10.625 C-7 11 -7 11 -8.9375 9.9375 C-10.47555213 7.13281671 -10.39310741 5.14485925 -10 2 C-7.64463991 -2.2950684 -4.23605512 -0.87918125 0 0 Z " fill="#E7E7E7" transform="translate(155,283)"/>
<path d="M0 0 C1.65 0 3.3 0 5 0 C5 7.59 5 15.18 5 23 C3.35 23 1.7 23 0 23 C0 15.41 0 7.82 0 0 Z " fill="#F6F4EB" transform="translate(216,67)"/>
<path d="M0 0 C1.65 0 3.3 0 5 0 C5 7.59 5 15.18 5 23 C3.35 23 1.7 23 0 23 C0 15.41 0 7.82 0 0 Z " fill="#F4F5F1" transform="translate(168,67)"/>
<path d="M0 0 C1.65 0 3.3 0 5 0 C5 7.59 5 15.18 5 23 C3.35 23 1.7 23 0 23 C0 15.41 0 7.82 0 0 Z " fill="#F6EEDB" transform="translate(122,67)"/>
<path d="M0 0 C3.3 0 6.6 0 10 0 C10 0.99 10 1.98 10 3 C8.35 3.66 6.7 4.32 5 5 C4.67 8.96 4.34 12.92 4 17 C2.68 17 1.36 17 0 17 C0 11.39 0 5.78 0 0 Z " fill="#FCFBF6" transform="translate(195,73)"/>
<path d="M0 0 C0.66 0 1.32 0 2 0 C2.07424001 4.91126203 2.12864411 9.82219634 2.16479492 14.73388672 C2.17986754 16.40419201 2.2003292 18.07445781 2.22631836 19.74462891 C2.26276973 22.14756013 2.27974131 24.54996744 2.29296875 26.953125 C2.30845261 27.69806213 2.32393646 28.44299927 2.33988953 29.21051025 C2.34125473 33.43052156 2.02302019 35.94559898 -1 39 C-1.66 38.67 -2.32 38.34 -3 38 C-2.67854004 37.50145508 -2.35708008 37.00291016 -2.02587891 36.48925781 C-0.62240115 33.08377013 -0.64390763 29.80059295 -0.5859375 26.171875 C-0.56657135 25.42286926 -0.5472052 24.67386353 -0.5272522 23.90216064 C-0.46764284 21.51822164 -0.42114646 19.13423386 -0.375 16.75 C-0.33680299 15.13018769 -0.29775025 13.51039532 -0.2578125 11.890625 C-0.16195687 7.92724594 -0.07785754 3.96377181 0 0 Z " fill="#6E6E6E" transform="translate(246,272)"/>
<path d="M0 0 C8.25 0 8.25 0 12 1 C12 3.64 12 6.28 12 9 C10.68 9.33 9.36 9.66 8 10 C7.34 8.02 6.68 6.04 6 4 C4.02 6.97 4.02 6.97 2 10 C0.7922442 6.37673261 1.45688872 5.35853631 3 2 C2.01 1.34 1.02 0.68 0 0 Z " fill="#958191" transform="translate(160,164)"/>
<path d="M0 0 C1.99954746 -0.04254356 4.00041636 -0.04080783 6 0 C7 1 7 1 7.09765625 2.84765625 C7.04882812 5.92382812 7.04882812 5.92382812 7 9 C4.69 9 2.38 9 0 9 C-0.84454356 5.62182575 -1.10844919 3.32534757 0 0 Z " fill="#D2D2D2" transform="translate(194,285)"/>
<path d="M0 0 C0.66 0.33 1.32 0.66 2 1 C1.814375 1.61875 1.62875 2.2375 1.4375 2.875 C0.76313824 5.04160178 0.76313824 5.04160178 2 7 C0.68 7 -0.64 7 -2 7 C-3.04220703 7.01740234 -3.04220703 7.01740234 -4.10546875 7.03515625 C-6.07017802 7.06095919 -8.03538528 7.0322068 -10 7 C-11 6 -11 6 -11.0625 3.4375 C-11.041875 2.633125 -11.02125 1.82875 -11 1 C-10.67 1.66 -10.34 2.32 -10 3 C-9.01 3 -8.02 3 -7 3 C-6.67 2.34 -6.34 1.68 -6 1 C-4 0 -4 0 0 0 Z " fill="#B3AFB3" transform="translate(138,167)"/>
<path d="M0 0 C0.99 0 1.98 0 3 0 C3 2.31 3 4.62 3 7 C3.66 7 4.32 7 5 7 C5 4.69 5 2.38 5 0 C5.99 0 6.98 0 8 0 C8 2.97 8 5.94 8 9 C5.66705225 9.04241723 3.33297433 9.04092937 1 9 C0 8 0 8 -0.09765625 6.15234375 C-0.06510417 4.1015625 -0.03255208 2.05078125 0 0 Z " fill="#E4E4E4" transform="translate(179,285)"/>
<path d="M0 0 C1.32 0 2.64 0 4 0 C3.34 1.32 2.68 2.64 2 4 C1.01 4 0.02 4 -1 4 C-1 15.55 -1 27.1 -1 39 C-1.33 39 -1.66 39 -2 39 C-2.04942365 33.927993 -2.08573068 28.85612606 -2.10986328 23.78393555 C-2.11992326 22.05832477 -2.13357276 20.33273105 -2.15087891 18.60717773 C-2.17512754 16.1273986 -2.18648301 13.64784477 -2.1953125 11.16796875 C-2.20563507 10.39599655 -2.21595764 9.62402435 -2.22659302 8.82865906 C-2.22739422 5.00718524 -2.17242595 3.25863893 0 0 Z " fill="#474647" transform="translate(105,268)"/>
<path d="M0 0 C0.33 0 0.66 0 1 0 C1.01981934 1.00901367 1.03963867 2.01802734 1.06005859 3.05761719 C1.13623336 6.80754196 1.22493216 10.55708471 1.31738281 14.30664062 C1.35562358 15.92830859 1.39048503 17.55005996 1.421875 19.171875 C1.46763257 21.50551117 1.52560816 23.83857562 1.5859375 26.171875 C1.59748871 26.89493835 1.60903992 27.61800171 1.62094116 28.36297607 C1.76052403 33.50434652 1.76052403 33.50434652 4 38 C4.99 38.33 5.98 38.66 7 39 C2.25 38.25 2.25 38.25 0 36 C-0.17517747 33.27514272 -0.23149133 30.65340638 -0.1953125 27.9296875 C-0.1924826 27.13345978 -0.18965271 26.33723206 -0.18673706 25.51687622 C-0.1755264 22.96943237 -0.15042062 20.42233789 -0.125 17.875 C-0.11497133 16.14974465 -0.10584528 14.42448381 -0.09765625 12.69921875 C-0.07558422 8.46601086 -0.04104867 4.2330647 0 0 Z " fill="#7D7D7D" transform="translate(105,272)"/>
<path d="M0 0 C0.33 0.66 0.66 1.32 1 2 C-0.65 1.67 -2.3 1.34 -4 1 C-4 2.65 -4 4.3 -4 6 C-2.35 5.67 -0.7 5.34 1 5 C0.67 5.99 0.34 6.98 0 8 C-2.31 7.67 -4.62 7.34 -7 7 C-7 4.69 -7 2.38 -7 0 C-4.30234372 -1.34882814 -2.84835666 -0.80338265 0 0 Z " fill="#D5D5D5" transform="translate(177,286)"/>
<path d="M0 0 C1.66611905 -0.042721 3.33382885 -0.04063832 5 0 C6 1 6 1 6.09765625 2.84765625 C6.06510417 4.8984375 6.03255208 6.94921875 6 9 C4.68 8.34 3.36 7.68 2 7 C2.33 6.34 2.66 5.68 3 5 C2.34 5 1.68 5 1 5 C0.67 5.66 0.34 6.32 0 7 C-0.33 6.01 -0.66 5.02 -1 4 C-0.34 3.67 0.32 3.34 1 3 C0.34 3 -0.32 3 -1 3 C-0.67 2.01 -0.34 1.02 0 0 Z " fill="#F1F1F1" transform="translate(158,285)"/>
<path d="M0 0 C0.99 0 1.98 0 3 0 C3 3.96 3 7.92 3 12 C2.01 12 1.02 12 0 12 C0 8.04 0 4.08 0 0 Z " fill="#D9D9D9" transform="translate(189,282)"/>
<path d="M0 0 C0.99 0 1.98 0 3 0 C3 3.96 3 7.92 3 12 C2.01 12 1.02 12 0 12 C0 8.04 0 4.08 0 0 Z " fill="#D9D9D9" transform="translate(166,282)"/>
<path d="M0 0 C0 1.65 0 3.3 0 5 C-1.875 5.625 -1.875 5.625 -4 6 C-4.66 5.34 -5.32 4.68 -6 4 C-6 2.68 -6 1.36 -6 0 C-3.50907189 -1.24546405 -2.58919267 -0.7767578 0 0 Z " fill="#B5B4B8" transform="translate(117,228)"/>
<path d="M0 0 C1.98 0 3.96 0 6 0 C6 0.66 6 1.32 6 2 C5.01 2.495 5.01 2.495 4 3 C3.34227572 6.02934491 3.34227572 6.02934491 3 9 C2.01 9 1.02 9 0 9 C0 6.03 0 3.06 0 0 Z " fill="#E4E4E4" transform="translate(202,285)"/>
<path d="M0 0 C0.66 0 1.32 0 2 0 C5.125 6.625 5.125 6.625 4 10 C3.67 9.01 3.34 8.02 3 7 C1.35 7 -0.3 7 -2 7 C-1.125 2.25 -1.125 2.25 0 0 Z " fill="#A6A5AD" transform="translate(91,164)"/>
<path d="M0 0 C0 0.99 0 1.98 0 3 C-1.32 3 -2.64 3 -4 3 C-4 3.66 -4 4.32 -4 5 C-2.68 4.67 -1.36 4.34 0 4 C-0.33 4.66 -0.66 5.32 -1 6 C-2.32 6 -3.64 6 -5 6 C-5.33 4.02 -5.66 2.04 -6 0 C-3.50907189 -1.24546405 -2.58919267 -0.7767578 0 0 Z " fill="#A49FA1" transform="translate(128,228)"/>
<path d="M0 0 C0 0.99 0 1.98 0 3 C-1.32 3 -2.64 3 -4 3 C-4 3.66 -4 4.32 -4 5 C-2.68 4.67 -1.36 4.34 0 4 C-0.33 4.66 -0.66 5.32 -1 6 C-2.32 6 -3.64 6 -5 6 C-5.33 4.02 -5.66 2.04 -6 0 C-3.50907189 -1.24546405 -2.58919267 -0.7767578 0 0 Z " fill="#A49FA1" transform="translate(103,228)"/>
<path d="M0 0 C1.98 0 3.96 0 6 0 C4.68 0.33 3.36 0.66 2 1 C2 2.32 2 3.64 2 5 C3.32 5.33 4.64 5.66 6 6 C4.68 6 3.36 6 2 6 C2 7.32 2 8.64 2 10 C1.34 10 0.68 10 0 10 C0 6.7 0 3.4 0 0 Z " fill="#9E9491" transform="translate(88,224)"/>
<path d="M0 0 C1.32 0 2.64 0 4 0 C4 2.31 4 4.62 4 7 C2.35 7 0.7 7 -1 7 C-1 5.68 -1 4.36 -1 3 C0.32 3 1.64 3 3 3 C3 2.34 3 1.68 3 1 C1.68 1.33 0.36 1.66 -1 2 C-0.67 1.34 -0.34 0.68 0 0 Z " fill="#9D999C" transform="translate(117,167)"/>
<path d="M0 0 C3 0 6 0 9 0 C9 1.32 9 2.64 9 4 C7.6078125 3.7215625 7.6078125 3.7215625 6.1875 3.4375 C2.98656229 2.75876119 2.98656229 2.75876119 0 4 C0 2.68 0 1.36 0 0 Z " fill="#BFBFBF" transform="translate(152,290)"/>
<path d="M0 0 C0.99 0 1.98 0 3 0 C3 2.97 3 5.94 3 9 C2.01 8.67 1.02 8.34 0 8 C0 5.36 0 2.72 0 0 Z " fill="#DCDCDC" transform="translate(184,285)"/>
<path d="M0 0 C1.98 0 3.96 0 6 0 C6.33 0.99 6.66 1.98 7 3 C5.17805188 5.57585768 3.22875556 7.77124444 1 10 C1.875 3.125 1.875 3.125 3 2 C2.01 1.34 1.02 0.68 0 0 Z " fill="#A8ACB8" transform="translate(160,164)"/>
<path d="M0 0 C1.98 0 3.96 0 6 0 C6 1.65 6 3.3 6 5 C4.02 5 2.04 5 0 5 C0 3.35 0 1.7 0 0 Z " fill="#080808" transform="translate(173,287)"/>
<path d="M0 0 C0.66 0 1.32 0 2 0 C2 3.3 2 6.6 2 10 C1.34 10 0.68 10 0 10 C0 7.69 0 5.38 0 3 C-0.66 2.67 -1.32 2.34 -2 2 C-1.34 1.34 -0.68 0.68 0 0 Z " fill="#A0A0A9" transform="translate(151,164)"/>
<path d="M0 0 C1.65 0 3.3 0 5 0 C5 1.32 5 2.64 5 4 C3.35 4 1.7 4 0 4 C0 2.68 0 1.36 0 0 Z " fill="#DDDDDB" transform="translate(90,225)"/>
<path d="M0 0 C0.99 0.33 1.98 0.66 3 1 C3 2.98 3 4.96 3 7 C2.01 7 1.02 7 0 7 C0 4.69 0 2.38 0 0 Z " fill="#E6F1EB" transform="translate(168,165)"/>
<path d="M0 0 C2.0625 0.4375 2.0625 0.4375 4 1 C4 1.99 4 2.98 4 4 C2.68 4.33 1.36 4.66 0 5 C-0.5625 3.0625 -0.5625 3.0625 -1 1 C-0.67 0.67 -0.34 0.34 0 0 Z " fill="#A8ADB6" transform="translate(153,224)"/>
<path d="M0 0 C0.66 0 1.32 0 2 0 C3.06546953 3.1964086 3.07427838 5.65747276 3 9 C2.01 9 1.02 9 0 9 C0 6.03 0 3.06 0 0 Z " fill="#9C9DA0" transform="translate(100,165)"/>
<path d="M0 0 C2.5 0.3125 2.5 0.3125 5 1 C5.33 1.66 5.66 2.32 6 3 C4.35 3 2.7 3 1 3 C0.34 4.32 -0.32 5.64 -1 7 C-1.04254356 5.00045254 -1.04080783 2.99958364 -1 1 C-0.67 0.67 -0.34 0.34 0 0 Z " fill="#F6F6F6" transform="translate(172,285)"/>
<path d="M0 0 C-0.33 1.32 -0.66 2.64 -1 4 C-2.32 4.33 -3.64 4.66 -5 5 C-5 3.68 -5 2.36 -5 1 C-2 0 -2 0 0 0 Z " fill="#56436A" transform="translate(113,82)"/>
<path d="M0 0 C1.32 0 2.64 0 4 0 C3.67 1.32 3.34 2.64 3 4 C1.68 3.67 0.36 3.34 -1 3 C-0.67 2.01 -0.34 1.02 0 0 Z " fill="#553956" transform="translate(181,83)"/>
</svg>
