<?xml version="1.0" encoding="UTF-8"?>
<svg version="1.1" xmlns="http://www.w3.org/2000/svg" width="678" height="394">
<path d="M0 0 C223.74 0 447.48 0 678 0 C678 130.02 678 260.04 678 394 C454.26 394 230.52 394 0 394 C0 263.98 0 133.96 0 0 Z " fill="#1F2023" transform="translate(0,0)"/>
<path d="M0 0 C137.61 0 275.22 0 417 0 C417 13.2 417 26.4 417 40 C279.39 40 141.78 40 0 40 C0 26.8 0 13.6 0 0 Z " fill="#292A2D" transform="translate(59,25)"/>
<path d="M0 0 C223.74 0 447.48 0 678 0 C678 130.02 678 260.04 678 394 C454.26 394 230.52 394 0 394 C0 263.98 0 133.96 0 0 Z M6 7 C6 133.39 6 259.78 6 390 C226.11 390 446.22 390 673 390 C673 263.61 673 137.22 673 7 C452.89 7 232.78 7 6 7 Z " fill="#000000" transform="translate(0,0)"/>
<path d="M0 0 C44.22 0 88.44 0 134 0 C134 11.22 134 22.44 134 34 C89.78 34 45.56 34 0 34 C0 22.78 0 11.56 0 0 Z " fill="#DD3F06" transform="translate(201,324)"/>
<path d="M0 0 C44.22 0 88.44 0 134 0 C134 11.22 134 22.44 134 34 C89.78 34 45.56 34 0 34 C0 22.78 0 11.56 0 0 Z " fill="#DD4008" transform="translate(486,28)"/>
<path d="M0 0 C43.89 0 87.78 0 133 0 C133 11.22 133 22.44 133 34 C89.11 34 45.22 34 0 34 C0 22.78 0 11.56 0 0 Z " fill="#DD3F06" transform="translate(488,324)"/>
<path d="M0 0 C43.89 0 87.78 0 133 0 C133 11.22 133 22.44 133 34 C89.11 34 45.22 34 0 34 C0 22.78 0 11.56 0 0 Z " fill="#DD3F06" transform="translate(345,324)"/>
<path d="M0 0 C43.89 0 87.78 0 133 0 C133 11.22 133 22.44 133 34 C89.11 34 45.22 34 0 34 C0 22.78 0 11.56 0 0 Z " fill="#DD3F06" transform="translate(488,251)"/>
<path d="M0 0 C43.89 0 87.78 0 133 0 C133 11.22 133 22.44 133 34 C89.11 34 45.22 34 0 34 C0 22.78 0 11.56 0 0 Z " fill="#DD3F06" transform="translate(488,178)"/>
<path d="M0 0 C43.89 0 87.78 0 133 0 C133 11.22 133 22.44 133 34 C89.11 34 45.22 34 0 34 C0 22.78 0 11.56 0 0 Z " fill="#DD3F06" transform="translate(488,105)"/>
<path d="M0 0 C43.89 0 87.78 0 133 0 C132.67 10.56 132.34 21.12 132 32 C88.44 32.33 44.88 32.66 0 33 C0 22.11 0 11.22 0 0 Z " fill="#3D4144" transform="translate(201,251)"/>
<path d="M0 0 C43.89 0 87.78 0 133 0 C132.67 10.56 132.34 21.12 132 32 C88.44 32.33 44.88 32.66 0 33 C0 22.11 0 11.22 0 0 Z " fill="#3C4043" transform="translate(201,178)"/>
<path d="M0 0 C43.89 0 87.78 0 133 0 C132.67 10.56 132.34 21.12 132 32 C88.44 32.33 44.88 32.66 0 33 C0 22.11 0 11.22 0 0 Z " fill="#3C4043" transform="translate(201,105)"/>
<path d="M0 0 C43.56 0 87.12 0 132 0 C131.67 10.56 131.34 21.12 131 32 C66.155 32.495 66.155 32.495 0 33 C0 22.11 0 11.22 0 0 Z " fill="#3C4043" transform="translate(58,324)"/>
<path d="M0 0 C43.56 0 87.12 0 132 0 C131.67 10.56 131.34 21.12 131 32 C66.155 32.495 66.155 32.495 0 33 C0 22.11 0 11.22 0 0 Z " fill="#3D4144" transform="translate(345,251)"/>
<path d="M0 0 C43.56 0 87.12 0 132 0 C131.67 10.56 131.34 21.12 131 32 C66.155 32.495 66.155 32.495 0 33 C0 22.11 0 11.22 0 0 Z " fill="#3C4043" transform="translate(58,251)"/>
<path d="M0 0 C43.56 0 87.12 0 132 0 C131.67 10.56 131.34 21.12 131 32 C66.155 32.495 66.155 32.495 0 33 C0 22.11 0 11.22 0 0 Z " fill="#3C4043" transform="translate(345,178)"/>
<path d="M0 0 C43.56 0 87.12 0 132 0 C131.67 10.56 131.34 21.12 131 32 C66.155 32.495 66.155 32.495 0 33 C0 22.11 0 11.22 0 0 Z " fill="#3C4043" transform="translate(58,178)"/>
<path d="M0 0 C43.56 0 87.12 0 132 0 C131.67 10.56 131.34 21.12 131 32 C66.155 32.495 66.155 32.495 0 33 C0 22.11 0 11.22 0 0 Z " fill="#3C4043" transform="translate(345,105)"/>
<path d="M0 0 C43.56 0 87.12 0 132 0 C131.67 10.56 131.34 21.12 131 32 C66.155 32.495 66.155 32.495 0 33 C0 22.11 0 11.22 0 0 Z " fill="#3C4043" transform="translate(58,105)"/>
<path d="M0 0 C223.74 0 447.48 0 678 0 C678 130.02 678 260.04 678 394 C677.67 394 677.34 394 677 394 C677 264.97 677 135.94 677 3 C454.25 3 231.5 3 2 3 C2 132.03 2 261.06 2 394 C1.34 394 0.68 394 0 394 C0 263.98 0 133.96 0 0 Z " fill="#202124" transform="translate(0,0)"/>
<path d="M0 0 C43.89 0 87.78 0 133 0 C133 0.66 133 1.32 133 2 C89.77 2 46.54 2 2 2 C2 12.23 2 22.46 2 33 C1.34 33 0.68 33 0 33 C0 22.11 0 11.22 0 0 Z " fill="#535353" transform="translate(201,251)"/>
<path d="M0 0 C43.89 0 87.78 0 133 0 C133 0.66 133 1.32 133 2 C89.77 2 46.54 2 2 2 C2 12.23 2 22.46 2 33 C1.34 33 0.68 33 0 33 C0 22.11 0 11.22 0 0 Z " fill="#535353" transform="translate(201,178)"/>
<path d="M0 0 C43.89 0 87.78 0 133 0 C133 0.66 133 1.32 133 2 C89.77 2 46.54 2 2 2 C2 12.23 2 22.46 2 33 C1.34 33 0.68 33 0 33 C0 22.11 0 11.22 0 0 Z " fill="#535353" transform="translate(201,105)"/>
<path d="M0 0 C43.56 0 87.12 0 132 0 C132 0.66 132 1.32 132 2 C89.1 2 46.2 2 2 2 C2 12.23 2 22.46 2 33 C1.34 33 0.68 33 0 33 C0 22.11 0 11.22 0 0 Z " fill="#535353" transform="translate(58,324)"/>
<path d="M0 0 C0.33 0 0.66 0 1 0 C1 10.89 1 21.78 1 33 C-42.89 33 -86.78 33 -132 33 C-131.67 32.34 -131.34 31.68 -131 31 C-88.1 31 -45.2 31 -1 31 C-1 21.1 -1 11.2 -1 1 C-0.67 0.67 -0.34 0.34 0 0 Z " fill="#000000" transform="translate(334,252)"/>
<path d="M0 0 C43.56 0 87.12 0 132 0 C132 0.66 132 1.32 132 2 C89.1 2 46.2 2 2 2 C2 12.23 2 22.46 2 33 C1.34 33 0.68 33 0 33 C0 22.11 0 11.22 0 0 Z " fill="#535353" transform="translate(345,251)"/>
<path d="M0 0 C43.56 0 87.12 0 132 0 C132 0.66 132 1.32 132 2 C89.1 2 46.2 2 2 2 C2 12.23 2 22.46 2 33 C1.34 33 0.68 33 0 33 C0 22.11 0 11.22 0 0 Z " fill="#535353" transform="translate(58,251)"/>
<path d="M0 0 C0.33 0 0.66 0 1 0 C1 10.89 1 21.78 1 33 C-42.89 33 -86.78 33 -132 33 C-131.67 32.34 -131.34 31.68 -131 31 C-88.1 31 -45.2 31 -1 31 C-1 21.1 -1 11.2 -1 1 C-0.67 0.67 -0.34 0.34 0 0 Z " fill="#000000" transform="translate(334,179)"/>
<path d="M0 0 C43.56 0 87.12 0 132 0 C132 0.66 132 1.32 132 2 C89.1 2 46.2 2 2 2 C2 12.23 2 22.46 2 33 C1.34 33 0.68 33 0 33 C0 22.11 0 11.22 0 0 Z " fill="#535353" transform="translate(345,178)"/>
<path d="M0 0 C43.56 0 87.12 0 132 0 C132 0.66 132 1.32 132 2 C89.1 2 46.2 2 2 2 C2 12.23 2 22.46 2 33 C1.34 33 0.68 33 0 33 C0 22.11 0 11.22 0 0 Z " fill="#535353" transform="translate(58,178)"/>
<path d="M0 0 C0.33 0 0.66 0 1 0 C1 10.89 1 21.78 1 33 C-42.89 33 -86.78 33 -132 33 C-131.67 32.34 -131.34 31.68 -131 31 C-88.1 31 -45.2 31 -1 31 C-1 21.1 -1 11.2 -1 1 C-0.67 0.67 -0.34 0.34 0 0 Z " fill="#000000" transform="translate(334,106)"/>
<path d="M0 0 C43.56 0 87.12 0 132 0 C132 0.66 132 1.32 132 2 C89.1 2 46.2 2 2 2 C2 12.23 2 22.46 2 33 C1.34 33 0.68 33 0 33 C0 22.11 0 11.22 0 0 Z " fill="#535353" transform="translate(345,105)"/>
<path d="M0 0 C43.56 0 87.12 0 132 0 C132 0.66 132 1.32 132 2 C89.1 2 46.2 2 2 2 C2 12.23 2 22.46 2 33 C1.34 33 0.68 33 0 33 C0 22.11 0 11.22 0 0 Z " fill="#535353" transform="translate(58,105)"/>
<path d="M0 0 C0.33 0 0.66 0 1 0 C1 10.89 1 21.78 1 33 C-42.56 33 -86.12 33 -131 33 C-130.67 32.34 -130.34 31.68 -130 31 C-87.43 31 -44.86 31 -1 31 C-1 21.1 -1 11.2 -1 1 C-0.67 0.67 -0.34 0.34 0 0 Z " fill="#000000" transform="translate(190,325)"/>
<path d="M0 0 C0.33 0 0.66 0 1 0 C1 10.89 1 21.78 1 33 C-42.56 33 -86.12 33 -131 33 C-130.67 32.34 -130.34 31.68 -130 31 C-87.43 31 -44.86 31 -1 31 C-1 21.1 -1 11.2 -1 1 C-0.67 0.67 -0.34 0.34 0 0 Z " fill="#000000" transform="translate(477,252)"/>
<path d="M0 0 C0.33 0 0.66 0 1 0 C1 10.89 1 21.78 1 33 C-42.56 33 -86.12 33 -131 33 C-130.67 32.34 -130.34 31.68 -130 31 C-87.43 31 -44.86 31 -1 31 C-1 21.1 -1 11.2 -1 1 C-0.67 0.67 -0.34 0.34 0 0 Z " fill="#000000" transform="translate(190,252)"/>
<path d="M0 0 C0.33 0 0.66 0 1 0 C1 10.89 1 21.78 1 33 C-42.56 33 -86.12 33 -131 33 C-130.67 32.34 -130.34 31.68 -130 31 C-87.43 31 -44.86 31 -1 31 C-1 21.1 -1 11.2 -1 1 C-0.67 0.67 -0.34 0.34 0 0 Z " fill="#000000" transform="translate(477,179)"/>
<path d="M0 0 C0.33 0 0.66 0 1 0 C1 10.89 1 21.78 1 33 C-42.56 33 -86.12 33 -131 33 C-130.67 32.34 -130.34 31.68 -130 31 C-87.43 31 -44.86 31 -1 31 C-1 21.1 -1 11.2 -1 1 C-0.67 0.67 -0.34 0.34 0 0 Z " fill="#000000" transform="translate(190,179)"/>
<path d="M0 0 C0.33 0 0.66 0 1 0 C1 10.89 1 21.78 1 33 C-42.56 33 -86.12 33 -131 33 C-130.67 32.34 -130.34 31.68 -130 31 C-87.43 31 -44.86 31 -1 31 C-1 21.1 -1 11.2 -1 1 C-0.67 0.67 -0.34 0.34 0 0 Z " fill="#000000" transform="translate(477,106)"/>
<path d="M0 0 C0.33 0 0.66 0 1 0 C1 10.89 1 21.78 1 33 C-42.56 33 -86.12 33 -131 33 C-130.67 32.34 -130.34 31.68 -130 31 C-87.43 31 -44.86 31 -1 31 C-1 21.1 -1 11.2 -1 1 C-0.67 0.67 -0.34 0.34 0 0 Z " fill="#000000" transform="translate(190,106)"/>
<path d="M0 0 C0.0270043 1.45823212 0.04639787 2.91660675 0.0625 4.375 C0.07410156 5.18710937 0.08570313 5.99921875 0.09765625 6.8359375 C0 9 0 9 -1 11 C-2.66611905 11.042721 -4.33382885 11.04063832 -6 11 C-7 10 -7 10 -7.09765625 7.71484375 C-7.08605469 6.79832031 -7.07445313 5.88179688 -7.0625 4.9375 C-7.05347656 4.01839844 -7.04445313 3.09929687 -7.03515625 2.15234375 C-7.02355469 1.44207031 -7.01195313 0.73179687 -7 0 C-4.3333581 -1.33332095 -2.83319697 -0.67102033 0 0 Z " fill="#C7E2DC" transform="translate(128,335)"/>
<path d="M0 0 C1.65 0.33 3.3 0.66 5 1 C4.979375 1.7425 4.95875 2.485 4.9375 3.25 C4.88266896 5.93826222 4.88266896 5.93826222 5.625 8.1875 C5.74875 8.785625 5.8725 9.38375 6 10 C5.34 10.66 4.68 11.32 4 12 C1.375 11.625 1.375 11.625 -1 11 C-2.20898633 6.61742454 -2.2184264 4.02089784 0 0 Z " fill="#A9B0B1" transform="translate(266,115)"/>
<path d="M0 0 C1.32 0.33 2.64 0.66 4 1 C3.01 1.33 2.02 1.66 1 2 C0.67 2.66 0.34 3.32 0 4 C2.97 4.495 2.97 4.495 6 5 C6.04254356 6.99954746 6.04080783 9.00041636 6 11 C5 12 5 12 2.5625 12.25 C1.716875 12.1675 0.87125 12.085 0 12 C-2.31332486 8.53001271 -2.33957563 7.07490752 -2 3 C-1.34 2.01 -0.68 1.02 0 0 Z " fill="#D7E6E3" transform="translate(409,188)"/>
<path d="M0 0 C4.70588235 0.70588235 4.70588235 0.70588235 6 2 C6.27314815 7.73611111 6.27314815 7.73611111 6 10 C5.34 10.66 4.68 11.32 4 12 C1.375 11.625 1.375 11.625 -1 11 C-1 10.34 -1 9.68 -1 9 C-0.34 9 0.32 9 1 9 C1 9.66 1 10.32 1 11 C1.99 10.01 2.98 9.02 4 8 C2.35 7.67 0.7 7.34 -1 7 C-1.04254356 5.00045254 -1.04080783 2.99958364 -1 1 C-0.67 0.67 -0.34 0.34 0 0 Z " fill="#DEEEE7" transform="translate(409,115)"/>
<path d="M0 0 C1.98 0 3.96 0 6 0 C4.68 0.33 3.36 0.66 2 1 C2 1.99 2 2.98 2 4 C3.32 4.33 4.64 4.66 6 5 C6.625 7.375 6.625 7.375 7 10 C6.34 10.66 5.68 11.32 5 12 C2.4375 11.75 2.4375 11.75 0 11 C-0.33 10.34 -0.66 9.68 -1 9 C1.475 9.495 1.475 9.495 4 10 C4 8.68 4 7.36 4 6 C2.35 6 0.7 6 -1 6 C-0.67 4.02 -0.34 2.04 0 0 Z " fill="#E4EBE0" transform="translate(265,188)"/>
<path d="M0 0 C0.66 0 1.32 0 2 0 C2.19573608 1.43640171 2.38127816 2.87419504 2.5625 4.3125 C2.66691406 5.11300781 2.77132812 5.91351563 2.87890625 6.73828125 C3 9 3 9 2 12 C1.34 12 0.68 12 0 12 C0 11.01 0 10.02 0 9 C-1.32 8.67 -2.64 8.34 -4 8 C-2.68 8 -1.36 8 0 8 C-0.66 7.34 -1.32 6.68 -2 6 C-1.44444444 1.44444444 -1.44444444 1.44444444 0 0 Z " fill="#E2EEE9" transform="translate(125,188)"/>
<path d="M0 0 C0.99 0 1.98 0 3 0 C3 2.97 3 5.94 3 9 C2.01 9 1.02 9 0 9 C-1 8 -1 8 -1.125 5.0625 C-1 2 -1 2 0 0 Z " fill="#5A5647" transform="translate(123,335)"/>
<path d="M0 0 C2.31 0 4.62 0 7 0 C5.66666667 4 4.33333333 8 3 12 C2.34 12 1.68 12 1 12 C1.75 5.375 1.75 5.375 4 2 C2.68 1.34 1.36 0.68 0 0 Z " fill="#D8E9E6" transform="translate(121,115)"/>
<path d="M0 0 C0 3.96 0 7.92 0 12 C-0.66 12 -1.32 12 -2 12 C-2 9.36 -2 6.72 -2 4 C-2.66 3.67 -3.32 3.34 -4 3 C-1.125 0 -1.125 0 0 0 Z " fill="#D7ECE9" transform="translate(126,261)"/>
<path d="M0 0 C0.99 0 1.98 0 3 0 C3 1.65 3 3.3 3 5 C1.68 5 0.36 5 -1 5 C-0.67 3.35 -0.34 1.7 0 0 Z " fill="#59494A" transform="translate(410,193)"/>
<path d="M0 0 C0.66 0 1.32 0 2 0 C2 0.99 2 1.98 2 3 C2.99 3.33 3.98 3.66 5 4 C4.01 4 3.02 4 2 4 C2 4.99 2 5.98 2 7 C1.34 7 0.68 7 0 7 C0 6.01 0 5.02 0 4 C-0.99 3.67 -1.98 3.34 -3 3 C-2.01 3 -1.02 3 0 3 C0 2.01 0 1.02 0 0 Z " fill="#F2DBE5" transform="translate(553,337)"/>
<path d="M0 0 C0.99 0.33 1.98 0.66 3 1 C2.67 2.65 2.34 4.3 2 6 C1.01 5.67 0.02 5.34 -1 5 C-0.67 3.35 -0.34 1.7 0 0 Z " fill="#644B43" transform="translate(410,116)"/>
</svg>
