<?xml version="1.0" encoding="UTF-8"?>
<svg version="1.1" xmlns="http://www.w3.org/2000/svg" width="686" height="449">
<path d="M0 0 C226.38 0 452.76 0 686 0 C686 148.17 686 296.34 686 449 C459.62 449 233.24 449 0 449 C0 300.83 0 152.66 0 0 Z " fill="#192B3B" transform="translate(0,0)"/>
<path d="M0 0 C225.39 0 450.78 0 683 0 C683 25.08 683 50.16 683 76 C676.87499506 82.12500494 676.87499506 82.12500494 672.5790832 82.12995183 C671.13489954 82.13524446 671.13489954 82.13524446 669.66154045 82.14064401 C668.58908091 82.13944624 667.51662137 82.13824846 666.41166306 82.13701439 C664.71283115 82.14099213 664.71283115 82.14099213 662.97967941 82.14505023 C659.80795451 82.15143397 656.63626281 82.15327949 653.46453262 82.153273 C650.02452103 82.15433843 646.58452009 82.161124 643.14451432 82.1671797 C636.30904492 82.17827839 629.47358067 82.18390966 622.63810384 82.18788858 C614.45581312 82.19288879 606.27353242 82.20361488 598.09124761 82.21437032 C578.31126374 82.24002727 558.53127597 82.25504065 538.75128023 82.26788078 C532.20204708 82.27213297 525.65281422 82.27669863 519.10358143 82.2814641 C484.30716387 82.30672129 449.51074585 82.32877718 414.71432114 82.34119225 C406.64857735 82.34411375 398.58283359 82.34708123 390.51708984 82.35009766 C389.51498708 82.35046857 388.51288431 82.35083947 387.4804148 82.35122162 C354.97730611 82.36338178 322.47425152 82.39433225 289.97116825 82.43601918 C256.5769652 82.47877113 223.18279074 82.50542871 189.78855958 82.51066696 C185.07556445 82.51140746 180.36256936 82.51231815 175.64957428 82.51332474 C174.25815874 82.51361066 174.25815874 82.51361066 172.8386338 82.51390236 C157.88699885 82.5174212 142.93543145 82.53774337 127.98382134 82.56412137 C112.96521585 82.59021878 97.94668871 82.59801349 82.92806378 82.58702008 C73.99743277 82.58102729 65.06706683 82.58903841 56.13647575 82.61685092 C50.17723001 82.63404171 44.218166 82.63320604 38.25891658 82.61748323 C34.85923474 82.60903327 31.46006043 82.60862192 28.06042466 82.63009469 C24.40372204 82.64902882 20.74837081 82.63752673 17.09170151 82.61803246 C16.02860663 82.63088168 14.96551176 82.6437309 13.87020189 82.65696949 C6.72390423 82.57254317 6.72390423 82.57254317 2.86926866 79.52387297 C1.94398067 78.27455585 1.94398067 78.27455585 1 77 C0.67 76.67 0.34 76.34 0 76 C0 50.92 0 25.84 0 0 Z " fill="#172A3A" transform="translate(2,366)"/>
<path d="M0 0 C225.39 0 450.78 0 683 0 C683 20.46 683 40.92 683 62 C457.61 62 232.22 62 0 62 C0 41.54 0 21.08 0 0 Z " fill="#172A3A" transform="translate(2,303)"/>
<path d="M0 0 C225.39 0 450.78 0 683 0 C683 20.46 683 40.92 683 62 C457.61 62 232.22 62 0 62 C0 41.54 0 21.08 0 0 Z " fill="#172A3A" transform="translate(2,178)"/>
<path d="M0 0 C225.39 0 450.78 0 683 0 C683 20.13 683 40.26 683 61 C457.61 61 232.22 61 0 61 C0 40.87 0 20.74 0 0 Z " fill="#172A3A" transform="translate(2,241)"/>
<path d="M0 0 C114.51 0 229.02 0 347 0 C347 9.24 347 18.48 347 28 C232.49 28 117.98 28 0 28 C0 18.76 0 9.52 0 0 Z " fill="#FEFEFE" transform="translate(19,132)"/>
<path d="M0 0 C226.38 0 452.76 0 686 0 C686 148.17 686 296.34 686 449 C459.62 449 233.24 449 0 449 C0 300.83 0 152.66 0 0 Z M3 6 C2.67 6.33 2.34 6.66 2 7 C2 33.73 2 60.46 2 88 C227.39 88 452.78 88 685 88 C690.79322812 43.47989276 690.79322812 43.47989276 682 3 C678.66450186 1.1835533 675.85765325 0.74949398 672.09511328 0.74584967 C671.12620183 0.74007396 670.15729038 0.73429824 669.15901798 0.72834751 C668.10027519 0.7321723 667.04153239 0.73599709 665.95070648 0.73993778 C664.25001663 0.73422928 664.25001663 0.73422928 662.51496941 0.72840545 C658.68811601 0.71803939 654.86140955 0.7220051 651.0345459 0.72584534 C648.27429806 0.72249829 645.51405887 0.71616151 642.75381613 0.70997661 C636.7382421 0.69811836 630.72269843 0.69376428 624.70711327 0.69429779 C615.76186467 0.69509024 606.81665446 0.68454943 597.87141611 0.67188222 C580.03648312 0.64712877 562.20155942 0.63835825 544.36661162 0.63334573 C543.44278114 0.63308456 542.51895066 0.63282338 541.56712532 0.63255429 C540.64147806 0.63229402 539.71583081 0.63203374 538.76213364 0.63176558 C528.51160224 0.6286852 518.26107343 0.62218123 508.01054382 0.6155529 C477.06306331 0.59590518 446.1155856 0.57950014 415.16809845 0.57667637 C413.68298244 0.57653528 413.68298244 0.57653528 412.16786408 0.57639134 C408.15536651 0.57601285 404.14286893 0.57564885 400.13037135 0.57528836 C397.11018897 0.57501663 394.0900066 0.57473996 391.06982422 0.57446289 C389.57285192 0.57433086 389.57285192 0.57433086 388.04563775 0.57419616 C356.6737894 0.57128936 325.30200262 0.54918161 293.93017578 0.51293945 C258.70349074 0.47224525 223.47684765 0.44851805 188.25013781 0.44821686 C184.49657726 0.44812003 180.74301672 0.4479533 176.98945618 0.44773674 C176.06519812 0.44769263 175.14094007 0.44764851 174.18867419 0.44760306 C159.29305275 0.44648162 144.39749282 0.42905004 129.50189121 0.40591742 C114.54202018 0.38311527 99.58223258 0.37882353 84.62235057 0.39346672 C75.72725138 0.40163958 66.83241435 0.39585191 57.93734677 0.37028587 C52.00192022 0.35459809 46.06668086 0.35694581 40.13125901 0.3741926 C36.74514134 0.38351486 33.35994605 0.38207713 29.97379988 0.36422653 C26.33182835 0.34625573 22.69122147 0.35871785 19.04929352 0.37917423 C17.99055072 0.36661086 16.93180793 0.35404749 15.84098202 0.3411034 C9.80301312 0.41431917 6.81765828 0.85308005 3 6 Z M2 89 C2 118.04 2 147.08 2 177 C227.39 177 452.78 177 685 177 C685 147.96 685 118.92 685 89 C459.61 89 234.22 89 2 89 Z M2 178 C2 198.46 2 218.92 2 240 C227.39 240 452.78 240 685 240 C685 219.54 685 199.08 685 178 C459.61 178 234.22 178 2 178 Z M2 241 C2 261.13 2 281.26 2 302 C227.39 302 452.78 302 685 302 C685 281.87 685 261.74 685 241 C459.61 241 234.22 241 2 241 Z M2 303 C2 323.46 2 343.92 2 365 C227.39 365 452.78 365 685 365 C685 344.54 685 324.08 685 303 C459.61 303 234.22 303 2 303 Z M2 366 C2 391.08 2 416.16 2 442 C3.65 443.65 5.3 445.3 7 447 C7.33 447.33 7.66 447.66 8 448 C9.47094771 448.09899955 10.94664233 448.12825415 12.4209168 448.12995183 C13.38370591 448.13348025 14.34649501 448.13700867 15.33845955 448.14064401 C16.94714886 448.13884735 16.94714886 448.13884735 18.58833694 448.13701439 C20.28716885 448.14099213 20.28716885 448.14099213 22.02032059 448.14505023 C25.19204549 448.15143397 28.36373719 448.15327949 31.53546738 448.153273 C34.97547897 448.15433843 38.41547991 448.161124 41.85548568 448.1671797 C48.69095508 448.17827839 55.52641933 448.18390966 62.36189616 448.18788858 C70.54418688 448.19288879 78.72646758 448.20361488 86.90875239 448.21437032 C106.68873626 448.24002727 126.46872403 448.25504065 146.24871977 448.26788078 C152.79795292 448.27213297 159.34718578 448.27669863 165.89641857 448.2814641 C200.69283613 448.30672129 235.48925415 448.32877718 270.28567886 448.34119225 C278.35142265 448.34411375 286.41716641 448.34708123 294.48291016 448.35009766 C295.9860643 448.35065402 295.9860643 448.35065402 297.5195852 448.35122162 C330.02269389 448.36338178 362.52574848 448.39433225 395.02883175 448.43601918 C428.4230348 448.47877113 461.81720926 448.50542871 495.21144042 448.51066696 C499.92443555 448.51140746 504.63743064 448.51231815 509.35042572 448.51332474 C510.27803608 448.51351535 511.20564643 448.51370597 512.1613662 448.51390236 C527.11300115 448.5174212 542.06456855 448.53774337 557.01617866 448.56412137 C572.03478415 448.59021878 587.05331129 448.59801349 602.07193622 448.58702008 C611.00256723 448.58102729 619.93293317 448.58903841 628.86352425 448.61685092 C634.82276999 448.63404171 640.781834 448.63320604 646.74108342 448.61748323 C650.14076526 448.60903327 653.53993957 448.60862192 656.93957534 448.63009469 C660.59627796 448.64902882 664.25162919 448.63752673 667.90829849 448.61803246 C668.97139337 448.63088168 670.03448824 448.6437309 671.12979811 448.65696949 C677.10503399 448.60855682 677.10503399 448.60855682 682.13073134 445.52387297 C683.05601933 444.27455585 683.05601933 444.27455585 684 443 C684.33 442.67 684.66 442.34 685 442 C685 416.92 685 391.84 685 366 C459.61 366 234.22 366 2 366 Z " fill="#DCDDDE" transform="translate(0,0)"/>
<path d="M0 0 C72.93 0 145.86 0 221 0 C221 9.24 221 18.48 221 28 C148.07 28 75.14 28 0 28 C0 18.76 0 9.52 0 0 Z " fill="#FDFEFE" transform="translate(447,132)"/>
<path d="M0 0 C61.71 0 123.42 0 187 0 C187 8.91 187 17.82 187 27 C125.29 27 63.58 27 0 27 C0 18.09 0 9.18 0 0 Z " fill="#FBFCFB" transform="translate(19,44)"/>
<path d="M0 0 C12.21 0 24.42 0 37 0 C37 8.58 37 17.16 37 26 C24.79 26 12.58 26 0 26 C0 17.42 0 8.84 0 0 Z " fill="#F9EAD6" transform="translate(374,133)"/>
<path d="M0 0 C11.55 0 23.1 0 35 0 C35 8.58 35 17.16 35 26 C23.45 26 11.9 26 0 26 C0 17.42 0 8.84 0 0 Z " fill="#F8E9D5" transform="translate(592,321)"/>
<path d="M0 0 C11.55 0 23.1 0 35 0 C35 8.58 35 17.16 35 26 C23.45 26 11.9 26 0 26 C0 17.42 0 8.84 0 0 Z " fill="#F8E9D5" transform="translate(592,196)"/>
<path d="M0 0 C11.55 0 23.1 0 35 0 C35 8.25 35 16.5 35 25 C23.45 25 11.9 25 0 25 C0 16.75 0 8.5 0 0 Z " fill="#F8E9D5" transform="translate(592,259)"/>
<path d="M0 0 C10.89 0 21.78 0 33 0 C33 8.58 33 17.16 33 26 C22.11 26 11.22 26 0 26 C0 17.42 0 8.84 0 0 Z " fill="#F9EAD6" transform="translate(548,321)"/>
<path d="M0 0 C10.89 0 21.78 0 33 0 C33 8.58 33 17.16 33 26 C22.11 26 11.22 26 0 26 C0 17.42 0 8.84 0 0 Z " fill="#F9EAD6" transform="translate(548,196)"/>
<path d="M0 0 C10.89 0 21.78 0 33 0 C33 8.25 33 16.5 33 25 C22.11 25 11.22 25 0 25 C0 16.75 0 8.5 0 0 Z " fill="#F9EAD6" transform="translate(548,259)"/>
<path d="M0 0 C9.9 0 19.8 0 30 0 C30 8.58 30 17.16 30 26 C20.1 26 10.2 26 0 26 C0 17.42 0 8.84 0 0 Z " fill="#F9EAD6" transform="translate(637,321)"/>
<path d="M0 0 C9.9 0 19.8 0 30 0 C30 8.58 30 17.16 30 26 C20.1 26 10.2 26 0 26 C0 17.42 0 8.84 0 0 Z " fill="#F9EAD6" transform="translate(637,196)"/>
<path d="M0 0 C9.9 0 19.8 0 30 0 C30 8.25 30 16.5 30 25 C20.1 25 10.2 25 0 25 C0 16.75 0 8.5 0 0 Z " fill="#F9EAD6" transform="translate(637,259)"/>
<path d="M0 0 C9.57 0 19.14 0 29 0 C29 8.25 29 16.5 29 25 C19.43 25 9.86 25 0 25 C0 16.75 0 8.5 0 0 Z " fill="#F9EAD6" transform="translate(213,45)"/>
<path d="M0 0 C13.53 0 27.06 0 41 0 C41 9.9 41 19.8 41 30 C27.47 30 13.94 30 0 30 C0 20.1 0 10.2 0 0 Z M2 2 C2 10.58 2 19.16 2 28 C14.21 28 26.42 28 39 28 C39 19.42 39 10.84 39 2 C26.79 2 14.58 2 2 2 Z " fill="#34507A" transform="translate(372,131)"/>
<path d="M0 0 C12.87 0 25.74 0 39 0 C39 9.9 39 19.8 39 30 C26.13 30 13.26 30 0 30 C0 20.1 0 10.2 0 0 Z M2 2 C2 10.58 2 19.16 2 28 C13.55 28 25.1 28 37 28 C37 19.42 37 10.84 37 2 C25.45 2 13.9 2 2 2 Z " fill="#34507A" transform="translate(590,319)"/>
<path d="M0 0 C12.87 0 25.74 0 39 0 C39 9.9 39 19.8 39 30 C26.13 30 13.26 30 0 30 C0 20.1 0 10.2 0 0 Z M2 2 C2 10.58 2 19.16 2 28 C13.55 28 25.1 28 37 28 C37 19.42 37 10.84 37 2 C25.45 2 13.9 2 2 2 Z " fill="#34507A" transform="translate(590,194)"/>
<path d="M0 0 C12.87 0 25.74 0 39 0 C39 9.57 39 19.14 39 29 C26.13 29 13.26 29 0 29 C0 19.43 0 9.86 0 0 Z M2 2 C2 10.25 2 18.5 2 27 C13.55 27 25.1 27 37 27 C37 18.75 37 10.5 37 2 C25.45 2 13.9 2 2 2 Z " fill="#34507A" transform="translate(590,257)"/>
<path d="M0 0 C12.21 0 24.42 0 37 0 C37 9.9 37 19.8 37 30 C24.79 30 12.58 30 0 30 C0 20.1 0 10.2 0 0 Z M2 2 C2 10.58 2 19.16 2 28 C12.89 28 23.78 28 35 28 C35 19.42 35 10.84 35 2 C24.11 2 13.22 2 2 2 Z " fill="#34507A" transform="translate(546,319)"/>
<path d="M0 0 C12.21 0 24.42 0 37 0 C37 9.9 37 19.8 37 30 C24.79 30 12.58 30 0 30 C0 20.1 0 10.2 0 0 Z M2 2 C2 10.58 2 19.16 2 28 C12.89 28 23.78 28 35 28 C35 19.42 35 10.84 35 2 C24.11 2 13.22 2 2 2 Z " fill="#34507A" transform="translate(546,194)"/>
<path d="M0 0 C12.21 0 24.42 0 37 0 C37 9.57 37 19.14 37 29 C24.79 29 12.58 29 0 29 C0 19.43 0 9.86 0 0 Z M2 2 C2 10.25 2 18.5 2 27 C12.89 27 23.78 27 35 27 C35 18.75 35 10.5 35 2 C24.11 2 13.22 2 2 2 Z " fill="#34507A" transform="translate(546,257)"/>
<path d="M0 0 C11.22 0 22.44 0 34 0 C34 9.9 34 19.8 34 30 C22.78 30 11.56 30 0 30 C0 20.1 0 10.2 0 0 Z M2 2 C2 10.58 2 19.16 2 28 C11.9 28 21.8 28 32 28 C32 19.42 32 10.84 32 2 C22.1 2 12.2 2 2 2 Z " fill="#34507A" transform="translate(635,319)"/>
<path d="M0 0 C11.22 0 22.44 0 34 0 C34 9.9 34 19.8 34 30 C22.78 30 11.56 30 0 30 C0 20.1 0 10.2 0 0 Z M2 2 C2 10.58 2 19.16 2 28 C11.9 28 21.8 28 32 28 C32 19.42 32 10.84 32 2 C22.1 2 12.2 2 2 2 Z " fill="#34507A" transform="translate(635,194)"/>
<path d="M0 0 C11.22 0 22.44 0 34 0 C34 9.57 34 19.14 34 29 C22.78 29 11.56 29 0 29 C0 19.43 0 9.86 0 0 Z M2 2 C2 10.25 2 18.5 2 27 C11.9 27 21.8 27 32 27 C32 18.75 32 10.5 32 2 C22.1 2 12.2 2 2 2 Z " fill="#34507A" transform="translate(635,257)"/>
<path d="M0 0 C10.89 0 21.78 0 33 0 C33 9.57 33 19.14 33 29 C22.11 29 11.22 29 0 29 C0 19.43 0 9.86 0 0 Z M2 2 C2 10.25 2 18.5 2 27 C11.57 27 21.14 27 31 27 C31 18.75 31 10.5 31 2 C21.43 2 11.86 2 2 2 Z " fill="#34507A" transform="translate(211,43)"/>
<path d="M0 0 C1.07507813 0.01546875 2.15015625 0.0309375 3.2578125 0.046875 C5.875 0.25 5.875 0.25 6.875 1.25 C6.97323937 2.91429051 7.00473631 4.58281931 7 6.25 C7.00386719 7.61125 7.00386719 7.61125 7.0078125 9 C6.875 11.25 6.875 11.25 5.875 12.25 C-4.26706461 13.33887197 -4.26706461 13.33887197 -8.03125 11.1328125 C-9.375 9.75 -9.375 9.75 -11.125 7.25 C-8.50062973 1.39563554 -6.54768124 -0.15777545 0 0 Z " fill="#38588C" transform="translate(395.125,139.75)"/>
<path d="M0 0 C2.5 0.25 2.5 0.25 4.5 2.25 C6.83297433 2.29092937 9.16705225 2.29241723 11.5 2.25 C12.5 3.25 12.5 3.25 12.5625 6.8125 C12.541875 7.946875 12.52125 9.08125 12.5 10.25 C9.625 10.375 9.625 10.375 6.5 10.25 C5.84 9.59 5.18 8.93 4.5 8.25 C3.84 8.91 3.18 9.57 2.5 10.25 C0 10.5625 0 10.5625 -2.5 10.25 C-4.64915785 7.02626323 -4.88286803 5.98296326 -4.5 2.25 C-2.5 0.25 -2.5 0.25 0 0 Z " fill="#323A4D" transform="translate(22.5,328.75)"/>
<path d="M0 0 C0.99 0 1.98 0 3 0 C3 2.31 3 4.62 3 7 C3.66 6.67 4.32 6.34 5 6 C5.65772428 2.97065509 5.65772428 2.97065509 6 0 C6.99 0 7.98 0 9 0 C9.33 1.32 9.66 2.64 10 4 C10.66 3.67 11.32 3.34 12 3 C11.34 3 10.68 3 10 3 C10.33 2.01 10.66 1.02 11 0 C12.66611905 -0.042721 14.33382885 -0.04063832 16 0 C17 1 17 1 17.09765625 2.84765625 C17.06510417 4.8984375 17.03255208 6.94921875 17 9 C14.35409986 9.02684679 11.70846904 9.04676357 9.0625 9.0625 C7.93038086 9.07506836 7.93038086 9.07506836 6.77539062 9.08789062 C4.85005687 9.09652441 2.92464419 9.05224333 1 9 C0 8 0 8 -0.09765625 6.15234375 C-0.06510417 4.1015625 -0.03255208 2.05078125 0 0 Z " fill="#E6F1F0" transform="translate(108,22)"/>
<path d="M0 0 C4.29 0 8.58 0 13 0 C13 3.96 13 7.92 13 12 C12.01 12 11.02 12 10 12 C9.67 10.02 9.34 8.04 9 6 C8.67 6.33 8.34 6.66 8 7 C6.33382885 7.04063832 4.66611905 7.042721 3 7 C3 8.65 3 10.3 3 12 C2.01 12 1.02 12 0 12 C0 8.04 0 4.08 0 0 Z " fill="#D1E7EF" transform="translate(447,107)"/>
<path d="M0 0 C1.32 0.33 2.64 0.66 4 1 C4.99 0.67 5.98 0.34 7 0 C7.95024979 3.69541586 7.95024979 6.30458414 7 10 C7.66 10 8.32 10 9 10 C9 7.69 9 5.38 9 3 C10.98 3 12.96 3 15 3 C15 3.66 15 4.32 15 5 C14.01 5 13.02 5 12 5 C12 7.31 12 9.62 12 12 C8 12 4 12 0 12 C0 8.04 0 4.08 0 0 Z " fill="#D9DED4" transform="translate(462,107)"/>
<path d="M0 0 C3.37694418 -0.23560076 5.70243155 -0.11643983 8.875 1.125 C11 3 11 3 11.3125 6.1875 C11.1578125 7.5796875 11.1578125 7.5796875 11 9 C11.66 9 12.32 9 13 9 C13 7.02 13 5.04 13 3 C13.66 3 14.32 3 15 3 C15 5.31 15 7.62 15 10 C12.625 10.125 12.625 10.125 10 10 C9.34 9.34 8.68 8.68 8 8 C7.34 8.66 6.68 9.32 6 10 C2.875 10.125 2.875 10.125 0 10 C0 6.7 0 3.4 0 0 Z " fill="#C6C4C5" transform="translate(28,141)"/>
<path d="M0 0 C1.32 0 2.64 0 4 0 C4 0.99 4 1.98 4 3 C4.969375 2.979375 5.93875 2.95875 6.9375 2.9375 C10 3 10 3 11 4 C11.45459858 6.65463121 11.70243238 9.32189138 12 12 C9.69 12 7.38 12 5 12 C4.87625 11.21625 4.7525 10.4325 4.625 9.625 C4.20882007 6.85942178 4.20882007 6.85942178 2 5 C2 7.31 2 9.62 2 12 C1.01 12 0.02 12 -1 12 C-1.2226746 10.56465159 -1.42761906 9.12654475 -1.625 7.6875 C-1.74101562 6.88699219 -1.85703125 6.08648437 -1.9765625 5.26171875 C-2 3 -2 3 0 0 Z " fill="#E1EBE7" transform="translate(165,19)"/>
<path d="M0 0 C0.825 0.04125 1.65 0.0825 2.5 0.125 C3.16 0.125 3.82 0.125 4.5 0.125 C5.49 0.125 6.48 0.125 7.5 0.125 C7.5 3.095 7.5 6.065 7.5 9.125 C6.18 8.795 4.86 8.465 3.5 8.125 C3.17 8.455 2.84 8.785 2.5 9.125 C0.0625 9.3125 0.0625 9.3125 -2.5 9.125 C-4.5 7.125 -4.5 7.125 -4.75 4.625 C-4.40065109 1.13151089 -3.5279401 0.17639701 0 0 Z " fill="#748F9D" transform="translate(43.5,21.875)"/>
<path d="M0 0 C1.65 0.33 3.3 0.66 5 1 C5.99 4.63 6.98 8.26 8 12 C7.01 12 6.02 12 5 12 C4.67 11.34 4.34 10.68 4 10 C1.97536745 9.34786708 1.97536745 9.34786708 0 9 C0 9.99 0 10.98 0 12 C-0.99 12 -1.98 12 -3 12 C-2.49202991 7.6822542 -1.80317221 3.96697886 0 0 Z " fill="#E1ECE6" transform="translate(21,19)"/>
<path d="M0 0 C1.134375 0.020625 2.26875 0.04125 3.4375 0.0625 C3.4375 4.0225 3.4375 7.9825 3.4375 12.0625 C2.4475 12.0625 1.4575 12.0625 0.4375 12.0625 C0.4375 11.0725 0.4375 10.0825 0.4375 9.0625 C-1.2125 8.7325 -2.8625 8.4025 -4.5625 8.0625 C-4.60491723 5.72955225 -4.60342937 3.39547433 -4.5625 1.0625 C-3.5625 0.0625 -3.5625 0.0625 0 0 Z " fill="#B0C0CB" transform="translate(51.5625,109.9375)"/>
<path d="M0 0 C6.0546875 -0.1953125 6.0546875 -0.1953125 8 0 C8.66 0.66 9.32 1.32 10 2 C9.46428571 5.53571429 9.46428571 5.53571429 8 7 C6.33382885 7.04063832 4.66611905 7.042721 3 7 C3 8.65 3 10.3 3 12 C2.01 12 1.02 12 0 12 C0 8.04 0 4.08 0 0 Z " fill="#A0B8CC" transform="translate(18,107)"/>
<path d="M0 0 C0.99 0 1.98 0 3 0 C3 3.96 3 7.92 3 12 C0.66705225 12.04241723 -1.66702567 12.04092937 -4 12 C-5 11 -5 11 -5.0625 7.4375 C-5.041875 6.303125 -5.02125 5.16875 -5 4 C-3.35 3.67 -1.7 3.34 0 3 C0 2.01 0 1.02 0 0 Z " fill="#C9D0D2" transform="translate(35,19)"/>
<path d="M0 0 C2.90900258 0.54120978 4.83293707 0.13434732 7.6875 -0.5 C8.6875 0.5 8.6875 0.5 8.75 3.5625 C8.729375 4.531875 8.70875 5.50125 8.6875 6.5 C6.89616022 6.55391993 5.10436101 6.59275571 3.3125 6.625 C2.31476562 6.64820313 1.31703125 6.67140625 0.2890625 6.6953125 C-2.3125 6.5 -2.3125 6.5 -4.3125 4.5 C-4.3125 3.18 -4.3125 1.86 -4.3125 0.5 C-2.3125 -0.5 -2.3125 -0.5 0 0 Z " fill="#D2D2D2" transform="translate(55.3125,144.5)"/>
<path d="M0 0 C1.32 0.99 2.64 1.98 4 3 C2.43608407 6.83870274 0.1265374 9.30972363 -3 12 C-5.8125 12.8125 -5.8125 12.8125 -8 13 C-8.36795695 9.7171341 -8.3231932 8.41336988 -6.25 5.76171875 C-5.13625 4.73498047 -5.13625 4.73498047 -4 3.6875 C-3.2575 2.99011719 -2.515 2.29273438 -1.75 1.57421875 C-1.1725 1.05472656 -0.595 0.53523438 0 0 Z " fill="#3D5B8D" transform="translate(610,329)"/>
<path d="M0 0 C1.32 0.99 2.64 1.98 4 3 C2.43608407 6.83870274 0.1265374 9.30972363 -3 12 C-5.8125 12.8125 -5.8125 12.8125 -8 13 C-8.36795695 9.7171341 -8.3231932 8.41336988 -6.25 5.76171875 C-5.13625 4.73498047 -5.13625 4.73498047 -4 3.6875 C-3.2575 2.99011719 -2.515 2.29273438 -1.75 1.57421875 C-1.1725 1.05472656 -0.595 0.53523438 0 0 Z " fill="#3D5B8D" transform="translate(610,266)"/>
<path d="M0 0 C1.32 0.99 2.64 1.98 4 3 C2.43608407 6.83870274 0.1265374 9.30972363 -3 12 C-5.8125 12.8125 -5.8125 12.8125 -8 13 C-8.36795695 9.7171341 -8.3231932 8.41336988 -6.25 5.76171875 C-5.13625 4.73498047 -5.13625 4.73498047 -4 3.6875 C-3.2575 2.99011719 -2.515 2.29273438 -1.75 1.57421875 C-1.1725 1.05472656 -0.595 0.53523437 0 0 Z " fill="#3D5B8D" transform="translate(610,204)"/>
<path d="M0 0 C1 1 1 1 1.1875 3.9375 C1 7 1 7 -1 9 C-3.5 9.3125 -3.5 9.3125 -6 9 C-8 6 -8 6 -7.75 2.875 C-7.37875 1.451875 -7.37875 1.451875 -7 0 C-4.31633121 -1.3418344 -2.84719317 -0.73004953 0 0 Z " fill="#CAC8CB" transform="translate(36,53)"/>
<path d="M0 0 C1.11375 0.2475 1.11375 0.2475 2.25 0.5 C5.18606431 1.03382988 7.13588733 0.73648612 10 0 C11.04449911 3.13349732 10.93423645 3.98968256 10 7 C9.0925 6.814375 8.185 6.62875 7.25 6.4375 C4.27332338 6.03679353 2.78896366 6.1736404 0 7 C-1 6 -1 6 -1.125 3.5 C-1 1 -1 1 0 0 Z " fill="#C8C2B8" transform="translate(483,144)"/>
<path d="M0 0 C2.90598539 0.54064844 4.84993077 0.22966066 7.6875 -0.5 C8.0175 0.82 8.3475 2.14 8.6875 3.5 C7.6975 3.995 7.6975 3.995 6.6875 4.5 C7.3475 4.83 8.0075 5.16 8.6875 5.5 C4.20286154 6.44413441 1.17213846 6.44413441 -3.3125 5.5 C-3.6425 3.85 -3.9725 2.2 -4.3125 0.5 C-2.3125 -0.5 -2.3125 -0.5 0 0 Z " fill="#C8CACC" transform="translate(86.3125,55.5)"/>
<path d="M0 0 C1.81242052 -0.02687279 3.62495233 -0.04633715 5.4375 -0.0625 C6.44683594 -0.07410156 7.45617187 -0.08570313 8.49609375 -0.09765625 C11 0 11 0 12 1 C12.04092937 3.33297433 12.04241723 5.66705225 12 8 C10.02 8 8.04 8 6 8 C5.67 6.68 5.34 5.36 5 4 C5.66 3.67 6.32 3.34 7 3 C5.35 2.67 3.7 2.34 2 2 C2 3.98 2 5.96 2 8 C1.34 8 0.68 8 0 8 C0 5.36 0 2.72 0 0 Z " fill="#C1B495" transform="translate(93,268)"/>
<path d="M0 0 C2.5 0.25 2.5 0.25 4.5 2.25 C4.75 4.75 4.75 4.75 4.5 7.25 C2.5 9.25 2.5 9.25 0 9.5 C-2.5 9.25 -2.5 9.25 -4.5 7.25 C-4.75 4.75 -4.75 4.75 -4.5 2.25 C-2.5 0.25 -2.5 0.25 0 0 Z " fill="#ECEEE3" transform="translate(57.5,21.75)"/>
<path d="M0 0 C2.875 -0.125 2.875 -0.125 6 0 C6.66 0.66 7.32 1.32 8 2 C7.625 4.625 7.625 4.625 7 7 C5.68 7.33 4.36 7.66 3 8 C3 8.99 3 9.98 3 11 C2.01 11 1.02 11 0 11 C0 7.37 0 3.74 0 0 Z " fill="#DDE9E8" transform="translate(122,268)"/>
<path d="M0 0 C0.99 0 1.98 0 3 0 C3 3.3 3 6.6 3 10 C0.125 10.125 0.125 10.125 -3 10 C-3.66 9.34 -4.32 8.68 -5 8 C-4.625 5.375 -4.625 5.375 -4 3 C-2.68 2.67 -1.36 2.34 0 2 C0 1.34 0 0.68 0 0 Z " fill="#E3E1C7" transform="translate(54,266)"/>
<path d="M0 0 C1.64574566 -0.02688151 3.29161413 -0.04634123 4.9375 -0.0625 C5.85402344 -0.07410156 6.77054688 -0.08570313 7.71484375 -0.09765625 C10 0 10 0 11 1 C11.04092937 3.33297433 11.04241723 5.66705225 11 8 C10.01 8 9.02 8 8 8 C7.67 6.35 7.34 4.7 7 3 C6.67 4.65 6.34 6.3 6 8 C5.34 8 4.68 8 4 8 C4 6.02 4 4.04 4 2 C3.34 2 2.68 2 2 2 C2 3.98 2 5.96 2 8 C1.34 8 0.68 8 0 8 C0 5.36 0 2.72 0 0 Z " fill="#F0F9F3" transform="translate(37,331)"/>
<path d="M0 0 C1.64574566 -0.02688151 3.29161413 -0.04634123 4.9375 -0.0625 C5.85402344 -0.07410156 6.77054687 -0.08570313 7.71484375 -0.09765625 C10 0 10 0 11 1 C11.04092937 3.33297433 11.04241723 5.66705225 11 8 C10.01 8 9.02 8 8 8 C7.67 6.35 7.34 4.7 7 3 C6.67 4.65 6.34 6.3 6 8 C5.34 8 4.68 8 4 8 C4 6.02 4 4.04 4 2 C3.34 2 2.68 2 2 2 C2 3.98 2 5.96 2 8 C1.34 8 0.68 8 0 8 C0 5.36 0 2.72 0 0 Z " fill="#F0F9F3" transform="translate(77,206)"/>
<path d="M0 0 C1.99954746 -0.04254356 4.00041636 -0.04080783 6 0 C7 1 7 1 7.0625 4.0625 C7.041875 5.031875 7.02125 6.00125 7 7 C5.35 7.33 3.7 7.66 2 8 C2 8.99 2 9.98 2 11 C1.34 11 0.68 11 0 11 C0 7.37 0 3.74 0 0 Z " fill="#ECFAF5" transform="translate(76,268)"/>
<path d="M0 0 C2.64 0 5.28 0 8 0 C8 0.66 8 1.32 8 2 C6.35 2 4.7 2 3 2 C3 2.66 3 3.32 3 4 C4.65 4 6.3 4 8 4 C8 4.66 8 5.32 8 6 C6.35 6 4.7 6 3 6 C3 6.66 3 7.32 3 8 C4.65 8 6.3 8 8 8 C8 8.66 8 9.32 8 10 C5.36 10 2.72 10 0 10 C0 6.7 0 3.4 0 0 Z " fill="#FEF9F2" transform="translate(18,266)"/>
<path d="M0 0 C1.99954746 -0.04254356 4.00041636 -0.04080783 6 0 C7 1 7 1 7.0625 4.0625 C7.041875 5.031875 7.02125 6.00125 7 7 C5.35 7.33 3.7 7.66 2 8 C2 8.99 2 9.98 2 11 C1.34 11 0.68 11 0 11 C0 7.37 0 3.74 0 0 Z " fill="#B9B1A8" transform="translate(90,206)"/>
<path d="M0 0 C0.66 0 1.32 0 2 0 C2 3.3 2 6.6 2 10 C0.00045254 10.04254356 -2.00041636 10.04080783 -4 10 C-5 9 -5 9 -5.0625 5.9375 C-5.041875 4.968125 -5.02125 3.99875 -5 3 C-3.35 2.67 -1.7 2.34 0 2 C0 1.34 0 0.68 0 0 Z " fill="#CDD4D3" transform="translate(84,329)"/>
<path d="M0 0 C1.66611905 -0.042721 3.33382885 -0.04063832 5 0 C6 1 6 1 6.09765625 2.84765625 C6.04882812 5.92382812 6.04882812 5.92382812 6 9 C3.69 9 1.38 9 -1 9 C-1.33 7.68 -1.66 6.36 -2 5 C-1.01 4.34 -0.02 3.68 1 3 C0.34 3 -0.32 3 -1 3 C-0.67 2.01 -0.34 1.02 0 0 Z " fill="#F2F9F8" transform="translate(479,110)"/>
<path d="M0 0 C1.66611905 -0.042721 3.33382885 -0.04063832 5 0 C6 1 6 1 6.09765625 2.84765625 C6.04882812 5.92382812 6.04882812 5.92382812 6 9 C3.69 9 1.38 9 -1 9 C-1.33 7.68 -1.66 6.36 -2 5 C-1.01 4.34 -0.02 3.68 1 3 C0.34 3 -0.32 3 -1 3 C-0.67 2.01 -0.34 1.02 0 0 Z " fill="#F2F9F8" transform="translate(81,110)"/>
<path d="M0 0 C1.66611905 -0.042721 3.33382885 -0.04063832 5 0 C6 1 6 1 6.09765625 2.84765625 C6.04882812 5.92382812 6.04882812 5.92382812 6 9 C3.69 9 1.38 9 -1 9 C-1.33 7.68 -1.66 6.36 -2 5 C-1.01 4.34 -0.02 3.68 1 3 C0.34 3 -0.32 3 -1 3 C-0.67 2.01 -0.34 1.02 0 0 Z " fill="#DCE7E7" transform="translate(141,22)"/>
<path d="M0 0 C1.66611905 -0.042721 3.33382885 -0.04063832 5 0 C6 1 6 1 6.09765625 2.84765625 C6.04882812 5.92382812 6.04882812 5.92382812 6 9 C3.69 9 1.38 9 -1 9 C-1.33 7.68 -1.66 6.36 -2 5 C-1.01 4.34 -0.02 3.68 1 3 C0.34 3 -0.32 3 -1 3 C-0.67 2.01 -0.34 1.02 0 0 Z " fill="#DCE7E7" transform="translate(87,22)"/>
<path d="M0 0 C0 3.96 0 7.92 0 12 C-0.99 12 -1.98 12 -3 12 C-3.33 10.02 -3.66 8.04 -4 6 C-6.97 5.505 -6.97 5.505 -10 5 C-10 4.01 -10 3.02 -10 2 C-3.375 0 -3.375 0 0 0 Z " fill="#49505C" transform="translate(460,107)"/>
<path d="M0 0 C2.33294775 -0.04241723 4.66702567 -0.04092937 7 0 C8 1 8 1 8.09765625 2.84765625 C8.04882812 5.92382812 8.04882812 5.92382812 8 9 C7.01 9 6.02 9 5 9 C5 6.69 5 4.38 5 2 C4.34 2 3.68 2 3 2 C3 4.31 3 6.62 3 9 C2.01 9 1.02 9 0 9 C0 6.03 0 3.06 0 0 Z " fill="#E4EBDC" transform="translate(63,22)"/>
<path d="M0 0 C2.00720923 0.28674418 4.0085944 0.61866701 6 1 C6 2.32 6 3.64 6 5 C4.35 5 2.7 5 1 5 C1 5.66 1 6.32 1 7 C2.65 6.67 4.3 6.34 6 6 C5.67 6.99 5.34 7.98 5 9 C2.625 9.1875 2.625 9.1875 0 9 C-2 6 -2 6 -1.6875 3.375 C-1 1 -1 1 0 0 Z " fill="#DDE8E7" transform="translate(74,22)"/>
<path d="M0 0 C2.00720923 0.28674418 4.0085944 0.61866701 6 1 C6 2.98 6 4.96 6 7 C3.125 7.625 3.125 7.625 0 8 C-0.66 7.34 -1.32 6.68 -2 6 C-1.44444444 1.44444444 -1.44444444 1.44444444 0 0 Z " fill="#B6C5C9" transform="translate(138,268)"/>
<path d="M0 0 C0.9075 0.37125 1.815 0.7425 2.75 1.125 C5.88097015 2.30359299 5.88097015 2.30359299 8.375 1.125 C8.91125 0.75375 9.4475 0.3825 10 0 C9.62875 0.9075 9.2575 1.815 8.875 2.75 C7.69640701 5.88097015 7.69640701 5.88097015 8.875 8.375 C9.24625 8.91125 9.6175 9.4475 10 10 C9.0925 9.62875 8.185 9.2575 7.25 8.875 C4.11902985 7.69640701 4.11902985 7.69640701 1.625 8.875 C1.08875 9.24625 0.5525 9.6175 0 10 C0.37125 9.0925 0.7425 8.185 1.125 7.25 C2.30359299 4.11902985 2.30359299 4.11902985 1.125 1.625 C0.75375 1.08875 0.3825 0.5525 0 0 Z " fill="#4E6995" transform="translate(647,329)"/>
<path d="M0 0 C0.9075 0.37125 1.815 0.7425 2.75 1.125 C5.88097015 2.30359299 5.88097015 2.30359299 8.375 1.125 C8.91125 0.75375 9.4475 0.3825 10 0 C9.62875 0.9075 9.2575 1.815 8.875 2.75 C7.69640701 5.88097015 7.69640701 5.88097015 8.875 8.375 C9.24625 8.91125 9.6175 9.4475 10 10 C9.0925 9.62875 8.185 9.2575 7.25 8.875 C4.11902985 7.69640701 4.11902985 7.69640701 1.625 8.875 C1.08875 9.24625 0.5525 9.6175 0 10 C0.37125 9.0925 0.7425 8.185 1.125 7.25 C2.30359299 4.11902985 2.30359299 4.11902985 1.125 1.625 C0.75375 1.08875 0.3825 0.5525 0 0 Z " fill="#4E6995" transform="translate(647,266)"/>
<path d="M0 0 C0.9075 0.37125 1.815 0.7425 2.75 1.125 C5.88097015 2.30359299 5.88097015 2.30359299 8.375 1.125 C8.91125 0.75375 9.4475 0.3825 10 0 C9.62875 0.9075 9.2575 1.815 8.875 2.75 C7.69640701 5.88097015 7.69640701 5.88097015 8.875 8.375 C9.24625 8.91125 9.6175 9.4475 10 10 C9.0925 9.62875 8.185 9.2575 7.25 8.875 C4.11902985 7.69640701 4.11902985 7.69640701 1.625 8.875 C1.08875 9.24625 0.5525 9.6175 0 10 C0.37125 9.0925 0.7425 8.185 1.125 7.25 C2.30359299 4.11902985 2.30359299 4.11902985 1.125 1.625 C0.75375 1.08875 0.3825 0.5525 0 0 Z " fill="#4E6995" transform="translate(647,204)"/>
<path d="M0 0 C0.33 1.32 0.66 2.64 1 4 C0.01 4.33 -0.98 4.66 -2 5 C-1.34 5 -0.68 5 0 5 C-0.33 5.99 -0.66 6.98 -1 8 C-5.875 7.125 -5.875 7.125 -7 6 C-7.04080783 4.00041636 -7.04254356 1.99954746 -7 0 C-4.3333581 -1.33332095 -2.83319697 -0.67102033 0 0 Z " fill="#EAEDE7" transform="translate(36,111)"/>
<path d="M0 0 C0.33 1.32 0.66 2.64 1 4 C0.01 4.33 -0.98 4.66 -2 5 C-1.34 5 -0.68 5 0 5 C-0.33 5.99 -0.66 6.98 -1 8 C-5.875 7.125 -5.875 7.125 -7 6 C-7.04080783 4.00041636 -7.04254356 1.99954746 -7 0 C-4.3333581 -1.33332095 -2.83319697 -0.67102033 0 0 Z " fill="#EAEDE7" transform="translate(162,23)"/>
<path d="M0 0 C1.65 0 3.3 0 5 0 C6.25664978 2.90600261 7 4.79604584 7 8 C1.25 9.125 1.25 9.125 -1 8 C-1 7.34 -1 6.68 -1 6 C0.32 6 1.64 6 3 6 C1.68 5.34 0.36 4.68 -1 4 C-0.67 2.68 -0.34 1.36 0 0 Z " fill="#D8E6E9" transform="translate(100,22)"/>
<path d="M0 0 C0.66 0 1.32 0 2 0 C2 2.31 2 4.62 2 7 C2.99 7 3.98 7 5 7 C5 4.69 5 2.38 5 0 C5.99 0 6.98 0 8 0 C8 2.97 8 5.94 8 9 C5.66705225 9.04241723 3.33297433 9.04092937 1 9 C0 8 0 8 -0.09765625 6.15234375 C-0.06510417 4.1015625 -0.03255208 2.05078125 0 0 Z " fill="#E7EBE5" transform="translate(57,110)"/>
<path d="M0 0 C0.99 0 1.98 0 3 0 C3 0.66 3 1.32 3 2 C4.32 2.33 5.64 2.66 7 3 C7 5.31 7 7.62 7 10 C6.34 10 5.68 10 5 10 C5 8.02 5 6.04 5 4 C4.34 4 3.68 4 3 4 C3 5.98 3 7.96 3 10 C2.01 10 1.02 10 0 10 C0 6.7 0 3.4 0 0 Z " fill="#D9E8E4" transform="translate(62,329)"/>
<path d="M0 0 C0 1.98 0 3.96 0 6 C-2.375 6.625 -2.375 6.625 -5 7 C-7 5 -7 5 -7.125 2.375 C-7.08375 1.59125 -7.0425 0.8075 -7 0 C-4.3333581 -1.33332095 -2.83319697 -0.67102033 0 0 Z " fill="#C2C7C8" transform="translate(75,207)"/>
<path d="M0 0 C2.64 0 5.28 0 8 0 C8 0.66 8 1.32 8 2 C6.35 2 4.7 2 3 2 C3 2.66 3 3.32 3 4 C4.32 4 5.64 4 7 4 C7 4.66 7 5.32 7 6 C5.68 6 4.36 6 3 6 C3 7.32 3 8.64 3 10 C2.01 10 1.02 10 0 10 C0 6.7 0 3.4 0 0 Z " fill="#D2E4E9" transform="translate(18,204)"/>
<path d="M0 0 C1.65 0 3.3 0 5 0 C6.10844919 3.32534757 5.84454356 5.62182575 5 9 C3.35 9 1.7 9 0 9 C-0.33 8.01 -0.66 7.02 -1 6 C0.32 6 1.64 6 3 6 C1.68 5.34 0.36 4.68 -1 4 C-0.67 2.68 -0.34 1.36 0 0 Z " fill="#E7E5DB" transform="translate(72,110)"/>
<path d="M0 0 C1.65 0 3.3 0 5 0 C6.10844919 3.32534757 5.84454356 5.62182575 5 9 C3.35 9 1.7 9 0 9 C-0.33 8.01 -0.66 7.02 -1 6 C0.32 6 1.64 6 3 6 C1.68 5.34 0.36 4.68 -1 4 C-0.67 2.68 -0.34 1.36 0 0 Z " fill="#E7E5DB" transform="translate(39,110)"/>
<path d="M0 0 C2.97 0 5.94 0 9 0 C9 0.66 9 1.32 9 2 C8.01 2 7.02 2 6 2 C6 5.3 6 8.6 6 12 C5.01 12 4.02 12 3 12 C3 8.7 3 5.4 3 2 C2.01 2 1.02 2 0 2 C0 1.34 0 0.68 0 0 Z " fill="#EEF0E6" transform="translate(132,19)"/>
<path d="M0 0 C2.5 0.125 2.5 0.125 3.5 1.125 C3.54092937 3.45797433 3.54241723 5.79205225 3.5 8.125 C1.52 8.125 -0.46 8.125 -2.5 8.125 C-2.83 6.805 -3.16 5.485 -3.5 4.125 C-2.84 3.795 -2.18 3.465 -1.5 3.125 C-2.16 2.465 -2.82 1.805 -3.5 1.125 C-2.5 0.125 -2.5 0.125 0 0 Z " fill="#D1CDBB" transform="translate(113.5,267.875)"/>
<path d="M0 0 C2.5 0.125 2.5 0.125 3.5 1.125 C3.54092937 3.45797433 3.54241723 5.79205225 3.5 8.125 C1.52 8.125 -0.46 8.125 -2.5 8.125 C-2.83 6.805 -3.16 5.485 -3.5 4.125 C-2.84 3.795 -2.18 3.465 -1.5 3.125 C-2.16 2.465 -2.82 1.805 -3.5 1.125 C-2.5 0.125 -2.5 0.125 0 0 Z " fill="#D1CDBB" transform="translate(61.5,267.875)"/>
<path d="M0 0 C1.2375 0.1546875 1.2375 0.1546875 2.5 0.3125 C3.16 1.3025 3.82 2.2925 4.5 3.3125 C2.5 3.3125 0.5 3.3125 -1.5 3.3125 C-1.5 4.6325 -1.5 5.9525 -1.5 7.3125 C0.15 6.9825 1.8 6.6525 3.5 6.3125 C3.5 7.3025 3.5 8.2925 3.5 9.3125 C2.5 10.3125 2.5 10.3125 0.0625 10.5625 C-0.783125 10.48 -1.62875 10.3975 -2.5 10.3125 C-4.64915785 7.08876323 -4.88286803 6.04546326 -4.5 2.3125 C-2.5 0.3125 -2.5 0.3125 0 0 Z " fill="#E6F5F4" transform="translate(22.5,328.6875)"/>
<path d="M0 0 C2.5 0.125 2.5 0.125 3.5 1.125 C3.54092937 3.45797433 3.54241723 5.79205225 3.5 8.125 C1.52 8.125 -0.46 8.125 -2.5 8.125 C-2.83 6.805 -3.16 5.485 -3.5 4.125 C-2.51 3.795 -1.52 3.465 -0.5 3.125 C-1.49 2.465 -2.48 1.805 -3.5 1.125 C-2.5 0.125 -2.5 0.125 0 0 Z " fill="#D6E1DE" transform="translate(156.5,267.875)"/>
<path d="M0 0 C1.67542976 0.28604898 3.34385343 0.61781233 5 1 C6.125 5.75 6.125 5.75 5 8 C3.33388095 8.042721 1.66617115 8.04063832 0 8 C-1 7 -1 7 -1.125 4 C-1 1 -1 1 0 0 Z " fill="#F7F4E8" transform="translate(43,206)"/>
<path d="M0 0 C1.67542976 0.28604898 3.34385343 0.61781233 5 1 C5 3.31 5 5.62 5 8 C3.02 8 1.04 8 -1 8 C-1.33 6.68 -1.66 5.36 -2 4 C-1.01 3.67 -0.02 3.34 1 3 C0.34 2.34 -0.32 1.68 -1 1 C-0.67 0.67 -0.34 0.34 0 0 Z " fill="#D9E4E1" transform="translate(30,331)"/>
<path d="M0 0 C1.99954746 -0.04254356 4.00041636 -0.04080783 6 0 C7 1 7 1 7.0625 4.5625 C7.041875 5.696875 7.02125 6.83125 7 8 C6.01 8 5.02 8 4 8 C4 6.02 4 4.04 4 2 C3.34 2 2.68 2 2 2 C2 3.98 2 5.96 2 8 C1.34 8 0.68 8 0 8 C0 5.36 0 2.72 0 0 Z " fill="#E3E6D3" transform="translate(54,331)"/>
<path d="M0 0 C0.66 0 1.32 0 2 0 C2 1.98 2 3.96 2 6 C2.66 6 3.32 6 4 6 C4 4.02 4 2.04 4 0 C4.99 0 5.98 0 7 0 C7 2.64 7 5.28 7 8 C5.00045254 8.04254356 2.99958364 8.04080783 1 8 C0 7 0 7 -0.0625 3.4375 C-0.041875 2.303125 -0.02125 1.16875 0 0 Z " fill="#CCDCD5" transform="translate(41,268)"/>
<path d="M0 0 C0.78375 0.04125 1.5675 0.0825 2.375 0.125 C2.705 1.115 3.035 2.105 3.375 3.125 C1.725 2.795 0.075 2.465 -1.625 2.125 C-1.625 3.775 -1.625 5.425 -1.625 7.125 C0.025 6.795 1.675 6.465 3.375 6.125 C3.045 7.115 2.715 8.105 2.375 9.125 C0 9.25 0 9.25 -2.625 9.125 C-4.625 7.125 -4.625 7.125 -4.875 4.625 C-4.51649553 1.03995533 -3.59522993 0.17120143 0 0 Z " fill="#C8E4EE" transform="translate(43.625,21.875)"/>
<path d="M0 0 C1.67542976 0.28604898 3.34385343 0.61781233 5 1 C5 3.31 5 5.62 5 8 C3.02 8 1.04 8 -1 8 C-1 6.68 -1 5.36 -1 4 C-0.34 3.67 0.32 3.34 1 3 C0.34 2.34 -0.32 1.68 -1 1 C-0.67 0.67 -0.34 0.34 0 0 Z " fill="#DEE6E1" transform="translate(89,331)"/>
<path d="M0 0 C1.67542976 0.28604898 3.34385343 0.61781233 5 1 C5 3.31 5 5.62 5 8 C3.02 8 1.04 8 -1 8 C-1 6.68 -1 5.36 -1 4 C-0.34 3.67 0.32 3.34 1 3 C0.34 2.34 -0.32 1.68 -1 1 C-0.67 0.67 -0.34 0.34 0 0 Z " fill="#DEE6E1" transform="translate(86,268)"/>
<path d="M0 0 C1.65 0 3.3 0 5 0 C5 3.3 5 6.6 5 10 C4.67 9.01 4.34 8.02 4 7 C2.68 7 1.36 7 0 7 C-0.38133299 5.0085944 -0.71325582 3.00720923 -1 1 C-0.67 0.67 -0.34 0.34 0 0 Z " fill="#B2ABB0" transform="translate(43,55)"/>
<path d="M0 0 C1.66611905 -0.042721 3.33382885 -0.04063832 5 0 C6 1 6 1 6.09765625 2.84765625 C6.06510417 4.8984375 6.03255208 6.94921875 6 9 C4.68 8.34 3.36 7.68 2 7 C2.33 6.34 2.66 5.68 3 5 C1.68 5.33 0.36 5.66 -1 6 C-1 5.34 -1 4.68 -1 4 C-0.34 3.67 0.32 3.34 1 3 C0.34 3 -0.32 3 -1 3 C-0.67 2.01 -0.34 1.02 0 0 Z " fill="#EFF7F3" transform="translate(119,22)"/>
<path d="M0 0 C1.2065625 0.0309375 1.2065625 0.0309375 2.4375 0.0625 C2.7675 2.7025 3.0975 5.3425 3.4375 8.0625 C1.1275 8.0625 -1.1825 8.0625 -3.5625 8.0625 C-3.5625 6.7425 -3.5625 5.4225 -3.5625 4.0625 C-2.9025 3.7325 -2.2425 3.4025 -1.5625 3.0625 C-2.2225 2.4025 -2.8825 1.7425 -3.5625 1.0625 C-2.5625 0.0625 -2.5625 0.0625 0 0 Z " fill="#E0E4E3" transform="translate(74.5625,330.9375)"/>
<path d="M0 0 C1.2065625 0.0309375 1.2065625 0.0309375 2.4375 0.0625 C2.7675 2.7025 3.0975 5.3425 3.4375 8.0625 C1.1275 8.0625 -1.1825 8.0625 -3.5625 8.0625 C-3.5625 6.7425 -3.5625 5.4225 -3.5625 4.0625 C-2.9025 3.7325 -2.2425 3.4025 -1.5625 3.0625 C-2.2225 2.4025 -2.8825 1.7425 -3.5625 1.0625 C-2.5625 0.0625 -2.5625 0.0625 0 0 Z " fill="#E0E4E3" transform="translate(107.5625,205.9375)"/>
<path d="M0 0 C1.2065625 0.0309375 1.2065625 0.0309375 2.4375 0.0625 C2.7675 2.7025 3.0975 5.3425 3.4375 8.0625 C1.1275 8.0625 -1.1825 8.0625 -3.5625 8.0625 C-3.5625 6.7425 -3.5625 5.4225 -3.5625 4.0625 C-2.9025 3.7325 -2.2425 3.4025 -1.5625 3.0625 C-2.2225 2.4025 -2.8825 1.7425 -3.5625 1.0625 C-2.5625 0.0625 -2.5625 0.0625 0 0 Z " fill="#E0E4E3" transform="translate(30.5625,205.9375)"/>
<path d="M0 0 C-1.65091778 4.29238623 -4.73754566 6.8793915 -8 10 C-10.62187494 8.95125002 -11.79371361 8.35068687 -13.25 5.875 C-13.4975 5.25625 -13.745 4.6375 -14 4 C-12.02 4.66 -10.04 5.32 -8 6 C-7.59007812 5.566875 -7.18015625 5.13375 -6.7578125 4.6875 C-6.21898437 4.130625 -5.68015625 3.57375 -5.125 3 C-4.59132813 2.443125 -4.05765625 1.88625 -3.5078125 1.3125 C-2 0 -2 0 0 0 Z " fill="#596C97" transform="translate(572,329)"/>
<path d="M0 0 C-1.65091778 4.29238623 -4.73754566 6.8793915 -8 10 C-10.62187494 8.95125002 -11.79371361 8.35068687 -13.25 5.875 C-13.4975 5.25625 -13.745 4.6375 -14 4 C-12.02 4.66 -10.04 5.32 -8 6 C-7.59007812 5.566875 -7.18015625 5.13375 -6.7578125 4.6875 C-6.21898437 4.130625 -5.68015625 3.57375 -5.125 3 C-4.59132813 2.443125 -4.05765625 1.88625 -3.5078125 1.3125 C-2 0 -2 0 0 0 Z " fill="#596C97" transform="translate(572,266)"/>
<path d="M0 0 C-1.65091778 4.29238623 -4.73754566 6.8793915 -8 10 C-10.62187494 8.95125002 -11.79371361 8.35068687 -13.25 5.875 C-13.4975 5.25625 -13.745 4.6375 -14 4 C-12.02 4.66 -10.04 5.32 -8 6 C-7.59007812 5.566875 -7.18015625 5.13375 -6.7578125 4.6875 C-6.21898437 4.130625 -5.68015625 3.57375 -5.125 3 C-4.59132813 2.443125 -4.05765625 1.88625 -3.5078125 1.3125 C-2 0 -2 0 0 0 Z " fill="#596C97" transform="translate(572,204)"/>
<path d="M0 0 C0.33 0 0.66 0 1 0 C1 3.3 1 6.6 1 10 C-0.65 9.67 -2.3 9.34 -4 9 C-5.125 5.25 -5.125 5.25 -4 3 C-2.68 3 -1.36 3 0 3 C0 2.01 0 1.02 0 0 Z " fill="#908A99" transform="translate(479,141)"/>
<path d="M0 0 C1.67542976 0.28604898 3.34385343 0.61781233 5 1 C5 2.65 5 4.3 5 6 C3.34385343 6.38218767 1.67542976 6.71395102 0 7 C-1 6 -1 6 -1.125 3.5 C-1 1 -1 1 0 0 Z " fill="#B7B5B8" transform="translate(76,55)"/>
<path d="M0 0 C1.65 0.33 3.3 0.66 5 1 C4.67 1.66 4.34 2.32 4 3 C4.66 3.33 5.32 3.66 6 4 C5.67 5.32 5.34 6.64 5 8 C3.35 8 1.7 8 0 8 C-0.33 7.34 -0.66 6.68 -1 6 C-0.34 5.67 0.32 5.34 1 5 C0.34 4.67 -0.32 4.34 -1 4 C-0.67 2.68 -0.34 1.36 0 0 Z " fill="#EAF0E7" transform="translate(113,206)"/>
<path d="M0 0 C2.625 0.375 2.625 0.375 5 1 C5 1.66 5 2.32 5 3 C3.68 2.67 2.36 2.34 1 2 C1 3.32 1 4.64 1 6 C2.32 5.67 3.64 5.34 5 5 C4.67 5.99 4.34 6.98 4 8 C2.35 7.67 0.7 7.34 -1 7 C-1.625 4.625 -1.625 4.625 -2 2 C-1.34 1.34 -0.68 0.68 0 0 Z " fill="#CEEDF4" transform="translate(61,206)"/>
<path d="M0 0 C1.98 0 3.96 0 6 0 C5.125 3.875 5.125 3.875 4 5 C4.66 5.33 5.32 5.66 6 6 C6 6.66 6 7.32 6 8 C4.02 8 2.04 8 0 8 C0.875 4.125 0.875 4.125 2 3 C1.34 2.67 0.68 2.34 0 2 C0 1.34 0 0.68 0 0 Z " fill="#F6F4E5" transform="translate(35,206)"/>
<path d="M0 0 C0.66 0 1.32 0 2 0 C2 0.99 2 1.98 2 3 C3.65 3 5.3 3 7 3 C7.33 2.01 7.66 1.02 8 0 C8.33 0.99 8.66 1.98 9 3 C7 5 7 5 4.375 5.125 C3.59125 5.08375 2.8075 5.0425 2 5 C2 6.65 2 8.3 2 10 C1.34 10 0.68 10 0 10 C0 6.7 0 3.4 0 0 Z " fill="#FCF4E2" transform="translate(19,109)"/>
<path d="M0 0 C1.670625 0.061875 1.670625 0.061875 3.375 0.125 C3.375 2.765 3.375 5.405 3.375 8.125 C2.715 8.125 2.055 8.125 1.375 8.125 C1.0346875 7.196875 1.0346875 7.196875 0.6875 6.25 C-1.00429835 3.51089791 -2.61744161 3.07475528 -5.625 2.125 C-3.625 0.125 -3.625 0.125 0 0 Z " fill="#B0B7BC" transform="translate(682.625,-0.125)"/>
<path d="M0 0 C3.63 0 7.26 0 11 0 C10.67 0.99 10.34 1.98 10 3 C7.36 2.67 4.72 2.34 2 2 C2 3.98 2 5.96 2 8 C1.34 8 0.68 8 0 8 C0 5.36 0 2.72 0 0 Z " fill="#ECF6ED" transform="translate(93,268)"/>
<path d="M0 0 C1.65 0.33 3.3 0.66 5 1 C5 3.62113708 4.68707555 5.50935112 4 8 C2.35 7.67 0.7 7.34 -1 7 C-0.34 6.34 0.32 5.68 1 5 C0.34 4.67 -0.32 4.34 -1 4 C-0.67 2.68 -0.34 1.36 0 0 Z " fill="#F8F9F1" transform="translate(29,268)"/>
<path d="M0 0 C1.98 0 3.96 0 6 0 C6 0.66 6 1.32 6 2 C5.01 2 4.02 2 3 2 C3 4.31 3 6.62 3 9 C2.01 9 1.02 9 0 9 C0 6.03 0 3.06 0 0 Z " fill="#DBEBED" transform="translate(486,110)"/>
<path d="M0 0 C0.598125 0.185625 1.19625 0.37125 1.8125 0.5625 C4.16408762 1.22093687 4.16408762 1.22093687 7 0 C6.47731534 2.76276177 5.89130413 5.3260876 5 8 C4.01 7.67 3.02 7.34 2 7 C0.8125 3.4375 0.8125 3.4375 0 0 Z " fill="#DCEAE4" transform="translate(145,268)"/>
<path d="M0 0 C1.98 0 3.96 0 6 0 C4.68 0.33 3.36 0.66 2 1 C2 1.99 2 2.98 2 4 C3.32 4.33 4.64 4.66 6 5 C4.68 5 3.36 5 2 5 C2 6.32 2 7.64 2 9 C3.32 9.33 4.64 9.66 6 10 C4.02 10 2.04 10 0 10 C0 6.7 0 3.4 0 0 Z " fill="#998F8D" transform="translate(28,141)"/>
<path d="M0 0 C1.2065625 0.0309375 1.2065625 0.0309375 2.4375 0.0625 C1.7775 1.7125 1.1175 3.3625 0.4375 5.0625 C1.0975 5.7225 1.7575 6.3825 2.4375 7.0625 C0.4575 7.0625 -1.5225 7.0625 -3.5625 7.0625 C-3.60504356 5.06295254 -3.60330783 3.06208364 -3.5625 1.0625 C-2.5625 0.0625 -2.5625 0.0625 0 0 Z " fill="#BCB6B4" transform="translate(134.5625,54.9375)"/>
<path d="M0 0 C2.0625 0.4375 2.0625 0.4375 4 1 C4 2.65 4 4.3 4 6 C2.0625 6.5625 2.0625 6.5625 0 7 C-1 6 -1 6 -1.125 3.5 C-1 1 -1 1 0 0 Z " fill="#A39596" transform="translate(468,144)"/>
<path d="M0 0 C1.65 0.33 3.3 0.66 5 1 C5 2.98 5 4.96 5 7 C3.35 7 1.7 7 0 7 C0 5.68 0 4.36 0 3 C0.99 3 1.98 3 3 3 C3 2.34 3 1.68 3 1 C2.01 1.33 1.02 1.66 0 2 C0 1.34 0 0.68 0 0 Z " fill="#9B9EA7" transform="translate(59,144)"/>
<path d="M0 0 C1.67542976 0.28604898 3.34385343 0.61781233 5 1 C5 1.99 5 2.98 5 4 C4.01 4.495 4.01 4.495 3 5 C3.66 5.33 4.32 5.66 5 6 C3.34385343 6.38218767 1.67542976 6.71395102 0 7 C-1 6 -1 6 -1.125 3.5 C-1 1 -1 1 0 0 Z " fill="#A59EA0" transform="translate(90,55)"/>
<path d="M0 0 C1.65 0 3.3 0 5 0 C5 0.66 5 1.32 5 2 C4.34 2 3.68 2 3 2 C3 4.31 3 6.62 3 9 C2.01 9 1.02 9 0 9 C0 6.03 0 3.06 0 0 Z " fill="#EBEDD5" transform="translate(149,22)"/>
<path d="M0 0 C0 2.31 0 4.62 0 7 C-2.31 7 -4.62 7 -7 7 C-6.04004484 4.12013451 -3.56234645 0 0 0 Z " fill="#AFB6BB" transform="translate(686,442)"/>
<path d="M0 0 C0 0.99 0 1.98 0 3 C-1.32 3 -2.64 3 -4 3 C-4 3.66 -4 4.32 -4 5 C-2.68 4.67 -1.36 4.34 0 4 C-0.33 4.66 -0.66 5.32 -1 6 C-2.32 6 -3.64 6 -5 6 C-5.33 4.02 -5.66 2.04 -6 0 C-3.50907189 -1.24546405 -2.58919267 -0.7767578 0 0 Z " fill="#A49FA1" transform="translate(63,56)"/>
<path d="M0 0 C1.66611905 -0.042721 3.33382885 -0.04063832 5 0 C6 1 6 1 6.0625 4.0625 C6.041875 5.031875 6.02125 6.00125 6 7 C4.35 6.67 2.7 6.34 1 6 C0.67 4.02 0.34 2.04 0 0 Z " fill="#B1B1AD" transform="translate(77,268)"/>
<path d="M0 0 C0.33 0.66 0.66 1.32 1 2 C1.66 2 2.32 2 3 2 C3 2.66 3 3.32 3 4 C2.34 4 1.68 4 1 4 C1 5.32 1 6.64 1 8 C1.66 8 2.32 8 3 8 C3 8.66 3 9.32 3 10 C1.68 10 0.36 10 -1 10 C-1.9765625 3.9453125 -1.9765625 3.9453125 -2 2 C-1.34 1.34 -0.68 0.68 0 0 Z " fill="#E3F2EE" transform="translate(37,266)"/>
<path d="M0 0 C0.33 0 0.66 0 1 0 C1.33 1.65 1.66 3.3 2 5 C2.66 5 3.32 5 4 5 C4.66 4.34 5.32 3.68 6 3 C6 4.65 6 6.3 6 8 C4.68 8 3.36 8 2 8 C2 8.99 2 9.98 2 11 C1.34 11 0.68 11 0 11 C0 7.37 0 3.74 0 0 Z " fill="#EFF8F3" transform="translate(90,206)"/>
<path d="M0 0 C1.65 0 3.3 0 5 0 C5 0.66 5 1.32 5 2 C4.34 2 3.68 2 3 2 C3 3.98 3 5.96 3 8 C2.01 8 1.02 8 0 8 C0 5.36 0 2.72 0 0 Z " fill="#DDE3D4" transform="translate(131,268)"/>
<path d="M0 0 C1.65 0 3.3 0 5 0 C5 0.66 5 1.32 5 2 C4.34 2 3.68 2 3 2 C3 3.98 3 5.96 3 8 C2.01 8 1.02 8 0 8 C0 5.36 0 2.72 0 0 Z " fill="#D6E3E3" transform="translate(66,268)"/>
<path d="M0 0 C2.64 0 5.28 0 8 0 C8 0.66 8 1.32 8 2 C6.35 2 4.7 2 3 2 C3 2.66 3 3.32 3 4 C2.34 4 1.68 4 1 4 C1 5.98 1 7.96 1 10 C0.67 10 0.34 10 0 10 C0 6.7 0 3.4 0 0 Z " fill="#D0E7F0" transform="translate(18,266)"/>
<path d="M0 0 C1.65 0 3.3 0 5 0 C5 0.66 5 1.32 5 2 C4.34 2 3.68 2 3 2 C3 3.98 3 5.96 3 8 C2.01 8 1.02 8 0 8 C0 5.36 0 2.72 0 0 Z " fill="#D6E3E3" transform="translate(98,206)"/>
<path d="M0 0 C1.65 0 3.3 0 5 0 C5 0.66 5 1.32 5 2 C4.34 2 3.68 2 3 2 C3 3.98 3 5.96 3 8 C2.01 8 1.02 8 0 8 C0 5.36 0 2.72 0 0 Z " fill="#D6E3E3" transform="translate(50,206)"/>
<path d="M0 0 C1.98 0 3.96 0 6 0 C6 1.98 6 3.96 6 6 C4.02 6 2.04 6 0 6 C0 4.02 0 2.04 0 0 Z " fill="#C2BBB6" transform="translate(392,143)"/>
<path d="M0 0 C1.32 0 2.64 0 4 0 C4 2.31 4 4.62 4 7 C2.35 7 0.7 7 -1 7 C-1 5.68 -1 4.36 -1 3 C0.32 3 1.64 3 3 3 C3 2.34 3 1.68 3 1 C1.68 1.33 0.36 1.66 -1 2 C-0.67 1.34 -0.34 0.68 0 0 Z " fill="#9D999C" transform="translate(108,55)"/>
<path d="M0 0 C0.66 0 1.32 0 2 0 C2 0.99 2 1.98 2 3 C2.99 3 3.98 3 5 3 C5 3.66 5 4.32 5 5 C4.01 5 3.02 5 2 5 C2 5.99 2 6.98 2 8 C1.34 8 0.68 8 0 8 C0 7.01 0 6.02 0 5 C-0.99 5 -1.98 5 -3 5 C-3 4.34 -3 3.68 -3 3 C-2.01 3 -1.02 3 0 3 C0 2.01 0 1.02 0 0 Z " fill="#32558F" transform="translate(227,53)"/>
<path d="M0 0 C1.32 0 2.64 0 4 0 C4 2.31 4 4.62 4 7 C2.35 7 0.7 7 -1 7 C-1 5.68 -1 4.36 -1 3 C0.32 3 1.64 3 3 3 C3 2.34 3 1.68 3 1 C1.68 1.33 0.36 1.66 -1 2 C-0.67 1.34 -0.34 0.68 0 0 Z " fill="#9A98A2" transform="translate(126,55)"/>
<path d="M0 0 C1.98 0.495 1.98 0.495 4 1 C4 3.31 4 5.62 4 8 C3.01 8 2.02 8 1 8 C0.40267181 5.23735711 0 2.83967231 0 0 Z " fill="#DDE1D6" transform="translate(44,331)"/>
<path d="M0 0 C1.98 0.495 1.98 0.495 4 1 C4 3.31 4 5.62 4 8 C3.01 8 2.02 8 1 8 C0.40267181 5.23735711 0 2.83967231 0 0 Z " fill="#DDE1D6" transform="translate(84,206)"/>
<path d="M0 0 C0.33 0 0.66 0 1 0 C1 2.64 1 5.28 1 8 C-1.31 8 -3.62 8 -6 8 C-6.33 6.68 -6.66 5.36 -7 4 C-6.67 4.66 -6.34 5.32 -6 6 C-5.34 6 -4.68 6 -4 6 C-4 5.34 -4 4.68 -4 4 C-3.01 4.33 -2.02 4.66 -1 5 C-0.67 3.35 -0.34 1.7 0 0 Z " fill="#D1D1CC" transform="translate(484,111)"/>
<path d="M0 0 C0.33 0 0.66 0 1 0 C1 2.64 1 5.28 1 8 C-1.31 8 -3.62 8 -6 8 C-6.33 6.68 -6.66 5.36 -7 4 C-6.67 4.66 -6.34 5.32 -6 6 C-5.34 6 -4.68 6 -4 6 C-4 5.34 -4 4.68 -4 4 C-3.01 4.33 -2.02 4.66 -1 5 C-0.67 3.35 -0.34 1.7 0 0 Z " fill="#D1D1CC" transform="translate(86,111)"/>
<path d="M0 0 C0.99 0 1.98 0 3 0 C3 2.97 3 5.94 3 9 C2.01 9 1.02 9 0 9 C0 6.03 0 3.06 0 0 Z " fill="#E1E9E5" transform="translate(457,110)"/>
<path d="M0 0 C0.99 0 1.98 0 3 0 C3 2.97 3 5.94 3 9 C2.01 9 1.02 9 0 9 C0 6.03 0 3.06 0 0 Z " fill="#D4E8EA" transform="translate(66,110)"/>
<path d="M0 0 C0.33 0.66 0.66 1.32 1 2 C1.99 2 2.98 2 4 2 C4.33 1.34 4.66 0.68 5 0 C5.33 1.65 5.66 3.3 6 5 C4.34385343 5.38218767 2.67542976 5.71395102 1 6 C0 5 0 5 -0.0625 2.4375 C-0.041875 1.633125 -0.02125 0.82875 0 0 Z " fill="#A8A7AF" transform="translate(139,56)"/>
<path d="M0 0 C0.33 0.99 0.66 1.98 1 3 C3.00016466 4.20882096 3.00016466 4.20882096 5 5 C1.01803543 6.05404945 -1.98195309 5.84098656 -6 5 C-6 4.34 -6 3.68 -6 3 C-5.195625 2.87625 -4.39125 2.7525 -3.5625 2.625 C-2.716875 2.41875 -1.87125 2.2125 -1 2 C-0.67 1.34 -0.34 0.68 0 0 Z " fill="#173658" transform="translate(27,269)"/>
<path d="M0 0 C1.65 0 3.3 0 5 0 C5 0.66 5 1.32 5 2 C4.01 2.495 4.01 2.495 3 3 C2.34227572 6.02934491 2.34227572 6.02934491 2 9 C1.34 9 0.68 9 0 9 C0 6.03 0 3.06 0 0 Z " fill="#F8FCF6" transform="translate(89,110)"/>
<path d="M0 0 C0.66 0 1.32 0 2 0 C2 3.96 2 7.92 2 12 C1.34 12 0.68 12 0 12 C-0.19401633 10.18818595 -0.38004375 8.37551468 -0.5625 6.5625 C-0.66691406 5.55316406 -0.77132812 4.54382813 -0.87890625 3.50390625 C-0.91886719 2.67761719 -0.95882812 1.85132812 -1 1 C-0.67 0.67 -0.34 0.34 0 0 Z " fill="#FDF8E6" transform="translate(53,110)"/>
<path d="M0 0 C0.33 0 0.66 0 1 0 C1.33 1.65 1.66 3.3 2 5 C3.32 5 4.64 5 6 5 C6 6.32 6 7.64 6 9 C4.02 9 2.04 9 0 9 C0 6.03 0 3.06 0 0 Z " fill="#B3AB94" transform="translate(116,22)"/>
<path d="M0 0 C2.46800047 1.15173355 4.04783565 2.04783565 6 4 C5.34 4 4.68 4 4 4 C3.67 5.65 3.34 7.3 3 9 C2.01 9.33 1.02 9.66 0 10 C0.37125 9.0925 0.7425 8.185 1.125 7.25 C2.30359299 4.11902985 2.30359299 4.11902985 1.125 1.625 C0.75375 1.08875 0.3825 0.5525 0 0 Z " fill="#686C91" transform="translate(647,329)"/>
<path d="M0 0 C2.46800047 1.15173355 4.04783565 2.04783565 6 4 C5.34 4 4.68 4 4 4 C3.67 5.65 3.34 7.3 3 9 C2.01 9.33 1.02 9.66 0 10 C0.37125 9.0925 0.7425 8.185 1.125 7.25 C2.30359299 4.11902985 2.30359299 4.11902985 1.125 1.625 C0.75375 1.08875 0.3825 0.5525 0 0 Z " fill="#686C91" transform="translate(647,266)"/>
<path d="M0 0 C2.46800047 1.15173355 4.04783565 2.04783565 6 4 C5.34 4 4.68 4 4 4 C3.67 5.65 3.34 7.3 3 9 C2.01 9.33 1.02 9.66 0 10 C0.37125 9.0925 0.7425 8.185 1.125 7.25 C2.30359299 4.11902985 2.30359299 4.11902985 1.125 1.625 C0.75375 1.08875 0.3825 0.5525 0 0 Z " fill="#686C91" transform="translate(647,204)"/>
<path d="M0 0 C2.31 0 4.62 0 7 0 C7 0.66 7 1.32 7 2 C5.35 2 3.7 2 2 2 C2 3.65 2 5.3 2 7 C1.34 7 0.68 7 0 7 C0 4.69 0 2.38 0 0 Z " fill="#FFFBF0" transform="translate(448,112)"/>
<path d="M0 0 C1.65 0 3.3 0 5 0 C5 0.66 5 1.32 5 2 C4.01 2 3.02 2 2 2 C2 4.31 2 6.62 2 9 C1.34 9 0.68 9 0 9 C0 6.03 0 3.06 0 0 Z " fill="#FDF8EB" transform="translate(472,110)"/>
<path d="M0 0 C0.66 0 1.32 0 2 0 C2 2.31 2 4.62 2 7 C2.99 7 3.98 7 5 7 C5 7.66 5 8.32 5 9 C3.35 8.67 1.7 8.34 0 8 C0 5.36 0 2.72 0 0 Z " fill="#F6FDF8" transform="translate(57,110)"/>
<path d="M0 0 C0.66 0.99 1.32 1.98 2 3 C4.05003955 4.19232613 4.05003955 4.19232613 6 5 C5.01 5.33 4.02 5.66 3 6 C2.34 5.67 1.68 5.34 1 5 C0.67 5.66 0.34 6.32 0 7 C0 6.34 0 5.68 0 5 C-1.65 5.33 -3.3 5.66 -5 6 C-5.33 5.34 -5.66 4.68 -6 4 C-4.02 4 -2.04 4 0 4 C0 2.68 0 1.36 0 0 Z " fill="#24456F" transform="translate(37,111)"/>
<path d="M0 0 C0 0.99 0 1.98 0 3 C-0.66 3.66 -1.32 4.32 -2 5 C-2.6425235 7.06874034 -2.6425235 7.06874034 -3 9 C-3.66 9 -4.32 9 -5 9 C-5 6.69 -5 4.38 -5 2 C-3.35 1.34 -1.7 0.68 0 0 Z " fill="#AEACB5" transform="translate(151,53)"/>
<path d="M0 0 C0.99 0.33 1.98 0.66 3 1 C3 1.99 3 2.98 3 4 C-2.75 5.125 -2.75 5.125 -5 4 C-5 3.34 -5 2.68 -5 2 C-2.525 2.495 -2.525 2.495 0 3 C0 2.01 0 1.02 0 0 Z " fill="#EBEFE6" transform="translate(104,26)"/>
<path d="M0 0 C1.1446875 0.2784375 1.1446875 0.2784375 2.3125 0.5625 C5.08967375 1.22819173 5.08967375 1.22819173 8 0 C7.34 1.32 6.68 2.64 6 4 C4.68 4 3.36 4 2 4 C1.34 2.68 0.68 1.36 0 0 Z " fill="#464646" transform="translate(655,144)"/>
<path d="M0 0 C0.99 0 1.98 0 3 0 C2.67 1.65 2.34 3.3 2 5 C0.35 5 -1.3 5 -3 5 C-3.33 4.01 -3.66 3.02 -4 2 C-2.68 2 -1.36 2 0 2 C0 1.34 0 0.68 0 0 Z " fill="#F7F9F0" transform="translate(75,114)"/>
<path d="M0 0 C0.99 0 1.98 0 3 0 C2.67 1.65 2.34 3.3 2 5 C0.35 5 -1.3 5 -3 5 C-3.33 4.01 -3.66 3.02 -4 2 C-2.68 2 -1.36 2 0 2 C0 1.34 0 0.68 0 0 Z " fill="#F7F9F0" transform="translate(42,114)"/>
<path d="M0 0 C0.66 0.33 1.32 0.66 2 1 C1.67 3.97 1.34 6.94 1 10 C0.34 10 -0.32 10 -1 10 C-2.25 3.375 -2.25 3.375 0 0 Z " fill="#9B9AA5" transform="translate(122,52)"/>
<path d="M0 0 C1.65 0 3.3 0 5 0 C5 1.32 5 2.64 5 4 C3.35 4 1.7 4 0 4 C0 2.68 0 1.36 0 0 Z " fill="#8A9297" transform="translate(125,270)"/>
<path d="M0 0 C1.32 0.66 2.64 1.32 4 2 C3.67 3.32 3.34 4.64 3 6 C1.68 5.01 0.36 4.02 -1 3 C-0.67 2.01 -0.34 1.02 0 0 Z " fill="#3C598E" transform="translate(613,326)"/>
<path d="M0 0 C1.32 0.66 2.64 1.32 4 2 C3.67 3.32 3.34 4.64 3 6 C1.68 5.01 0.36 4.02 -1 3 C-0.67 2.01 -0.34 1.02 0 0 Z " fill="#3C598E" transform="translate(613,263)"/>
<path d="M0 0 C1.32 0.66 2.64 1.32 4 2 C3.67 3.32 3.34 4.64 3 6 C1.68 5.01 0.36 4.02 -1 3 C-0.67 2.01 -0.34 1.02 0 0 Z " fill="#3C598E" transform="translate(613,201)"/>
<path d="M0 0 C0.66 0.66 1.32 1.32 2 2 C2.33 1.34 2.66 0.68 3 0 C3.66 0 4.32 0 5 0 C5 1.32 5 2.64 5 4 C4.34 4 3.68 4 3 4 C2.67 4.66 2.34 5.32 2 6 C1.34 5.34 0.68 4.68 0 4 C0 2.68 0 1.36 0 0 Z " fill="#8895AE" transform="translate(49,270)"/>
<path d="M0 0 C1.67542976 0.28604898 3.34385343 0.61781233 5 1 C4.67 1.66 4.34 2.32 4 3 C3.01 3 2.02 3 1 3 C0.34 4.32 -0.32 5.64 -1 7 C-1.04254356 5.00045254 -1.04080783 2.99958364 -1 1 C-0.67 0.67 -0.34 0.34 0 0 Z " fill="#C0D8E2" transform="translate(43,206)"/>
<path d="M0 0 C2.31 0 4.62 0 7 0 C7 0.66 7 1.32 7 2 C5.35 2 3.7 2 2 2 C2 2.66 2 3.32 2 4 C1.34 4 0.68 4 0 4 C0 2.68 0 1.36 0 0 Z " fill="#F9F0DD" transform="translate(19,204)"/>
<path d="M0 0 C1.98 0.495 1.98 0.495 4 1 C4 2.65 4 4.3 4 6 C3.67 5.34 3.34 4.68 3 4 C0.97536745 3.34786708 0.97536745 3.34786708 -1 3 C-0.67 2.01 -0.34 1.02 0 0 Z " fill="#7F7587" transform="translate(490,144)"/>
<path d="M0 0 C2.475 0.495 2.475 0.495 5 1 C5 1.66 5 2.32 5 3 C4.34 3 3.68 3 3 3 C3 3.66 3 4.32 3 5 C2.01 4.67 1.02 4.34 0 4 C0 2.68 0 1.36 0 0 Z " fill="#C1D2D5" transform="translate(169,26)"/>
<path d="M0 0 C0.99 0 1.98 0 3 0 C3 1.65 3 3.3 3 5 C1.68 4.67 0.36 4.34 -1 4 C-0.67 2.68 -0.34 1.36 0 0 Z " fill="#464C56" transform="translate(56,24)"/>
<path d="M0 0 C0.99 0 1.98 0 3 0 C2.67 1.32 2.34 2.64 2 4 C3.32 3.67 4.64 3.34 6 3 C5 5 5 5 3 5.6875 C2.34 5.790625 1.68 5.89375 1 6 C0 5 0 5 -0.0625 2.4375 C-0.041875 1.633125 -0.02125 0.82875 0 0 Z " fill="#1E2F4D" transform="translate(138,21)"/>
<path d="M0 0 C2.475 0.495 2.475 0.495 5 1 C4.67 1.66 4.34 2.32 4 3 C3.34 2.67 2.68 2.34 2 2 C2.33 3.65 2.66 5.3 3 7 C2.34 7 1.68 7 1 7 C0.67 4.69 0.34 2.38 0 0 Z " fill="#B7B2AE" transform="translate(21,19)"/>
<path d="M0 0 C0.66 0 1.32 0 2 0 C2.33 2.64 2.66 5.28 3 8 C2.01 7.67 1.02 7.34 0 7 C0 4.69 0 2.38 0 0 Z " fill="#EDFEF4" transform="translate(41,268)"/>
<path d="M0 0 C0.66 0 1.32 0 2 0 C2 0.66 2 1.32 2 2 C3.32 1.67 4.64 1.34 6 1 C6.33 1.99 6.66 2.98 7 4 C5.02 4 3.04 4 1 4 C0.67 2.68 0.34 1.36 0 0 Z " fill="#EDF3F2" transform="translate(110,272)"/>
<path d="M0 0 C0.66 0 1.32 0 2 0 C2 0.66 2 1.32 2 2 C3.32 1.67 4.64 1.34 6 1 C6.33 1.99 6.66 2.98 7 4 C5.02 4 3.04 4 1 4 C0.67 2.68 0.34 1.36 0 0 Z " fill="#EDF3F2" transform="translate(98,272)"/>
<path d="M0 0 C0.66 0 1.32 0 2 0 C2 0.66 2 1.32 2 2 C3.32 1.67 4.64 1.34 6 1 C6.33 1.99 6.66 2.98 7 4 C5.02 4 3.04 4 1 4 C0.67 2.68 0.34 1.36 0 0 Z " fill="#EDF3F2" transform="translate(58,272)"/>
<path d="M0 0 C0.66 0 1.32 0 2 0 C2 0.66 2 1.32 2 2 C2.99 2 3.98 2 5 2 C5 2.66 5 3.32 5 4 C3.02 4 1.04 4 -1 4 C-0.67 2.68 -0.34 1.36 0 0 Z " fill="#F7FDF8" transform="translate(36,210)"/>
<path d="M0 0 C1.67542976 0.28604898 3.34385343 0.61781233 5 1 C5 1.66 5 2.32 5 3 C3.68 2.67 2.36 2.34 1 2 C0.67 2.99 0.34 3.98 0 5 C-0.5625 3.0625 -0.5625 3.0625 -1 1 C-0.67 0.67 -0.34 0.34 0 0 Z " fill="#F2F4E8" transform="translate(61,206)"/>
<path d="M0 0 C0.99 0.33 1.98 0.66 3 1 C2.34 1 1.68 1 1 1 C1.33 1.99 1.66 2.98 2 4 C1.67 4.66 1.34 5.32 1 6 C1.66 6.33 2.32 6.66 3 7 C1.68 6.67 0.36 6.34 -1 6 C-1.042721 4.33388095 -1.04063832 2.66617115 -1 1 C-0.67 0.67 -0.34 0.34 0 0 Z " fill="#7E7685" transform="translate(483,144)"/>
<path d="M0 0 C0.33 0.66 0.66 1.32 1 2 C2.98 1.67 4.96 1.34 7 1 C6.67 1.99 6.34 2.98 6 4 C4.35 4 2.7 4 1 4 C0.67 2.68 0.34 1.36 0 0 Z " fill="#ECF0E4" transform="translate(73,27)"/>
<path d="M0 0 C0.33 1.32 0.66 2.64 1 4 C2.65 3.67 4.3 3.34 6 3 C5.67 3.99 5.34 4.98 5 6 C3.35 6 1.7 6 0 6 C0 4.02 0 2.04 0 0 Z " fill="#F6F5EB" transform="translate(41,25)"/>
</svg>
