<?xml version="1.0"?>
<svg width="634.998" height="634.998" xmlns="http://www.w3.org/2000/svg" xmlns:svg="http://www.w3.org/2000/svg" enable-background="new 0 0 634.998 634.998" version="1.1" xml:space="preserve">
 <g class="layer">
  <title>Layer 1</title>
  <g id="svg_1">
   <g id="_x32_">
    <g id="svg_2">
     <path d="m616.96,254.89l-226.39,-248.21c-8.97,-8.91 -23.52,-8.91 -32.5,0c-5.16,5.12 -7,12.06 -6.23,18.74l0,133.67c-187.95,0 -340.33,152.37 -340.33,340.34c0,48.2 10.15,94 28.23,135.57c26.86,-141.78 162.14,-249.46 311.71,-249.46c0,13.4 0,135.98 0,135.98c-0.77,6.69 1.48,11.02 6.62,16.16c9.93,9.93 25.34,5.82 33.75,-1.36l225.14,-246.85c4.78,-4.76 6.82,-11.06 6.5,-17.29c0.32,-6.23 -1.72,-12.53 -6.5,-17.29z" fill="#b71c1c" id="svg_3"/>
    </g>
   </g>
  </g>
  <g id="svg_4"/>
  <g id="svg_5"/>
  <g id="svg_6"/>
  <g id="svg_7"/>
  <g id="svg_8"/>
  <g id="svg_9"/>
  <g id="svg_10"/>
  <g id="svg_11"/>
  <g id="svg_12"/>
  <g id="svg_13"/>
  <g id="svg_14"/>
  <g id="svg_15"/>
  <g id="svg_16"/>
  <g id="svg_17"/>
  <g id="svg_18"/>
 </g>
</svg>